G04 #@! TF.GenerationSoftware,KiCad,Pcbnew,(5.1.5)-3*
G04 #@! TF.CreationDate,2020-04-30T22:35:48+12:00*
G04 #@! TF.ProjectId,ALU_Tester,414c555f-5465-4737-9465-722e6b696361,rev?*
G04 #@! TF.SameCoordinates,Original*
G04 #@! TF.FileFunction,Soldermask,Bot*
G04 #@! TF.FilePolarity,Negative*
%FSLAX46Y46*%
G04 Gerber Fmt 4.6, Leading zero omitted, Abs format (unit mm)*
G04 Created by KiCad (PCBNEW (5.1.5)-3) date 2020-04-30 22:35:48*
%MOMM*%
%LPD*%
G04 APERTURE LIST*
%ADD10C,0.100000*%
G04 APERTURE END LIST*
D10*
G36*
X76313512Y-117213927D02*
G01*
X76462812Y-117243624D01*
X76626784Y-117311544D01*
X76774354Y-117410147D01*
X76899853Y-117535646D01*
X76998456Y-117683216D01*
X77066376Y-117847188D01*
X77101000Y-118021259D01*
X77101000Y-118198741D01*
X77066376Y-118372812D01*
X76998456Y-118536784D01*
X76899853Y-118684354D01*
X76774354Y-118809853D01*
X76626784Y-118908456D01*
X76462812Y-118976376D01*
X76313512Y-119006073D01*
X76288742Y-119011000D01*
X76111258Y-119011000D01*
X76086488Y-119006073D01*
X75937188Y-118976376D01*
X75773216Y-118908456D01*
X75625646Y-118809853D01*
X75500147Y-118684354D01*
X75401544Y-118536784D01*
X75333624Y-118372812D01*
X75299000Y-118198741D01*
X75299000Y-118021259D01*
X75333624Y-117847188D01*
X75401544Y-117683216D01*
X75500147Y-117535646D01*
X75625646Y-117410147D01*
X75773216Y-117311544D01*
X75937188Y-117243624D01*
X76086488Y-117213927D01*
X76111258Y-117209000D01*
X76288742Y-117209000D01*
X76313512Y-117213927D01*
G37*
G36*
X73773512Y-117213927D02*
G01*
X73922812Y-117243624D01*
X74086784Y-117311544D01*
X74234354Y-117410147D01*
X74359853Y-117535646D01*
X74458456Y-117683216D01*
X74526376Y-117847188D01*
X74561000Y-118021259D01*
X74561000Y-118198741D01*
X74526376Y-118372812D01*
X74458456Y-118536784D01*
X74359853Y-118684354D01*
X74234354Y-118809853D01*
X74086784Y-118908456D01*
X73922812Y-118976376D01*
X73773512Y-119006073D01*
X73748742Y-119011000D01*
X73571258Y-119011000D01*
X73546488Y-119006073D01*
X73397188Y-118976376D01*
X73233216Y-118908456D01*
X73085646Y-118809853D01*
X72960147Y-118684354D01*
X72861544Y-118536784D01*
X72793624Y-118372812D01*
X72759000Y-118198741D01*
X72759000Y-118021259D01*
X72793624Y-117847188D01*
X72861544Y-117683216D01*
X72960147Y-117535646D01*
X73085646Y-117410147D01*
X73233216Y-117311544D01*
X73397188Y-117243624D01*
X73546488Y-117213927D01*
X73571258Y-117209000D01*
X73748742Y-117209000D01*
X73773512Y-117213927D01*
G37*
G36*
X73773512Y-114673927D02*
G01*
X73922812Y-114703624D01*
X74086784Y-114771544D01*
X74234354Y-114870147D01*
X74359853Y-114995646D01*
X74458456Y-115143216D01*
X74526376Y-115307188D01*
X74561000Y-115481259D01*
X74561000Y-115658741D01*
X74526376Y-115832812D01*
X74458456Y-115996784D01*
X74359853Y-116144354D01*
X74234354Y-116269853D01*
X74086784Y-116368456D01*
X73922812Y-116436376D01*
X73773512Y-116466073D01*
X73748742Y-116471000D01*
X73571258Y-116471000D01*
X73546488Y-116466073D01*
X73397188Y-116436376D01*
X73233216Y-116368456D01*
X73085646Y-116269853D01*
X72960147Y-116144354D01*
X72861544Y-115996784D01*
X72793624Y-115832812D01*
X72759000Y-115658741D01*
X72759000Y-115481259D01*
X72793624Y-115307188D01*
X72861544Y-115143216D01*
X72960147Y-114995646D01*
X73085646Y-114870147D01*
X73233216Y-114771544D01*
X73397188Y-114703624D01*
X73546488Y-114673927D01*
X73571258Y-114669000D01*
X73748742Y-114669000D01*
X73773512Y-114673927D01*
G37*
G36*
X76313512Y-114673927D02*
G01*
X76462812Y-114703624D01*
X76626784Y-114771544D01*
X76774354Y-114870147D01*
X76899853Y-114995646D01*
X76998456Y-115143216D01*
X77066376Y-115307188D01*
X77101000Y-115481259D01*
X77101000Y-115658741D01*
X77066376Y-115832812D01*
X76998456Y-115996784D01*
X76899853Y-116144354D01*
X76774354Y-116269853D01*
X76626784Y-116368456D01*
X76462812Y-116436376D01*
X76313512Y-116466073D01*
X76288742Y-116471000D01*
X76111258Y-116471000D01*
X76086488Y-116466073D01*
X75937188Y-116436376D01*
X75773216Y-116368456D01*
X75625646Y-116269853D01*
X75500147Y-116144354D01*
X75401544Y-115996784D01*
X75333624Y-115832812D01*
X75299000Y-115658741D01*
X75299000Y-115481259D01*
X75333624Y-115307188D01*
X75401544Y-115143216D01*
X75500147Y-114995646D01*
X75625646Y-114870147D01*
X75773216Y-114771544D01*
X75937188Y-114703624D01*
X76086488Y-114673927D01*
X76111258Y-114669000D01*
X76288742Y-114669000D01*
X76313512Y-114673927D01*
G37*
G36*
X76313512Y-112133927D02*
G01*
X76462812Y-112163624D01*
X76626784Y-112231544D01*
X76774354Y-112330147D01*
X76899853Y-112455646D01*
X76998456Y-112603216D01*
X77066376Y-112767188D01*
X77101000Y-112941259D01*
X77101000Y-113118741D01*
X77066376Y-113292812D01*
X76998456Y-113456784D01*
X76899853Y-113604354D01*
X76774354Y-113729853D01*
X76626784Y-113828456D01*
X76462812Y-113896376D01*
X76313512Y-113926073D01*
X76288742Y-113931000D01*
X76111258Y-113931000D01*
X76086488Y-113926073D01*
X75937188Y-113896376D01*
X75773216Y-113828456D01*
X75625646Y-113729853D01*
X75500147Y-113604354D01*
X75401544Y-113456784D01*
X75333624Y-113292812D01*
X75299000Y-113118741D01*
X75299000Y-112941259D01*
X75333624Y-112767188D01*
X75401544Y-112603216D01*
X75500147Y-112455646D01*
X75625646Y-112330147D01*
X75773216Y-112231544D01*
X75937188Y-112163624D01*
X76086488Y-112133927D01*
X76111258Y-112129000D01*
X76288742Y-112129000D01*
X76313512Y-112133927D01*
G37*
G36*
X73773512Y-112133927D02*
G01*
X73922812Y-112163624D01*
X74086784Y-112231544D01*
X74234354Y-112330147D01*
X74359853Y-112455646D01*
X74458456Y-112603216D01*
X74526376Y-112767188D01*
X74561000Y-112941259D01*
X74561000Y-113118741D01*
X74526376Y-113292812D01*
X74458456Y-113456784D01*
X74359853Y-113604354D01*
X74234354Y-113729853D01*
X74086784Y-113828456D01*
X73922812Y-113896376D01*
X73773512Y-113926073D01*
X73748742Y-113931000D01*
X73571258Y-113931000D01*
X73546488Y-113926073D01*
X73397188Y-113896376D01*
X73233216Y-113828456D01*
X73085646Y-113729853D01*
X72960147Y-113604354D01*
X72861544Y-113456784D01*
X72793624Y-113292812D01*
X72759000Y-113118741D01*
X72759000Y-112941259D01*
X72793624Y-112767188D01*
X72861544Y-112603216D01*
X72960147Y-112455646D01*
X73085646Y-112330147D01*
X73233216Y-112231544D01*
X73397188Y-112163624D01*
X73546488Y-112133927D01*
X73571258Y-112129000D01*
X73748742Y-112129000D01*
X73773512Y-112133927D01*
G37*
G36*
X93103000Y-111391000D02*
G01*
X91301000Y-111391000D01*
X91301000Y-109589000D01*
X93103000Y-109589000D01*
X93103000Y-111391000D01*
G37*
G36*
X76313512Y-109593927D02*
G01*
X76462812Y-109623624D01*
X76626784Y-109691544D01*
X76774354Y-109790147D01*
X76899853Y-109915646D01*
X76998456Y-110063216D01*
X77066376Y-110227188D01*
X77101000Y-110401259D01*
X77101000Y-110578741D01*
X77066376Y-110752812D01*
X76998456Y-110916784D01*
X76899853Y-111064354D01*
X76774354Y-111189853D01*
X76626784Y-111288456D01*
X76462812Y-111356376D01*
X76313512Y-111386073D01*
X76288742Y-111391000D01*
X76111258Y-111391000D01*
X76086488Y-111386073D01*
X75937188Y-111356376D01*
X75773216Y-111288456D01*
X75625646Y-111189853D01*
X75500147Y-111064354D01*
X75401544Y-110916784D01*
X75333624Y-110752812D01*
X75299000Y-110578741D01*
X75299000Y-110401259D01*
X75333624Y-110227188D01*
X75401544Y-110063216D01*
X75500147Y-109915646D01*
X75625646Y-109790147D01*
X75773216Y-109691544D01*
X75937188Y-109623624D01*
X76086488Y-109593927D01*
X76111258Y-109589000D01*
X76288742Y-109589000D01*
X76313512Y-109593927D01*
G37*
G36*
X73773512Y-109593927D02*
G01*
X73922812Y-109623624D01*
X74086784Y-109691544D01*
X74234354Y-109790147D01*
X74359853Y-109915646D01*
X74458456Y-110063216D01*
X74526376Y-110227188D01*
X74561000Y-110401259D01*
X74561000Y-110578741D01*
X74526376Y-110752812D01*
X74458456Y-110916784D01*
X74359853Y-111064354D01*
X74234354Y-111189853D01*
X74086784Y-111288456D01*
X73922812Y-111356376D01*
X73773512Y-111386073D01*
X73748742Y-111391000D01*
X73571258Y-111391000D01*
X73546488Y-111386073D01*
X73397188Y-111356376D01*
X73233216Y-111288456D01*
X73085646Y-111189853D01*
X72960147Y-111064354D01*
X72861544Y-110916784D01*
X72793624Y-110752812D01*
X72759000Y-110578741D01*
X72759000Y-110401259D01*
X72793624Y-110227188D01*
X72861544Y-110063216D01*
X72960147Y-109915646D01*
X73085646Y-109790147D01*
X73233216Y-109691544D01*
X73397188Y-109623624D01*
X73546488Y-109593927D01*
X73571258Y-109589000D01*
X73748742Y-109589000D01*
X73773512Y-109593927D01*
G37*
G36*
X130614823Y-109651313D02*
G01*
X130775242Y-109699976D01*
X130842361Y-109735852D01*
X130923078Y-109778996D01*
X131052659Y-109885341D01*
X131159004Y-110014922D01*
X131159005Y-110014924D01*
X131238024Y-110162758D01*
X131286687Y-110323177D01*
X131303117Y-110490000D01*
X131286687Y-110656823D01*
X131238024Y-110817242D01*
X131167114Y-110949906D01*
X131159004Y-110965078D01*
X131052659Y-111094659D01*
X130923078Y-111201004D01*
X130923076Y-111201005D01*
X130775242Y-111280024D01*
X130614823Y-111328687D01*
X130489804Y-111341000D01*
X129606196Y-111341000D01*
X129481177Y-111328687D01*
X129320758Y-111280024D01*
X129172924Y-111201005D01*
X129172922Y-111201004D01*
X129043341Y-111094659D01*
X128936996Y-110965078D01*
X128928886Y-110949906D01*
X128857976Y-110817242D01*
X128809313Y-110656823D01*
X128792883Y-110490000D01*
X128809313Y-110323177D01*
X128857976Y-110162758D01*
X128936995Y-110014924D01*
X128936996Y-110014922D01*
X129043341Y-109885341D01*
X129172922Y-109778996D01*
X129253639Y-109735852D01*
X129320758Y-109699976D01*
X129481177Y-109651313D01*
X129606196Y-109639000D01*
X130489804Y-109639000D01*
X130614823Y-109651313D01*
G37*
G36*
X118422823Y-109651313D02*
G01*
X118583242Y-109699976D01*
X118650361Y-109735852D01*
X118731078Y-109778996D01*
X118860659Y-109885341D01*
X118967004Y-110014922D01*
X118967005Y-110014924D01*
X119046024Y-110162758D01*
X119094687Y-110323177D01*
X119111117Y-110490000D01*
X119094687Y-110656823D01*
X119046024Y-110817242D01*
X118975114Y-110949906D01*
X118967004Y-110965078D01*
X118860659Y-111094659D01*
X118731078Y-111201004D01*
X118731076Y-111201005D01*
X118583242Y-111280024D01*
X118422823Y-111328687D01*
X118297804Y-111341000D01*
X117414196Y-111341000D01*
X117289177Y-111328687D01*
X117128758Y-111280024D01*
X116980924Y-111201005D01*
X116980922Y-111201004D01*
X116851341Y-111094659D01*
X116744996Y-110965078D01*
X116736886Y-110949906D01*
X116665976Y-110817242D01*
X116617313Y-110656823D01*
X116600883Y-110490000D01*
X116617313Y-110323177D01*
X116665976Y-110162758D01*
X116744995Y-110014924D01*
X116744996Y-110014922D01*
X116851341Y-109885341D01*
X116980922Y-109778996D01*
X117061639Y-109735852D01*
X117128758Y-109699976D01*
X117289177Y-109651313D01*
X117414196Y-109639000D01*
X118297804Y-109639000D01*
X118422823Y-109651313D01*
G37*
G36*
X103182823Y-109651313D02*
G01*
X103343242Y-109699976D01*
X103410361Y-109735852D01*
X103491078Y-109778996D01*
X103620659Y-109885341D01*
X103727004Y-110014922D01*
X103727005Y-110014924D01*
X103806024Y-110162758D01*
X103854687Y-110323177D01*
X103871117Y-110490000D01*
X103854687Y-110656823D01*
X103806024Y-110817242D01*
X103735114Y-110949906D01*
X103727004Y-110965078D01*
X103620659Y-111094659D01*
X103491078Y-111201004D01*
X103491076Y-111201005D01*
X103343242Y-111280024D01*
X103182823Y-111328687D01*
X103057804Y-111341000D01*
X102174196Y-111341000D01*
X102049177Y-111328687D01*
X101888758Y-111280024D01*
X101740924Y-111201005D01*
X101740922Y-111201004D01*
X101611341Y-111094659D01*
X101504996Y-110965078D01*
X101496886Y-110949906D01*
X101425976Y-110817242D01*
X101377313Y-110656823D01*
X101360883Y-110490000D01*
X101377313Y-110323177D01*
X101425976Y-110162758D01*
X101504995Y-110014924D01*
X101504996Y-110014922D01*
X101611341Y-109885341D01*
X101740922Y-109778996D01*
X101821639Y-109735852D01*
X101888758Y-109699976D01*
X102049177Y-109651313D01*
X102174196Y-109639000D01*
X103057804Y-109639000D01*
X103182823Y-109651313D01*
G37*
G36*
X145854823Y-109651313D02*
G01*
X146015242Y-109699976D01*
X146082361Y-109735852D01*
X146163078Y-109778996D01*
X146292659Y-109885341D01*
X146399004Y-110014922D01*
X146399005Y-110014924D01*
X146478024Y-110162758D01*
X146526687Y-110323177D01*
X146543117Y-110490000D01*
X146526687Y-110656823D01*
X146478024Y-110817242D01*
X146407114Y-110949906D01*
X146399004Y-110965078D01*
X146292659Y-111094659D01*
X146163078Y-111201004D01*
X146163076Y-111201005D01*
X146015242Y-111280024D01*
X145854823Y-111328687D01*
X145729804Y-111341000D01*
X144846196Y-111341000D01*
X144721177Y-111328687D01*
X144560758Y-111280024D01*
X144412924Y-111201005D01*
X144412922Y-111201004D01*
X144283341Y-111094659D01*
X144176996Y-110965078D01*
X144168886Y-110949906D01*
X144097976Y-110817242D01*
X144049313Y-110656823D01*
X144032883Y-110490000D01*
X144049313Y-110323177D01*
X144097976Y-110162758D01*
X144176995Y-110014924D01*
X144176996Y-110014922D01*
X144283341Y-109885341D01*
X144412922Y-109778996D01*
X144493639Y-109735852D01*
X144560758Y-109699976D01*
X144721177Y-109651313D01*
X144846196Y-109639000D01*
X145729804Y-109639000D01*
X145854823Y-109651313D01*
G37*
G36*
X162554228Y-109671703D02*
G01*
X162709100Y-109735853D01*
X162848481Y-109828985D01*
X162967015Y-109947519D01*
X163060147Y-110086900D01*
X163124297Y-110241772D01*
X163157000Y-110406184D01*
X163157000Y-110573816D01*
X163124297Y-110738228D01*
X163060147Y-110893100D01*
X162967015Y-111032481D01*
X162848481Y-111151015D01*
X162709100Y-111244147D01*
X162554228Y-111308297D01*
X162389816Y-111341000D01*
X162222184Y-111341000D01*
X162057772Y-111308297D01*
X161902900Y-111244147D01*
X161763519Y-111151015D01*
X161644985Y-111032481D01*
X161551853Y-110893100D01*
X161487703Y-110738228D01*
X161455000Y-110573816D01*
X161455000Y-110406184D01*
X161487703Y-110241772D01*
X161551853Y-110086900D01*
X161644985Y-109947519D01*
X161763519Y-109828985D01*
X161902900Y-109735853D01*
X162057772Y-109671703D01*
X162222184Y-109639000D01*
X162389816Y-109639000D01*
X162554228Y-109671703D01*
G37*
G36*
X155537000Y-111341000D02*
G01*
X153835000Y-111341000D01*
X153835000Y-109639000D01*
X155537000Y-109639000D01*
X155537000Y-111341000D01*
G37*
G36*
X76313512Y-107053927D02*
G01*
X76462812Y-107083624D01*
X76626784Y-107151544D01*
X76774354Y-107250147D01*
X76899853Y-107375646D01*
X76998456Y-107523216D01*
X77066376Y-107687188D01*
X77101000Y-107861259D01*
X77101000Y-108038741D01*
X77066376Y-108212812D01*
X76998456Y-108376784D01*
X76899853Y-108524354D01*
X76774354Y-108649853D01*
X76626784Y-108748456D01*
X76462812Y-108816376D01*
X76313512Y-108846073D01*
X76288742Y-108851000D01*
X76111258Y-108851000D01*
X76086488Y-108846073D01*
X75937188Y-108816376D01*
X75773216Y-108748456D01*
X75625646Y-108649853D01*
X75500147Y-108524354D01*
X75401544Y-108376784D01*
X75333624Y-108212812D01*
X75299000Y-108038741D01*
X75299000Y-107861259D01*
X75333624Y-107687188D01*
X75401544Y-107523216D01*
X75500147Y-107375646D01*
X75625646Y-107250147D01*
X75773216Y-107151544D01*
X75937188Y-107083624D01*
X76086488Y-107053927D01*
X76111258Y-107049000D01*
X76288742Y-107049000D01*
X76313512Y-107053927D01*
G37*
G36*
X73773512Y-107053927D02*
G01*
X73922812Y-107083624D01*
X74086784Y-107151544D01*
X74234354Y-107250147D01*
X74359853Y-107375646D01*
X74458456Y-107523216D01*
X74526376Y-107687188D01*
X74561000Y-107861259D01*
X74561000Y-108038741D01*
X74526376Y-108212812D01*
X74458456Y-108376784D01*
X74359853Y-108524354D01*
X74234354Y-108649853D01*
X74086784Y-108748456D01*
X73922812Y-108816376D01*
X73773512Y-108846073D01*
X73748742Y-108851000D01*
X73571258Y-108851000D01*
X73546488Y-108846073D01*
X73397188Y-108816376D01*
X73233216Y-108748456D01*
X73085646Y-108649853D01*
X72960147Y-108524354D01*
X72861544Y-108376784D01*
X72793624Y-108212812D01*
X72759000Y-108038741D01*
X72759000Y-107861259D01*
X72793624Y-107687188D01*
X72861544Y-107523216D01*
X72960147Y-107375646D01*
X73085646Y-107250147D01*
X73233216Y-107151544D01*
X73397188Y-107083624D01*
X73546488Y-107053927D01*
X73571258Y-107049000D01*
X73748742Y-107049000D01*
X73773512Y-107053927D01*
G37*
G36*
X92315512Y-107053927D02*
G01*
X92464812Y-107083624D01*
X92628784Y-107151544D01*
X92776354Y-107250147D01*
X92901853Y-107375646D01*
X93000456Y-107523216D01*
X93068376Y-107687188D01*
X93103000Y-107861259D01*
X93103000Y-108038741D01*
X93068376Y-108212812D01*
X93000456Y-108376784D01*
X92901853Y-108524354D01*
X92776354Y-108649853D01*
X92628784Y-108748456D01*
X92464812Y-108816376D01*
X92315512Y-108846073D01*
X92290742Y-108851000D01*
X92113258Y-108851000D01*
X92088488Y-108846073D01*
X91939188Y-108816376D01*
X91775216Y-108748456D01*
X91627646Y-108649853D01*
X91502147Y-108524354D01*
X91403544Y-108376784D01*
X91335624Y-108212812D01*
X91301000Y-108038741D01*
X91301000Y-107861259D01*
X91335624Y-107687188D01*
X91403544Y-107523216D01*
X91502147Y-107375646D01*
X91627646Y-107250147D01*
X91775216Y-107151544D01*
X91939188Y-107083624D01*
X92088488Y-107053927D01*
X92113258Y-107049000D01*
X92290742Y-107049000D01*
X92315512Y-107053927D01*
G37*
G36*
X103182823Y-107111313D02*
G01*
X103343242Y-107159976D01*
X103475906Y-107230886D01*
X103491078Y-107238996D01*
X103620659Y-107345341D01*
X103727004Y-107474922D01*
X103727005Y-107474924D01*
X103806024Y-107622758D01*
X103854687Y-107783177D01*
X103871117Y-107950000D01*
X103854687Y-108116823D01*
X103806024Y-108277242D01*
X103735114Y-108409906D01*
X103727004Y-108425078D01*
X103620659Y-108554659D01*
X103491078Y-108661004D01*
X103491076Y-108661005D01*
X103343242Y-108740024D01*
X103182823Y-108788687D01*
X103057804Y-108801000D01*
X102174196Y-108801000D01*
X102049177Y-108788687D01*
X101888758Y-108740024D01*
X101740924Y-108661005D01*
X101740922Y-108661004D01*
X101611341Y-108554659D01*
X101504996Y-108425078D01*
X101496886Y-108409906D01*
X101425976Y-108277242D01*
X101377313Y-108116823D01*
X101360883Y-107950000D01*
X101377313Y-107783177D01*
X101425976Y-107622758D01*
X101504995Y-107474924D01*
X101504996Y-107474922D01*
X101611341Y-107345341D01*
X101740922Y-107238996D01*
X101756094Y-107230886D01*
X101888758Y-107159976D01*
X102049177Y-107111313D01*
X102174196Y-107099000D01*
X103057804Y-107099000D01*
X103182823Y-107111313D01*
G37*
G36*
X118422823Y-107111313D02*
G01*
X118583242Y-107159976D01*
X118715906Y-107230886D01*
X118731078Y-107238996D01*
X118860659Y-107345341D01*
X118967004Y-107474922D01*
X118967005Y-107474924D01*
X119046024Y-107622758D01*
X119094687Y-107783177D01*
X119111117Y-107950000D01*
X119094687Y-108116823D01*
X119046024Y-108277242D01*
X118975114Y-108409906D01*
X118967004Y-108425078D01*
X118860659Y-108554659D01*
X118731078Y-108661004D01*
X118731076Y-108661005D01*
X118583242Y-108740024D01*
X118422823Y-108788687D01*
X118297804Y-108801000D01*
X117414196Y-108801000D01*
X117289177Y-108788687D01*
X117128758Y-108740024D01*
X116980924Y-108661005D01*
X116980922Y-108661004D01*
X116851341Y-108554659D01*
X116744996Y-108425078D01*
X116736886Y-108409906D01*
X116665976Y-108277242D01*
X116617313Y-108116823D01*
X116600883Y-107950000D01*
X116617313Y-107783177D01*
X116665976Y-107622758D01*
X116744995Y-107474924D01*
X116744996Y-107474922D01*
X116851341Y-107345341D01*
X116980922Y-107238996D01*
X116996094Y-107230886D01*
X117128758Y-107159976D01*
X117289177Y-107111313D01*
X117414196Y-107099000D01*
X118297804Y-107099000D01*
X118422823Y-107111313D01*
G37*
G36*
X130614823Y-107111313D02*
G01*
X130775242Y-107159976D01*
X130907906Y-107230886D01*
X130923078Y-107238996D01*
X131052659Y-107345341D01*
X131159004Y-107474922D01*
X131159005Y-107474924D01*
X131238024Y-107622758D01*
X131286687Y-107783177D01*
X131303117Y-107950000D01*
X131286687Y-108116823D01*
X131238024Y-108277242D01*
X131167114Y-108409906D01*
X131159004Y-108425078D01*
X131052659Y-108554659D01*
X130923078Y-108661004D01*
X130923076Y-108661005D01*
X130775242Y-108740024D01*
X130614823Y-108788687D01*
X130489804Y-108801000D01*
X129606196Y-108801000D01*
X129481177Y-108788687D01*
X129320758Y-108740024D01*
X129172924Y-108661005D01*
X129172922Y-108661004D01*
X129043341Y-108554659D01*
X128936996Y-108425078D01*
X128928886Y-108409906D01*
X128857976Y-108277242D01*
X128809313Y-108116823D01*
X128792883Y-107950000D01*
X128809313Y-107783177D01*
X128857976Y-107622758D01*
X128936995Y-107474924D01*
X128936996Y-107474922D01*
X129043341Y-107345341D01*
X129172922Y-107238996D01*
X129188094Y-107230886D01*
X129320758Y-107159976D01*
X129481177Y-107111313D01*
X129606196Y-107099000D01*
X130489804Y-107099000D01*
X130614823Y-107111313D01*
G37*
G36*
X145854823Y-107111313D02*
G01*
X146015242Y-107159976D01*
X146147906Y-107230886D01*
X146163078Y-107238996D01*
X146292659Y-107345341D01*
X146399004Y-107474922D01*
X146399005Y-107474924D01*
X146478024Y-107622758D01*
X146526687Y-107783177D01*
X146543117Y-107950000D01*
X146526687Y-108116823D01*
X146478024Y-108277242D01*
X146407114Y-108409906D01*
X146399004Y-108425078D01*
X146292659Y-108554659D01*
X146163078Y-108661004D01*
X146163076Y-108661005D01*
X146015242Y-108740024D01*
X145854823Y-108788687D01*
X145729804Y-108801000D01*
X144846196Y-108801000D01*
X144721177Y-108788687D01*
X144560758Y-108740024D01*
X144412924Y-108661005D01*
X144412922Y-108661004D01*
X144283341Y-108554659D01*
X144176996Y-108425078D01*
X144168886Y-108409906D01*
X144097976Y-108277242D01*
X144049313Y-108116823D01*
X144032883Y-107950000D01*
X144049313Y-107783177D01*
X144097976Y-107622758D01*
X144176995Y-107474924D01*
X144176996Y-107474922D01*
X144283341Y-107345341D01*
X144412922Y-107238996D01*
X144428094Y-107230886D01*
X144560758Y-107159976D01*
X144721177Y-107111313D01*
X144846196Y-107099000D01*
X145729804Y-107099000D01*
X145854823Y-107111313D01*
G37*
G36*
X155537000Y-107531000D02*
G01*
X153835000Y-107531000D01*
X153835000Y-105829000D01*
X155537000Y-105829000D01*
X155537000Y-107531000D01*
G37*
G36*
X162554228Y-105861703D02*
G01*
X162709100Y-105925853D01*
X162848481Y-106018985D01*
X162967015Y-106137519D01*
X163060147Y-106276900D01*
X163124297Y-106431772D01*
X163157000Y-106596184D01*
X163157000Y-106763816D01*
X163124297Y-106928228D01*
X163060147Y-107083100D01*
X162967015Y-107222481D01*
X162848481Y-107341015D01*
X162709100Y-107434147D01*
X162554228Y-107498297D01*
X162389816Y-107531000D01*
X162222184Y-107531000D01*
X162057772Y-107498297D01*
X161902900Y-107434147D01*
X161763519Y-107341015D01*
X161644985Y-107222481D01*
X161551853Y-107083100D01*
X161487703Y-106928228D01*
X161455000Y-106763816D01*
X161455000Y-106596184D01*
X161487703Y-106431772D01*
X161551853Y-106276900D01*
X161644985Y-106137519D01*
X161763519Y-106018985D01*
X161902900Y-105925853D01*
X162057772Y-105861703D01*
X162222184Y-105829000D01*
X162389816Y-105829000D01*
X162554228Y-105861703D01*
G37*
G36*
X73773512Y-104513927D02*
G01*
X73922812Y-104543624D01*
X74086784Y-104611544D01*
X74234354Y-104710147D01*
X74359853Y-104835646D01*
X74458456Y-104983216D01*
X74526376Y-105147188D01*
X74561000Y-105321259D01*
X74561000Y-105498741D01*
X74526376Y-105672812D01*
X74458456Y-105836784D01*
X74359853Y-105984354D01*
X74234354Y-106109853D01*
X74086784Y-106208456D01*
X73922812Y-106276376D01*
X73773512Y-106306073D01*
X73748742Y-106311000D01*
X73571258Y-106311000D01*
X73546488Y-106306073D01*
X73397188Y-106276376D01*
X73233216Y-106208456D01*
X73085646Y-106109853D01*
X72960147Y-105984354D01*
X72861544Y-105836784D01*
X72793624Y-105672812D01*
X72759000Y-105498741D01*
X72759000Y-105321259D01*
X72793624Y-105147188D01*
X72861544Y-104983216D01*
X72960147Y-104835646D01*
X73085646Y-104710147D01*
X73233216Y-104611544D01*
X73397188Y-104543624D01*
X73546488Y-104513927D01*
X73571258Y-104509000D01*
X73748742Y-104509000D01*
X73773512Y-104513927D01*
G37*
G36*
X76313512Y-104513927D02*
G01*
X76462812Y-104543624D01*
X76626784Y-104611544D01*
X76774354Y-104710147D01*
X76899853Y-104835646D01*
X76998456Y-104983216D01*
X77066376Y-105147188D01*
X77101000Y-105321259D01*
X77101000Y-105498741D01*
X77066376Y-105672812D01*
X76998456Y-105836784D01*
X76899853Y-105984354D01*
X76774354Y-106109853D01*
X76626784Y-106208456D01*
X76462812Y-106276376D01*
X76313512Y-106306073D01*
X76288742Y-106311000D01*
X76111258Y-106311000D01*
X76086488Y-106306073D01*
X75937188Y-106276376D01*
X75773216Y-106208456D01*
X75625646Y-106109853D01*
X75500147Y-105984354D01*
X75401544Y-105836784D01*
X75333624Y-105672812D01*
X75299000Y-105498741D01*
X75299000Y-105321259D01*
X75333624Y-105147188D01*
X75401544Y-104983216D01*
X75500147Y-104835646D01*
X75625646Y-104710147D01*
X75773216Y-104611544D01*
X75937188Y-104543624D01*
X76086488Y-104513927D01*
X76111258Y-104509000D01*
X76288742Y-104509000D01*
X76313512Y-104513927D01*
G37*
G36*
X118422823Y-104571313D02*
G01*
X118583242Y-104619976D01*
X118715906Y-104690886D01*
X118731078Y-104698996D01*
X118860659Y-104805341D01*
X118967004Y-104934922D01*
X118967005Y-104934924D01*
X119046024Y-105082758D01*
X119094687Y-105243177D01*
X119111117Y-105410000D01*
X119094687Y-105576823D01*
X119046024Y-105737242D01*
X118979498Y-105861703D01*
X118967004Y-105885078D01*
X118860659Y-106014659D01*
X118731078Y-106121004D01*
X118731076Y-106121005D01*
X118583242Y-106200024D01*
X118422823Y-106248687D01*
X118297804Y-106261000D01*
X117414196Y-106261000D01*
X117289177Y-106248687D01*
X117128758Y-106200024D01*
X116980924Y-106121005D01*
X116980922Y-106121004D01*
X116851341Y-106014659D01*
X116744996Y-105885078D01*
X116732502Y-105861703D01*
X116665976Y-105737242D01*
X116617313Y-105576823D01*
X116600883Y-105410000D01*
X116617313Y-105243177D01*
X116665976Y-105082758D01*
X116744995Y-104934924D01*
X116744996Y-104934922D01*
X116851341Y-104805341D01*
X116980922Y-104698996D01*
X116996094Y-104690886D01*
X117128758Y-104619976D01*
X117289177Y-104571313D01*
X117414196Y-104559000D01*
X118297804Y-104559000D01*
X118422823Y-104571313D01*
G37*
G36*
X103182823Y-104571313D02*
G01*
X103343242Y-104619976D01*
X103475906Y-104690886D01*
X103491078Y-104698996D01*
X103620659Y-104805341D01*
X103727004Y-104934922D01*
X103727005Y-104934924D01*
X103806024Y-105082758D01*
X103854687Y-105243177D01*
X103871117Y-105410000D01*
X103854687Y-105576823D01*
X103806024Y-105737242D01*
X103739498Y-105861703D01*
X103727004Y-105885078D01*
X103620659Y-106014659D01*
X103491078Y-106121004D01*
X103491076Y-106121005D01*
X103343242Y-106200024D01*
X103182823Y-106248687D01*
X103057804Y-106261000D01*
X102174196Y-106261000D01*
X102049177Y-106248687D01*
X101888758Y-106200024D01*
X101740924Y-106121005D01*
X101740922Y-106121004D01*
X101611341Y-106014659D01*
X101504996Y-105885078D01*
X101492502Y-105861703D01*
X101425976Y-105737242D01*
X101377313Y-105576823D01*
X101360883Y-105410000D01*
X101377313Y-105243177D01*
X101425976Y-105082758D01*
X101504995Y-104934924D01*
X101504996Y-104934922D01*
X101611341Y-104805341D01*
X101740922Y-104698996D01*
X101756094Y-104690886D01*
X101888758Y-104619976D01*
X102049177Y-104571313D01*
X102174196Y-104559000D01*
X103057804Y-104559000D01*
X103182823Y-104571313D01*
G37*
G36*
X130614823Y-104571313D02*
G01*
X130775242Y-104619976D01*
X130907906Y-104690886D01*
X130923078Y-104698996D01*
X131052659Y-104805341D01*
X131159004Y-104934922D01*
X131159005Y-104934924D01*
X131238024Y-105082758D01*
X131286687Y-105243177D01*
X131303117Y-105410000D01*
X131286687Y-105576823D01*
X131238024Y-105737242D01*
X131171498Y-105861703D01*
X131159004Y-105885078D01*
X131052659Y-106014659D01*
X130923078Y-106121004D01*
X130923076Y-106121005D01*
X130775242Y-106200024D01*
X130614823Y-106248687D01*
X130489804Y-106261000D01*
X129606196Y-106261000D01*
X129481177Y-106248687D01*
X129320758Y-106200024D01*
X129172924Y-106121005D01*
X129172922Y-106121004D01*
X129043341Y-106014659D01*
X128936996Y-105885078D01*
X128924502Y-105861703D01*
X128857976Y-105737242D01*
X128809313Y-105576823D01*
X128792883Y-105410000D01*
X128809313Y-105243177D01*
X128857976Y-105082758D01*
X128936995Y-104934924D01*
X128936996Y-104934922D01*
X129043341Y-104805341D01*
X129172922Y-104698996D01*
X129188094Y-104690886D01*
X129320758Y-104619976D01*
X129481177Y-104571313D01*
X129606196Y-104559000D01*
X130489804Y-104559000D01*
X130614823Y-104571313D01*
G37*
G36*
X145854823Y-104571313D02*
G01*
X146015242Y-104619976D01*
X146147906Y-104690886D01*
X146163078Y-104698996D01*
X146292659Y-104805341D01*
X146399004Y-104934922D01*
X146399005Y-104934924D01*
X146478024Y-105082758D01*
X146526687Y-105243177D01*
X146543117Y-105410000D01*
X146526687Y-105576823D01*
X146478024Y-105737242D01*
X146411498Y-105861703D01*
X146399004Y-105885078D01*
X146292659Y-106014659D01*
X146163078Y-106121004D01*
X146163076Y-106121005D01*
X146015242Y-106200024D01*
X145854823Y-106248687D01*
X145729804Y-106261000D01*
X144846196Y-106261000D01*
X144721177Y-106248687D01*
X144560758Y-106200024D01*
X144412924Y-106121005D01*
X144412922Y-106121004D01*
X144283341Y-106014659D01*
X144176996Y-105885078D01*
X144164502Y-105861703D01*
X144097976Y-105737242D01*
X144049313Y-105576823D01*
X144032883Y-105410000D01*
X144049313Y-105243177D01*
X144097976Y-105082758D01*
X144176995Y-104934924D01*
X144176996Y-104934922D01*
X144283341Y-104805341D01*
X144412922Y-104698996D01*
X144428094Y-104690886D01*
X144560758Y-104619976D01*
X144721177Y-104571313D01*
X144846196Y-104559000D01*
X145729804Y-104559000D01*
X145854823Y-104571313D01*
G37*
G36*
X76313512Y-101973927D02*
G01*
X76462812Y-102003624D01*
X76626784Y-102071544D01*
X76774354Y-102170147D01*
X76899853Y-102295646D01*
X76998456Y-102443216D01*
X77066376Y-102607188D01*
X77101000Y-102781259D01*
X77101000Y-102958741D01*
X77066376Y-103132812D01*
X76998456Y-103296784D01*
X76899853Y-103444354D01*
X76774354Y-103569853D01*
X76626784Y-103668456D01*
X76462812Y-103736376D01*
X76313512Y-103766073D01*
X76288742Y-103771000D01*
X76111258Y-103771000D01*
X76086488Y-103766073D01*
X75937188Y-103736376D01*
X75773216Y-103668456D01*
X75625646Y-103569853D01*
X75500147Y-103444354D01*
X75401544Y-103296784D01*
X75333624Y-103132812D01*
X75299000Y-102958741D01*
X75299000Y-102781259D01*
X75333624Y-102607188D01*
X75401544Y-102443216D01*
X75500147Y-102295646D01*
X75625646Y-102170147D01*
X75773216Y-102071544D01*
X75937188Y-102003624D01*
X76086488Y-101973927D01*
X76111258Y-101969000D01*
X76288742Y-101969000D01*
X76313512Y-101973927D01*
G37*
G36*
X73773512Y-101973927D02*
G01*
X73922812Y-102003624D01*
X74086784Y-102071544D01*
X74234354Y-102170147D01*
X74359853Y-102295646D01*
X74458456Y-102443216D01*
X74526376Y-102607188D01*
X74561000Y-102781259D01*
X74561000Y-102958741D01*
X74526376Y-103132812D01*
X74458456Y-103296784D01*
X74359853Y-103444354D01*
X74234354Y-103569853D01*
X74086784Y-103668456D01*
X73922812Y-103736376D01*
X73773512Y-103766073D01*
X73748742Y-103771000D01*
X73571258Y-103771000D01*
X73546488Y-103766073D01*
X73397188Y-103736376D01*
X73233216Y-103668456D01*
X73085646Y-103569853D01*
X72960147Y-103444354D01*
X72861544Y-103296784D01*
X72793624Y-103132812D01*
X72759000Y-102958741D01*
X72759000Y-102781259D01*
X72793624Y-102607188D01*
X72861544Y-102443216D01*
X72960147Y-102295646D01*
X73085646Y-102170147D01*
X73233216Y-102071544D01*
X73397188Y-102003624D01*
X73546488Y-101973927D01*
X73571258Y-101969000D01*
X73748742Y-101969000D01*
X73773512Y-101973927D01*
G37*
G36*
X130614823Y-102031313D02*
G01*
X130775242Y-102079976D01*
X130907906Y-102150886D01*
X130923078Y-102158996D01*
X131052659Y-102265341D01*
X131159004Y-102394922D01*
X131159005Y-102394924D01*
X131238024Y-102542758D01*
X131286687Y-102703177D01*
X131303117Y-102870000D01*
X131286687Y-103036823D01*
X131238024Y-103197242D01*
X131167114Y-103329906D01*
X131159004Y-103345078D01*
X131052659Y-103474659D01*
X130923078Y-103581004D01*
X130923076Y-103581005D01*
X130775242Y-103660024D01*
X130614823Y-103708687D01*
X130489804Y-103721000D01*
X129606196Y-103721000D01*
X129481177Y-103708687D01*
X129320758Y-103660024D01*
X129172924Y-103581005D01*
X129172922Y-103581004D01*
X129043341Y-103474659D01*
X128936996Y-103345078D01*
X128928886Y-103329906D01*
X128857976Y-103197242D01*
X128809313Y-103036823D01*
X128792883Y-102870000D01*
X128809313Y-102703177D01*
X128857976Y-102542758D01*
X128936995Y-102394924D01*
X128936996Y-102394922D01*
X129043341Y-102265341D01*
X129172922Y-102158996D01*
X129188094Y-102150886D01*
X129320758Y-102079976D01*
X129481177Y-102031313D01*
X129606196Y-102019000D01*
X130489804Y-102019000D01*
X130614823Y-102031313D01*
G37*
G36*
X145854823Y-102031313D02*
G01*
X146015242Y-102079976D01*
X146147906Y-102150886D01*
X146163078Y-102158996D01*
X146292659Y-102265341D01*
X146399004Y-102394922D01*
X146399005Y-102394924D01*
X146478024Y-102542758D01*
X146526687Y-102703177D01*
X146543117Y-102870000D01*
X146526687Y-103036823D01*
X146478024Y-103197242D01*
X146407114Y-103329906D01*
X146399004Y-103345078D01*
X146292659Y-103474659D01*
X146163078Y-103581004D01*
X146163076Y-103581005D01*
X146015242Y-103660024D01*
X145854823Y-103708687D01*
X145729804Y-103721000D01*
X144846196Y-103721000D01*
X144721177Y-103708687D01*
X144560758Y-103660024D01*
X144412924Y-103581005D01*
X144412922Y-103581004D01*
X144283341Y-103474659D01*
X144176996Y-103345078D01*
X144168886Y-103329906D01*
X144097976Y-103197242D01*
X144049313Y-103036823D01*
X144032883Y-102870000D01*
X144049313Y-102703177D01*
X144097976Y-102542758D01*
X144176995Y-102394924D01*
X144176996Y-102394922D01*
X144283341Y-102265341D01*
X144412922Y-102158996D01*
X144428094Y-102150886D01*
X144560758Y-102079976D01*
X144721177Y-102031313D01*
X144846196Y-102019000D01*
X145729804Y-102019000D01*
X145854823Y-102031313D01*
G37*
G36*
X118422823Y-102031313D02*
G01*
X118583242Y-102079976D01*
X118715906Y-102150886D01*
X118731078Y-102158996D01*
X118860659Y-102265341D01*
X118967004Y-102394922D01*
X118967005Y-102394924D01*
X119046024Y-102542758D01*
X119094687Y-102703177D01*
X119111117Y-102870000D01*
X119094687Y-103036823D01*
X119046024Y-103197242D01*
X118975114Y-103329906D01*
X118967004Y-103345078D01*
X118860659Y-103474659D01*
X118731078Y-103581004D01*
X118731076Y-103581005D01*
X118583242Y-103660024D01*
X118422823Y-103708687D01*
X118297804Y-103721000D01*
X117414196Y-103721000D01*
X117289177Y-103708687D01*
X117128758Y-103660024D01*
X116980924Y-103581005D01*
X116980922Y-103581004D01*
X116851341Y-103474659D01*
X116744996Y-103345078D01*
X116736886Y-103329906D01*
X116665976Y-103197242D01*
X116617313Y-103036823D01*
X116600883Y-102870000D01*
X116617313Y-102703177D01*
X116665976Y-102542758D01*
X116744995Y-102394924D01*
X116744996Y-102394922D01*
X116851341Y-102265341D01*
X116980922Y-102158996D01*
X116996094Y-102150886D01*
X117128758Y-102079976D01*
X117289177Y-102031313D01*
X117414196Y-102019000D01*
X118297804Y-102019000D01*
X118422823Y-102031313D01*
G37*
G36*
X103182823Y-102031313D02*
G01*
X103343242Y-102079976D01*
X103475906Y-102150886D01*
X103491078Y-102158996D01*
X103620659Y-102265341D01*
X103727004Y-102394922D01*
X103727005Y-102394924D01*
X103806024Y-102542758D01*
X103854687Y-102703177D01*
X103871117Y-102870000D01*
X103854687Y-103036823D01*
X103806024Y-103197242D01*
X103735114Y-103329906D01*
X103727004Y-103345078D01*
X103620659Y-103474659D01*
X103491078Y-103581004D01*
X103491076Y-103581005D01*
X103343242Y-103660024D01*
X103182823Y-103708687D01*
X103057804Y-103721000D01*
X102174196Y-103721000D01*
X102049177Y-103708687D01*
X101888758Y-103660024D01*
X101740924Y-103581005D01*
X101740922Y-103581004D01*
X101611341Y-103474659D01*
X101504996Y-103345078D01*
X101496886Y-103329906D01*
X101425976Y-103197242D01*
X101377313Y-103036823D01*
X101360883Y-102870000D01*
X101377313Y-102703177D01*
X101425976Y-102542758D01*
X101504995Y-102394924D01*
X101504996Y-102394922D01*
X101611341Y-102265341D01*
X101740922Y-102158996D01*
X101756094Y-102150886D01*
X101888758Y-102079976D01*
X102049177Y-102031313D01*
X102174196Y-102019000D01*
X103057804Y-102019000D01*
X103182823Y-102031313D01*
G37*
G36*
X92849000Y-101231000D02*
G01*
X91047000Y-101231000D01*
X91047000Y-99429000D01*
X92849000Y-99429000D01*
X92849000Y-101231000D01*
G37*
G36*
X73773512Y-99433927D02*
G01*
X73922812Y-99463624D01*
X74086784Y-99531544D01*
X74234354Y-99630147D01*
X74359853Y-99755646D01*
X74458456Y-99903216D01*
X74526376Y-100067188D01*
X74561000Y-100241259D01*
X74561000Y-100418741D01*
X74526376Y-100592812D01*
X74458456Y-100756784D01*
X74359853Y-100904354D01*
X74234354Y-101029853D01*
X74086784Y-101128456D01*
X73922812Y-101196376D01*
X73773512Y-101226073D01*
X73748742Y-101231000D01*
X73571258Y-101231000D01*
X73546488Y-101226073D01*
X73397188Y-101196376D01*
X73233216Y-101128456D01*
X73085646Y-101029853D01*
X72960147Y-100904354D01*
X72861544Y-100756784D01*
X72793624Y-100592812D01*
X72759000Y-100418741D01*
X72759000Y-100241259D01*
X72793624Y-100067188D01*
X72861544Y-99903216D01*
X72960147Y-99755646D01*
X73085646Y-99630147D01*
X73233216Y-99531544D01*
X73397188Y-99463624D01*
X73546488Y-99433927D01*
X73571258Y-99429000D01*
X73748742Y-99429000D01*
X73773512Y-99433927D01*
G37*
G36*
X76313512Y-99433927D02*
G01*
X76462812Y-99463624D01*
X76626784Y-99531544D01*
X76774354Y-99630147D01*
X76899853Y-99755646D01*
X76998456Y-99903216D01*
X77066376Y-100067188D01*
X77101000Y-100241259D01*
X77101000Y-100418741D01*
X77066376Y-100592812D01*
X76998456Y-100756784D01*
X76899853Y-100904354D01*
X76774354Y-101029853D01*
X76626784Y-101128456D01*
X76462812Y-101196376D01*
X76313512Y-101226073D01*
X76288742Y-101231000D01*
X76111258Y-101231000D01*
X76086488Y-101226073D01*
X75937188Y-101196376D01*
X75773216Y-101128456D01*
X75625646Y-101029853D01*
X75500147Y-100904354D01*
X75401544Y-100756784D01*
X75333624Y-100592812D01*
X75299000Y-100418741D01*
X75299000Y-100241259D01*
X75333624Y-100067188D01*
X75401544Y-99903216D01*
X75500147Y-99755646D01*
X75625646Y-99630147D01*
X75773216Y-99531544D01*
X75937188Y-99463624D01*
X76086488Y-99433927D01*
X76111258Y-99429000D01*
X76288742Y-99429000D01*
X76313512Y-99433927D01*
G37*
G36*
X145854823Y-99491313D02*
G01*
X146015242Y-99539976D01*
X146147906Y-99610886D01*
X146163078Y-99618996D01*
X146292659Y-99725341D01*
X146399004Y-99854922D01*
X146399005Y-99854924D01*
X146478024Y-100002758D01*
X146526687Y-100163177D01*
X146543117Y-100330000D01*
X146526687Y-100496823D01*
X146478024Y-100657242D01*
X146407114Y-100789906D01*
X146399004Y-100805078D01*
X146292659Y-100934659D01*
X146163078Y-101041004D01*
X146163076Y-101041005D01*
X146015242Y-101120024D01*
X145854823Y-101168687D01*
X145729804Y-101181000D01*
X144846196Y-101181000D01*
X144721177Y-101168687D01*
X144560758Y-101120024D01*
X144412924Y-101041005D01*
X144412922Y-101041004D01*
X144283341Y-100934659D01*
X144176996Y-100805078D01*
X144168886Y-100789906D01*
X144097976Y-100657242D01*
X144049313Y-100496823D01*
X144032883Y-100330000D01*
X144049313Y-100163177D01*
X144097976Y-100002758D01*
X144176995Y-99854924D01*
X144176996Y-99854922D01*
X144283341Y-99725341D01*
X144412922Y-99618996D01*
X144428094Y-99610886D01*
X144560758Y-99539976D01*
X144721177Y-99491313D01*
X144846196Y-99479000D01*
X145729804Y-99479000D01*
X145854823Y-99491313D01*
G37*
G36*
X130614823Y-99491313D02*
G01*
X130775242Y-99539976D01*
X130907906Y-99610886D01*
X130923078Y-99618996D01*
X131052659Y-99725341D01*
X131159004Y-99854922D01*
X131159005Y-99854924D01*
X131238024Y-100002758D01*
X131286687Y-100163177D01*
X131303117Y-100330000D01*
X131286687Y-100496823D01*
X131238024Y-100657242D01*
X131167114Y-100789906D01*
X131159004Y-100805078D01*
X131052659Y-100934659D01*
X130923078Y-101041004D01*
X130923076Y-101041005D01*
X130775242Y-101120024D01*
X130614823Y-101168687D01*
X130489804Y-101181000D01*
X129606196Y-101181000D01*
X129481177Y-101168687D01*
X129320758Y-101120024D01*
X129172924Y-101041005D01*
X129172922Y-101041004D01*
X129043341Y-100934659D01*
X128936996Y-100805078D01*
X128928886Y-100789906D01*
X128857976Y-100657242D01*
X128809313Y-100496823D01*
X128792883Y-100330000D01*
X128809313Y-100163177D01*
X128857976Y-100002758D01*
X128936995Y-99854924D01*
X128936996Y-99854922D01*
X129043341Y-99725341D01*
X129172922Y-99618996D01*
X129188094Y-99610886D01*
X129320758Y-99539976D01*
X129481177Y-99491313D01*
X129606196Y-99479000D01*
X130489804Y-99479000D01*
X130614823Y-99491313D01*
G37*
G36*
X118422823Y-99491313D02*
G01*
X118583242Y-99539976D01*
X118715906Y-99610886D01*
X118731078Y-99618996D01*
X118860659Y-99725341D01*
X118967004Y-99854922D01*
X118967005Y-99854924D01*
X119046024Y-100002758D01*
X119094687Y-100163177D01*
X119111117Y-100330000D01*
X119094687Y-100496823D01*
X119046024Y-100657242D01*
X118975114Y-100789906D01*
X118967004Y-100805078D01*
X118860659Y-100934659D01*
X118731078Y-101041004D01*
X118731076Y-101041005D01*
X118583242Y-101120024D01*
X118422823Y-101168687D01*
X118297804Y-101181000D01*
X117414196Y-101181000D01*
X117289177Y-101168687D01*
X117128758Y-101120024D01*
X116980924Y-101041005D01*
X116980922Y-101041004D01*
X116851341Y-100934659D01*
X116744996Y-100805078D01*
X116736886Y-100789906D01*
X116665976Y-100657242D01*
X116617313Y-100496823D01*
X116600883Y-100330000D01*
X116617313Y-100163177D01*
X116665976Y-100002758D01*
X116744995Y-99854924D01*
X116744996Y-99854922D01*
X116851341Y-99725341D01*
X116980922Y-99618996D01*
X116996094Y-99610886D01*
X117128758Y-99539976D01*
X117289177Y-99491313D01*
X117414196Y-99479000D01*
X118297804Y-99479000D01*
X118422823Y-99491313D01*
G37*
G36*
X103182823Y-99491313D02*
G01*
X103343242Y-99539976D01*
X103475906Y-99610886D01*
X103491078Y-99618996D01*
X103620659Y-99725341D01*
X103727004Y-99854922D01*
X103727005Y-99854924D01*
X103806024Y-100002758D01*
X103854687Y-100163177D01*
X103871117Y-100330000D01*
X103854687Y-100496823D01*
X103806024Y-100657242D01*
X103735114Y-100789906D01*
X103727004Y-100805078D01*
X103620659Y-100934659D01*
X103491078Y-101041004D01*
X103491076Y-101041005D01*
X103343242Y-101120024D01*
X103182823Y-101168687D01*
X103057804Y-101181000D01*
X102174196Y-101181000D01*
X102049177Y-101168687D01*
X101888758Y-101120024D01*
X101740924Y-101041005D01*
X101740922Y-101041004D01*
X101611341Y-100934659D01*
X101504996Y-100805078D01*
X101496886Y-100789906D01*
X101425976Y-100657242D01*
X101377313Y-100496823D01*
X101360883Y-100330000D01*
X101377313Y-100163177D01*
X101425976Y-100002758D01*
X101504995Y-99854924D01*
X101504996Y-99854922D01*
X101611341Y-99725341D01*
X101740922Y-99618996D01*
X101756094Y-99610886D01*
X101888758Y-99539976D01*
X102049177Y-99491313D01*
X102174196Y-99479000D01*
X103057804Y-99479000D01*
X103182823Y-99491313D01*
G37*
G36*
X153097000Y-100011000D02*
G01*
X151195000Y-100011000D01*
X151195000Y-98109000D01*
X153097000Y-98109000D01*
X153097000Y-100011000D01*
G37*
G36*
X154963395Y-98145546D02*
G01*
X155136466Y-98217234D01*
X155208069Y-98265078D01*
X155292227Y-98321310D01*
X155424690Y-98453773D01*
X155456249Y-98501005D01*
X155528766Y-98609534D01*
X155600454Y-98782605D01*
X155637000Y-98966333D01*
X155637000Y-99153667D01*
X155600454Y-99337395D01*
X155528766Y-99510466D01*
X155509048Y-99539976D01*
X155424690Y-99666227D01*
X155292227Y-99798690D01*
X155213818Y-99851081D01*
X155136466Y-99902766D01*
X154963395Y-99974454D01*
X154779667Y-100011000D01*
X154592333Y-100011000D01*
X154408605Y-99974454D01*
X154235534Y-99902766D01*
X154158182Y-99851081D01*
X154079773Y-99798690D01*
X153947310Y-99666227D01*
X153862952Y-99539976D01*
X153843234Y-99510466D01*
X153771546Y-99337395D01*
X153735000Y-99153667D01*
X153735000Y-98966333D01*
X153771546Y-98782605D01*
X153843234Y-98609534D01*
X153915751Y-98501005D01*
X153947310Y-98453773D01*
X154079773Y-98321310D01*
X154163931Y-98265078D01*
X154235534Y-98217234D01*
X154408605Y-98145546D01*
X154592333Y-98109000D01*
X154779667Y-98109000D01*
X154963395Y-98145546D01*
G37*
G36*
X162583395Y-98145546D02*
G01*
X162756466Y-98217234D01*
X162828069Y-98265078D01*
X162912227Y-98321310D01*
X163044690Y-98453773D01*
X163076249Y-98501005D01*
X163148766Y-98609534D01*
X163220454Y-98782605D01*
X163257000Y-98966333D01*
X163257000Y-99153667D01*
X163220454Y-99337395D01*
X163148766Y-99510466D01*
X163129048Y-99539976D01*
X163044690Y-99666227D01*
X162912227Y-99798690D01*
X162833818Y-99851081D01*
X162756466Y-99902766D01*
X162583395Y-99974454D01*
X162399667Y-100011000D01*
X162212333Y-100011000D01*
X162028605Y-99974454D01*
X161855534Y-99902766D01*
X161778182Y-99851081D01*
X161699773Y-99798690D01*
X161567310Y-99666227D01*
X161482952Y-99539976D01*
X161463234Y-99510466D01*
X161391546Y-99337395D01*
X161355000Y-99153667D01*
X161355000Y-98966333D01*
X161391546Y-98782605D01*
X161463234Y-98609534D01*
X161535751Y-98501005D01*
X161567310Y-98453773D01*
X161699773Y-98321310D01*
X161783931Y-98265078D01*
X161855534Y-98217234D01*
X162028605Y-98145546D01*
X162212333Y-98109000D01*
X162399667Y-98109000D01*
X162583395Y-98145546D01*
G37*
G36*
X165797000Y-100011000D02*
G01*
X163895000Y-100011000D01*
X163895000Y-98109000D01*
X165797000Y-98109000D01*
X165797000Y-100011000D01*
G37*
G36*
X92061512Y-96893927D02*
G01*
X92210812Y-96923624D01*
X92374784Y-96991544D01*
X92522354Y-97090147D01*
X92647853Y-97215646D01*
X92746456Y-97363216D01*
X92814376Y-97527188D01*
X92849000Y-97701259D01*
X92849000Y-97878741D01*
X92814376Y-98052812D01*
X92746456Y-98216784D01*
X92647853Y-98364354D01*
X92522354Y-98489853D01*
X92374784Y-98588456D01*
X92210812Y-98656376D01*
X92061512Y-98686073D01*
X92036742Y-98691000D01*
X91859258Y-98691000D01*
X91834488Y-98686073D01*
X91685188Y-98656376D01*
X91521216Y-98588456D01*
X91373646Y-98489853D01*
X91248147Y-98364354D01*
X91149544Y-98216784D01*
X91081624Y-98052812D01*
X91047000Y-97878741D01*
X91047000Y-97701259D01*
X91081624Y-97527188D01*
X91149544Y-97363216D01*
X91248147Y-97215646D01*
X91373646Y-97090147D01*
X91521216Y-96991544D01*
X91685188Y-96923624D01*
X91834488Y-96893927D01*
X91859258Y-96889000D01*
X92036742Y-96889000D01*
X92061512Y-96893927D01*
G37*
G36*
X76313512Y-96893927D02*
G01*
X76462812Y-96923624D01*
X76626784Y-96991544D01*
X76774354Y-97090147D01*
X76899853Y-97215646D01*
X76998456Y-97363216D01*
X77066376Y-97527188D01*
X77101000Y-97701259D01*
X77101000Y-97878741D01*
X77066376Y-98052812D01*
X76998456Y-98216784D01*
X76899853Y-98364354D01*
X76774354Y-98489853D01*
X76626784Y-98588456D01*
X76462812Y-98656376D01*
X76313512Y-98686073D01*
X76288742Y-98691000D01*
X76111258Y-98691000D01*
X76086488Y-98686073D01*
X75937188Y-98656376D01*
X75773216Y-98588456D01*
X75625646Y-98489853D01*
X75500147Y-98364354D01*
X75401544Y-98216784D01*
X75333624Y-98052812D01*
X75299000Y-97878741D01*
X75299000Y-97701259D01*
X75333624Y-97527188D01*
X75401544Y-97363216D01*
X75500147Y-97215646D01*
X75625646Y-97090147D01*
X75773216Y-96991544D01*
X75937188Y-96923624D01*
X76086488Y-96893927D01*
X76111258Y-96889000D01*
X76288742Y-96889000D01*
X76313512Y-96893927D01*
G37*
G36*
X73773512Y-96893927D02*
G01*
X73922812Y-96923624D01*
X74086784Y-96991544D01*
X74234354Y-97090147D01*
X74359853Y-97215646D01*
X74458456Y-97363216D01*
X74526376Y-97527188D01*
X74561000Y-97701259D01*
X74561000Y-97878741D01*
X74526376Y-98052812D01*
X74458456Y-98216784D01*
X74359853Y-98364354D01*
X74234354Y-98489853D01*
X74086784Y-98588456D01*
X73922812Y-98656376D01*
X73773512Y-98686073D01*
X73748742Y-98691000D01*
X73571258Y-98691000D01*
X73546488Y-98686073D01*
X73397188Y-98656376D01*
X73233216Y-98588456D01*
X73085646Y-98489853D01*
X72960147Y-98364354D01*
X72861544Y-98216784D01*
X72793624Y-98052812D01*
X72759000Y-97878741D01*
X72759000Y-97701259D01*
X72793624Y-97527188D01*
X72861544Y-97363216D01*
X72960147Y-97215646D01*
X73085646Y-97090147D01*
X73233216Y-96991544D01*
X73397188Y-96923624D01*
X73546488Y-96893927D01*
X73571258Y-96889000D01*
X73748742Y-96889000D01*
X73773512Y-96893927D01*
G37*
G36*
X145854823Y-96951313D02*
G01*
X146015242Y-96999976D01*
X146147906Y-97070886D01*
X146163078Y-97078996D01*
X146292659Y-97185341D01*
X146399004Y-97314922D01*
X146399005Y-97314924D01*
X146478024Y-97462758D01*
X146526687Y-97623177D01*
X146543117Y-97790000D01*
X146526687Y-97956823D01*
X146478024Y-98117242D01*
X146407114Y-98249906D01*
X146399004Y-98265078D01*
X146292659Y-98394659D01*
X146163078Y-98501004D01*
X146163076Y-98501005D01*
X146015242Y-98580024D01*
X145854823Y-98628687D01*
X145729804Y-98641000D01*
X144846196Y-98641000D01*
X144721177Y-98628687D01*
X144560758Y-98580024D01*
X144412924Y-98501005D01*
X144412922Y-98501004D01*
X144283341Y-98394659D01*
X144176996Y-98265078D01*
X144168886Y-98249906D01*
X144097976Y-98117242D01*
X144049313Y-97956823D01*
X144032883Y-97790000D01*
X144049313Y-97623177D01*
X144097976Y-97462758D01*
X144176995Y-97314924D01*
X144176996Y-97314922D01*
X144283341Y-97185341D01*
X144412922Y-97078996D01*
X144428094Y-97070886D01*
X144560758Y-96999976D01*
X144721177Y-96951313D01*
X144846196Y-96939000D01*
X145729804Y-96939000D01*
X145854823Y-96951313D01*
G37*
G36*
X130614823Y-96951313D02*
G01*
X130775242Y-96999976D01*
X130907906Y-97070886D01*
X130923078Y-97078996D01*
X131052659Y-97185341D01*
X131159004Y-97314922D01*
X131159005Y-97314924D01*
X131238024Y-97462758D01*
X131286687Y-97623177D01*
X131303117Y-97790000D01*
X131286687Y-97956823D01*
X131238024Y-98117242D01*
X131167114Y-98249906D01*
X131159004Y-98265078D01*
X131052659Y-98394659D01*
X130923078Y-98501004D01*
X130923076Y-98501005D01*
X130775242Y-98580024D01*
X130614823Y-98628687D01*
X130489804Y-98641000D01*
X129606196Y-98641000D01*
X129481177Y-98628687D01*
X129320758Y-98580024D01*
X129172924Y-98501005D01*
X129172922Y-98501004D01*
X129043341Y-98394659D01*
X128936996Y-98265078D01*
X128928886Y-98249906D01*
X128857976Y-98117242D01*
X128809313Y-97956823D01*
X128792883Y-97790000D01*
X128809313Y-97623177D01*
X128857976Y-97462758D01*
X128936995Y-97314924D01*
X128936996Y-97314922D01*
X129043341Y-97185341D01*
X129172922Y-97078996D01*
X129188094Y-97070886D01*
X129320758Y-96999976D01*
X129481177Y-96951313D01*
X129606196Y-96939000D01*
X130489804Y-96939000D01*
X130614823Y-96951313D01*
G37*
G36*
X118422823Y-96951313D02*
G01*
X118583242Y-96999976D01*
X118715906Y-97070886D01*
X118731078Y-97078996D01*
X118860659Y-97185341D01*
X118967004Y-97314922D01*
X118967005Y-97314924D01*
X119046024Y-97462758D01*
X119094687Y-97623177D01*
X119111117Y-97790000D01*
X119094687Y-97956823D01*
X119046024Y-98117242D01*
X118975114Y-98249906D01*
X118967004Y-98265078D01*
X118860659Y-98394659D01*
X118731078Y-98501004D01*
X118731076Y-98501005D01*
X118583242Y-98580024D01*
X118422823Y-98628687D01*
X118297804Y-98641000D01*
X117414196Y-98641000D01*
X117289177Y-98628687D01*
X117128758Y-98580024D01*
X116980924Y-98501005D01*
X116980922Y-98501004D01*
X116851341Y-98394659D01*
X116744996Y-98265078D01*
X116736886Y-98249906D01*
X116665976Y-98117242D01*
X116617313Y-97956823D01*
X116600883Y-97790000D01*
X116617313Y-97623177D01*
X116665976Y-97462758D01*
X116744995Y-97314924D01*
X116744996Y-97314922D01*
X116851341Y-97185341D01*
X116980922Y-97078996D01*
X116996094Y-97070886D01*
X117128758Y-96999976D01*
X117289177Y-96951313D01*
X117414196Y-96939000D01*
X118297804Y-96939000D01*
X118422823Y-96951313D01*
G37*
G36*
X103182823Y-96951313D02*
G01*
X103343242Y-96999976D01*
X103475906Y-97070886D01*
X103491078Y-97078996D01*
X103620659Y-97185341D01*
X103727004Y-97314922D01*
X103727005Y-97314924D01*
X103806024Y-97462758D01*
X103854687Y-97623177D01*
X103871117Y-97790000D01*
X103854687Y-97956823D01*
X103806024Y-98117242D01*
X103735114Y-98249906D01*
X103727004Y-98265078D01*
X103620659Y-98394659D01*
X103491078Y-98501004D01*
X103491076Y-98501005D01*
X103343242Y-98580024D01*
X103182823Y-98628687D01*
X103057804Y-98641000D01*
X102174196Y-98641000D01*
X102049177Y-98628687D01*
X101888758Y-98580024D01*
X101740924Y-98501005D01*
X101740922Y-98501004D01*
X101611341Y-98394659D01*
X101504996Y-98265078D01*
X101496886Y-98249906D01*
X101425976Y-98117242D01*
X101377313Y-97956823D01*
X101360883Y-97790000D01*
X101377313Y-97623177D01*
X101425976Y-97462758D01*
X101504995Y-97314924D01*
X101504996Y-97314922D01*
X101611341Y-97185341D01*
X101740922Y-97078996D01*
X101756094Y-97070886D01*
X101888758Y-96999976D01*
X102049177Y-96951313D01*
X102174196Y-96939000D01*
X103057804Y-96939000D01*
X103182823Y-96951313D01*
G37*
G36*
X76313512Y-94353927D02*
G01*
X76462812Y-94383624D01*
X76626784Y-94451544D01*
X76774354Y-94550147D01*
X76899853Y-94675646D01*
X76998456Y-94823216D01*
X77066376Y-94987188D01*
X77101000Y-95161259D01*
X77101000Y-95338741D01*
X77066376Y-95512812D01*
X76998456Y-95676784D01*
X76899853Y-95824354D01*
X76774354Y-95949853D01*
X76626784Y-96048456D01*
X76462812Y-96116376D01*
X76313512Y-96146073D01*
X76288742Y-96151000D01*
X76111258Y-96151000D01*
X76086488Y-96146073D01*
X75937188Y-96116376D01*
X75773216Y-96048456D01*
X75625646Y-95949853D01*
X75500147Y-95824354D01*
X75401544Y-95676784D01*
X75333624Y-95512812D01*
X75299000Y-95338741D01*
X75299000Y-95161259D01*
X75333624Y-94987188D01*
X75401544Y-94823216D01*
X75500147Y-94675646D01*
X75625646Y-94550147D01*
X75773216Y-94451544D01*
X75937188Y-94383624D01*
X76086488Y-94353927D01*
X76111258Y-94349000D01*
X76288742Y-94349000D01*
X76313512Y-94353927D01*
G37*
G36*
X73773512Y-94353927D02*
G01*
X73922812Y-94383624D01*
X74086784Y-94451544D01*
X74234354Y-94550147D01*
X74359853Y-94675646D01*
X74458456Y-94823216D01*
X74526376Y-94987188D01*
X74561000Y-95161259D01*
X74561000Y-95338741D01*
X74526376Y-95512812D01*
X74458456Y-95676784D01*
X74359853Y-95824354D01*
X74234354Y-95949853D01*
X74086784Y-96048456D01*
X73922812Y-96116376D01*
X73773512Y-96146073D01*
X73748742Y-96151000D01*
X73571258Y-96151000D01*
X73546488Y-96146073D01*
X73397188Y-96116376D01*
X73233216Y-96048456D01*
X73085646Y-95949853D01*
X72960147Y-95824354D01*
X72861544Y-95676784D01*
X72793624Y-95512812D01*
X72759000Y-95338741D01*
X72759000Y-95161259D01*
X72793624Y-94987188D01*
X72861544Y-94823216D01*
X72960147Y-94675646D01*
X73085646Y-94550147D01*
X73233216Y-94451544D01*
X73397188Y-94383624D01*
X73546488Y-94353927D01*
X73571258Y-94349000D01*
X73748742Y-94349000D01*
X73773512Y-94353927D01*
G37*
G36*
X103182823Y-94411313D02*
G01*
X103343242Y-94459976D01*
X103475906Y-94530886D01*
X103491078Y-94538996D01*
X103620659Y-94645341D01*
X103727004Y-94774922D01*
X103727005Y-94774924D01*
X103806024Y-94922758D01*
X103854687Y-95083177D01*
X103871117Y-95250000D01*
X103854687Y-95416823D01*
X103806024Y-95577242D01*
X103735114Y-95709906D01*
X103727004Y-95725078D01*
X103620659Y-95854659D01*
X103491078Y-95961004D01*
X103491076Y-95961005D01*
X103343242Y-96040024D01*
X103182823Y-96088687D01*
X103057804Y-96101000D01*
X102174196Y-96101000D01*
X102049177Y-96088687D01*
X101888758Y-96040024D01*
X101740924Y-95961005D01*
X101740922Y-95961004D01*
X101611341Y-95854659D01*
X101504996Y-95725078D01*
X101496886Y-95709906D01*
X101425976Y-95577242D01*
X101377313Y-95416823D01*
X101360883Y-95250000D01*
X101377313Y-95083177D01*
X101425976Y-94922758D01*
X101504995Y-94774924D01*
X101504996Y-94774922D01*
X101611341Y-94645341D01*
X101740922Y-94538996D01*
X101756094Y-94530886D01*
X101888758Y-94459976D01*
X102049177Y-94411313D01*
X102174196Y-94399000D01*
X103057804Y-94399000D01*
X103182823Y-94411313D01*
G37*
G36*
X118422823Y-94411313D02*
G01*
X118583242Y-94459976D01*
X118715906Y-94530886D01*
X118731078Y-94538996D01*
X118860659Y-94645341D01*
X118967004Y-94774922D01*
X118967005Y-94774924D01*
X119046024Y-94922758D01*
X119094687Y-95083177D01*
X119111117Y-95250000D01*
X119094687Y-95416823D01*
X119046024Y-95577242D01*
X118975114Y-95709906D01*
X118967004Y-95725078D01*
X118860659Y-95854659D01*
X118731078Y-95961004D01*
X118731076Y-95961005D01*
X118583242Y-96040024D01*
X118422823Y-96088687D01*
X118297804Y-96101000D01*
X117414196Y-96101000D01*
X117289177Y-96088687D01*
X117128758Y-96040024D01*
X116980924Y-95961005D01*
X116980922Y-95961004D01*
X116851341Y-95854659D01*
X116744996Y-95725078D01*
X116736886Y-95709906D01*
X116665976Y-95577242D01*
X116617313Y-95416823D01*
X116600883Y-95250000D01*
X116617313Y-95083177D01*
X116665976Y-94922758D01*
X116744995Y-94774924D01*
X116744996Y-94774922D01*
X116851341Y-94645341D01*
X116980922Y-94538996D01*
X116996094Y-94530886D01*
X117128758Y-94459976D01*
X117289177Y-94411313D01*
X117414196Y-94399000D01*
X118297804Y-94399000D01*
X118422823Y-94411313D01*
G37*
G36*
X145854823Y-94411313D02*
G01*
X146015242Y-94459976D01*
X146147906Y-94530886D01*
X146163078Y-94538996D01*
X146292659Y-94645341D01*
X146399004Y-94774922D01*
X146399005Y-94774924D01*
X146478024Y-94922758D01*
X146526687Y-95083177D01*
X146543117Y-95250000D01*
X146526687Y-95416823D01*
X146478024Y-95577242D01*
X146407114Y-95709906D01*
X146399004Y-95725078D01*
X146292659Y-95854659D01*
X146163078Y-95961004D01*
X146163076Y-95961005D01*
X146015242Y-96040024D01*
X145854823Y-96088687D01*
X145729804Y-96101000D01*
X144846196Y-96101000D01*
X144721177Y-96088687D01*
X144560758Y-96040024D01*
X144412924Y-95961005D01*
X144412922Y-95961004D01*
X144283341Y-95854659D01*
X144176996Y-95725078D01*
X144168886Y-95709906D01*
X144097976Y-95577242D01*
X144049313Y-95416823D01*
X144032883Y-95250000D01*
X144049313Y-95083177D01*
X144097976Y-94922758D01*
X144176995Y-94774924D01*
X144176996Y-94774922D01*
X144283341Y-94645341D01*
X144412922Y-94538996D01*
X144428094Y-94530886D01*
X144560758Y-94459976D01*
X144721177Y-94411313D01*
X144846196Y-94399000D01*
X145729804Y-94399000D01*
X145854823Y-94411313D01*
G37*
G36*
X130614823Y-94411313D02*
G01*
X130775242Y-94459976D01*
X130907906Y-94530886D01*
X130923078Y-94538996D01*
X131052659Y-94645341D01*
X131159004Y-94774922D01*
X131159005Y-94774924D01*
X131238024Y-94922758D01*
X131286687Y-95083177D01*
X131303117Y-95250000D01*
X131286687Y-95416823D01*
X131238024Y-95577242D01*
X131167114Y-95709906D01*
X131159004Y-95725078D01*
X131052659Y-95854659D01*
X130923078Y-95961004D01*
X130923076Y-95961005D01*
X130775242Y-96040024D01*
X130614823Y-96088687D01*
X130489804Y-96101000D01*
X129606196Y-96101000D01*
X129481177Y-96088687D01*
X129320758Y-96040024D01*
X129172924Y-95961005D01*
X129172922Y-95961004D01*
X129043341Y-95854659D01*
X128936996Y-95725078D01*
X128928886Y-95709906D01*
X128857976Y-95577242D01*
X128809313Y-95416823D01*
X128792883Y-95250000D01*
X128809313Y-95083177D01*
X128857976Y-94922758D01*
X128936995Y-94774924D01*
X128936996Y-94774922D01*
X129043341Y-94645341D01*
X129172922Y-94538996D01*
X129188094Y-94530886D01*
X129320758Y-94459976D01*
X129481177Y-94411313D01*
X129606196Y-94399000D01*
X130489804Y-94399000D01*
X130614823Y-94411313D01*
G37*
G36*
X73773512Y-91813927D02*
G01*
X73922812Y-91843624D01*
X74086784Y-91911544D01*
X74234354Y-92010147D01*
X74359853Y-92135646D01*
X74458456Y-92283216D01*
X74526376Y-92447188D01*
X74561000Y-92621259D01*
X74561000Y-92798741D01*
X74526376Y-92972812D01*
X74458456Y-93136784D01*
X74359853Y-93284354D01*
X74234354Y-93409853D01*
X74086784Y-93508456D01*
X73922812Y-93576376D01*
X73773512Y-93606073D01*
X73748742Y-93611000D01*
X73571258Y-93611000D01*
X73546488Y-93606073D01*
X73397188Y-93576376D01*
X73233216Y-93508456D01*
X73085646Y-93409853D01*
X72960147Y-93284354D01*
X72861544Y-93136784D01*
X72793624Y-92972812D01*
X72759000Y-92798741D01*
X72759000Y-92621259D01*
X72793624Y-92447188D01*
X72861544Y-92283216D01*
X72960147Y-92135646D01*
X73085646Y-92010147D01*
X73233216Y-91911544D01*
X73397188Y-91843624D01*
X73546488Y-91813927D01*
X73571258Y-91809000D01*
X73748742Y-91809000D01*
X73773512Y-91813927D01*
G37*
G36*
X76313512Y-91813927D02*
G01*
X76462812Y-91843624D01*
X76626784Y-91911544D01*
X76774354Y-92010147D01*
X76899853Y-92135646D01*
X76998456Y-92283216D01*
X77066376Y-92447188D01*
X77101000Y-92621259D01*
X77101000Y-92798741D01*
X77066376Y-92972812D01*
X76998456Y-93136784D01*
X76899853Y-93284354D01*
X76774354Y-93409853D01*
X76626784Y-93508456D01*
X76462812Y-93576376D01*
X76313512Y-93606073D01*
X76288742Y-93611000D01*
X76111258Y-93611000D01*
X76086488Y-93606073D01*
X75937188Y-93576376D01*
X75773216Y-93508456D01*
X75625646Y-93409853D01*
X75500147Y-93284354D01*
X75401544Y-93136784D01*
X75333624Y-92972812D01*
X75299000Y-92798741D01*
X75299000Y-92621259D01*
X75333624Y-92447188D01*
X75401544Y-92283216D01*
X75500147Y-92135646D01*
X75625646Y-92010147D01*
X75773216Y-91911544D01*
X75937188Y-91843624D01*
X76086488Y-91813927D01*
X76111258Y-91809000D01*
X76288742Y-91809000D01*
X76313512Y-91813927D01*
G37*
G36*
X145854823Y-91871313D02*
G01*
X146015242Y-91919976D01*
X146082361Y-91955852D01*
X146163078Y-91998996D01*
X146292659Y-92105341D01*
X146399004Y-92234922D01*
X146399005Y-92234924D01*
X146478024Y-92382758D01*
X146526687Y-92543177D01*
X146543117Y-92710000D01*
X146526687Y-92876823D01*
X146478024Y-93037242D01*
X146407114Y-93169906D01*
X146399004Y-93185078D01*
X146292659Y-93314659D01*
X146163078Y-93421004D01*
X146163076Y-93421005D01*
X146015242Y-93500024D01*
X145854823Y-93548687D01*
X145729804Y-93561000D01*
X144846196Y-93561000D01*
X144721177Y-93548687D01*
X144560758Y-93500024D01*
X144412924Y-93421005D01*
X144412922Y-93421004D01*
X144283341Y-93314659D01*
X144176996Y-93185078D01*
X144168886Y-93169906D01*
X144097976Y-93037242D01*
X144049313Y-92876823D01*
X144032883Y-92710000D01*
X144049313Y-92543177D01*
X144097976Y-92382758D01*
X144176995Y-92234924D01*
X144176996Y-92234922D01*
X144283341Y-92105341D01*
X144412922Y-91998996D01*
X144493639Y-91955852D01*
X144560758Y-91919976D01*
X144721177Y-91871313D01*
X144846196Y-91859000D01*
X145729804Y-91859000D01*
X145854823Y-91871313D01*
G37*
G36*
X130614823Y-91871313D02*
G01*
X130775242Y-91919976D01*
X130842361Y-91955852D01*
X130923078Y-91998996D01*
X131052659Y-92105341D01*
X131159004Y-92234922D01*
X131159005Y-92234924D01*
X131238024Y-92382758D01*
X131286687Y-92543177D01*
X131303117Y-92710000D01*
X131286687Y-92876823D01*
X131238024Y-93037242D01*
X131167114Y-93169906D01*
X131159004Y-93185078D01*
X131052659Y-93314659D01*
X130923078Y-93421004D01*
X130923076Y-93421005D01*
X130775242Y-93500024D01*
X130614823Y-93548687D01*
X130489804Y-93561000D01*
X129606196Y-93561000D01*
X129481177Y-93548687D01*
X129320758Y-93500024D01*
X129172924Y-93421005D01*
X129172922Y-93421004D01*
X129043341Y-93314659D01*
X128936996Y-93185078D01*
X128928886Y-93169906D01*
X128857976Y-93037242D01*
X128809313Y-92876823D01*
X128792883Y-92710000D01*
X128809313Y-92543177D01*
X128857976Y-92382758D01*
X128936995Y-92234924D01*
X128936996Y-92234922D01*
X129043341Y-92105341D01*
X129172922Y-91998996D01*
X129253639Y-91955852D01*
X129320758Y-91919976D01*
X129481177Y-91871313D01*
X129606196Y-91859000D01*
X130489804Y-91859000D01*
X130614823Y-91871313D01*
G37*
G36*
X118422823Y-91871313D02*
G01*
X118583242Y-91919976D01*
X118650361Y-91955852D01*
X118731078Y-91998996D01*
X118860659Y-92105341D01*
X118967004Y-92234922D01*
X118967005Y-92234924D01*
X119046024Y-92382758D01*
X119094687Y-92543177D01*
X119111117Y-92710000D01*
X119094687Y-92876823D01*
X119046024Y-93037242D01*
X118975114Y-93169906D01*
X118967004Y-93185078D01*
X118860659Y-93314659D01*
X118731078Y-93421004D01*
X118731076Y-93421005D01*
X118583242Y-93500024D01*
X118422823Y-93548687D01*
X118297804Y-93561000D01*
X117414196Y-93561000D01*
X117289177Y-93548687D01*
X117128758Y-93500024D01*
X116980924Y-93421005D01*
X116980922Y-93421004D01*
X116851341Y-93314659D01*
X116744996Y-93185078D01*
X116736886Y-93169906D01*
X116665976Y-93037242D01*
X116617313Y-92876823D01*
X116600883Y-92710000D01*
X116617313Y-92543177D01*
X116665976Y-92382758D01*
X116744995Y-92234924D01*
X116744996Y-92234922D01*
X116851341Y-92105341D01*
X116980922Y-91998996D01*
X117061639Y-91955852D01*
X117128758Y-91919976D01*
X117289177Y-91871313D01*
X117414196Y-91859000D01*
X118297804Y-91859000D01*
X118422823Y-91871313D01*
G37*
G36*
X162554228Y-91891703D02*
G01*
X162709100Y-91955853D01*
X162848481Y-92048985D01*
X162967015Y-92167519D01*
X163060147Y-92306900D01*
X163124297Y-92461772D01*
X163157000Y-92626184D01*
X163157000Y-92793816D01*
X163124297Y-92958228D01*
X163060147Y-93113100D01*
X162967015Y-93252481D01*
X162848481Y-93371015D01*
X162709100Y-93464147D01*
X162554228Y-93528297D01*
X162389816Y-93561000D01*
X162222184Y-93561000D01*
X162057772Y-93528297D01*
X161902900Y-93464147D01*
X161763519Y-93371015D01*
X161644985Y-93252481D01*
X161551853Y-93113100D01*
X161487703Y-92958228D01*
X161455000Y-92793816D01*
X161455000Y-92626184D01*
X161487703Y-92461772D01*
X161551853Y-92306900D01*
X161644985Y-92167519D01*
X161763519Y-92048985D01*
X161902900Y-91955853D01*
X162057772Y-91891703D01*
X162222184Y-91859000D01*
X162389816Y-91859000D01*
X162554228Y-91891703D01*
G37*
G36*
X103182823Y-91871313D02*
G01*
X103343242Y-91919976D01*
X103410361Y-91955852D01*
X103491078Y-91998996D01*
X103620659Y-92105341D01*
X103727004Y-92234922D01*
X103727005Y-92234924D01*
X103806024Y-92382758D01*
X103854687Y-92543177D01*
X103871117Y-92710000D01*
X103854687Y-92876823D01*
X103806024Y-93037242D01*
X103735114Y-93169906D01*
X103727004Y-93185078D01*
X103620659Y-93314659D01*
X103491078Y-93421004D01*
X103491076Y-93421005D01*
X103343242Y-93500024D01*
X103182823Y-93548687D01*
X103057804Y-93561000D01*
X102174196Y-93561000D01*
X102049177Y-93548687D01*
X101888758Y-93500024D01*
X101740924Y-93421005D01*
X101740922Y-93421004D01*
X101611341Y-93314659D01*
X101504996Y-93185078D01*
X101496886Y-93169906D01*
X101425976Y-93037242D01*
X101377313Y-92876823D01*
X101360883Y-92710000D01*
X101377313Y-92543177D01*
X101425976Y-92382758D01*
X101504995Y-92234924D01*
X101504996Y-92234922D01*
X101611341Y-92105341D01*
X101740922Y-91998996D01*
X101821639Y-91955852D01*
X101888758Y-91919976D01*
X102049177Y-91871313D01*
X102174196Y-91859000D01*
X103057804Y-91859000D01*
X103182823Y-91871313D01*
G37*
G36*
X154934228Y-91891703D02*
G01*
X155089100Y-91955853D01*
X155228481Y-92048985D01*
X155347015Y-92167519D01*
X155440147Y-92306900D01*
X155504297Y-92461772D01*
X155537000Y-92626184D01*
X155537000Y-92793816D01*
X155504297Y-92958228D01*
X155440147Y-93113100D01*
X155347015Y-93252481D01*
X155228481Y-93371015D01*
X155089100Y-93464147D01*
X154934228Y-93528297D01*
X154769816Y-93561000D01*
X154602184Y-93561000D01*
X154437772Y-93528297D01*
X154282900Y-93464147D01*
X154143519Y-93371015D01*
X154024985Y-93252481D01*
X153931853Y-93113100D01*
X153867703Y-92958228D01*
X153835000Y-92793816D01*
X153835000Y-92626184D01*
X153867703Y-92461772D01*
X153931853Y-92306900D01*
X154024985Y-92167519D01*
X154143519Y-92048985D01*
X154282900Y-91955853D01*
X154437772Y-91891703D01*
X154602184Y-91859000D01*
X154769816Y-91859000D01*
X154934228Y-91891703D01*
G37*
G36*
X73773512Y-89273927D02*
G01*
X73922812Y-89303624D01*
X74086784Y-89371544D01*
X74234354Y-89470147D01*
X74359853Y-89595646D01*
X74458456Y-89743216D01*
X74526376Y-89907188D01*
X74561000Y-90081259D01*
X74561000Y-90258741D01*
X74526376Y-90432812D01*
X74458456Y-90596784D01*
X74359853Y-90744354D01*
X74234354Y-90869853D01*
X74086784Y-90968456D01*
X73922812Y-91036376D01*
X73773512Y-91066073D01*
X73748742Y-91071000D01*
X73571258Y-91071000D01*
X73546488Y-91066073D01*
X73397188Y-91036376D01*
X73233216Y-90968456D01*
X73085646Y-90869853D01*
X72960147Y-90744354D01*
X72861544Y-90596784D01*
X72793624Y-90432812D01*
X72759000Y-90258741D01*
X72759000Y-90081259D01*
X72793624Y-89907188D01*
X72861544Y-89743216D01*
X72960147Y-89595646D01*
X73085646Y-89470147D01*
X73233216Y-89371544D01*
X73397188Y-89303624D01*
X73546488Y-89273927D01*
X73571258Y-89269000D01*
X73748742Y-89269000D01*
X73773512Y-89273927D01*
G37*
G36*
X76313512Y-89273927D02*
G01*
X76462812Y-89303624D01*
X76626784Y-89371544D01*
X76774354Y-89470147D01*
X76899853Y-89595646D01*
X76998456Y-89743216D01*
X77066376Y-89907188D01*
X77101000Y-90081259D01*
X77101000Y-90258741D01*
X77066376Y-90432812D01*
X76998456Y-90596784D01*
X76899853Y-90744354D01*
X76774354Y-90869853D01*
X76626784Y-90968456D01*
X76462812Y-91036376D01*
X76313512Y-91066073D01*
X76288742Y-91071000D01*
X76111258Y-91071000D01*
X76086488Y-91066073D01*
X75937188Y-91036376D01*
X75773216Y-90968456D01*
X75625646Y-90869853D01*
X75500147Y-90744354D01*
X75401544Y-90596784D01*
X75333624Y-90432812D01*
X75299000Y-90258741D01*
X75299000Y-90081259D01*
X75333624Y-89907188D01*
X75401544Y-89743216D01*
X75500147Y-89595646D01*
X75625646Y-89470147D01*
X75773216Y-89371544D01*
X75937188Y-89303624D01*
X76086488Y-89273927D01*
X76111258Y-89269000D01*
X76288742Y-89269000D01*
X76313512Y-89273927D01*
G37*
G36*
X145854823Y-89331313D02*
G01*
X146015242Y-89379976D01*
X146147906Y-89450886D01*
X146163078Y-89458996D01*
X146292659Y-89565341D01*
X146399004Y-89694922D01*
X146399005Y-89694924D01*
X146478024Y-89842758D01*
X146526687Y-90003177D01*
X146543117Y-90170000D01*
X146526687Y-90336823D01*
X146478024Y-90497242D01*
X146407114Y-90629906D01*
X146399004Y-90645078D01*
X146292659Y-90774659D01*
X146163078Y-90881004D01*
X146163076Y-90881005D01*
X146015242Y-90960024D01*
X145854823Y-91008687D01*
X145729804Y-91021000D01*
X144846196Y-91021000D01*
X144721177Y-91008687D01*
X144560758Y-90960024D01*
X144412924Y-90881005D01*
X144412922Y-90881004D01*
X144283341Y-90774659D01*
X144176996Y-90645078D01*
X144168886Y-90629906D01*
X144097976Y-90497242D01*
X144049313Y-90336823D01*
X144032883Y-90170000D01*
X144049313Y-90003177D01*
X144097976Y-89842758D01*
X144176995Y-89694924D01*
X144176996Y-89694922D01*
X144283341Y-89565341D01*
X144412922Y-89458996D01*
X144428094Y-89450886D01*
X144560758Y-89379976D01*
X144721177Y-89331313D01*
X144846196Y-89319000D01*
X145729804Y-89319000D01*
X145854823Y-89331313D01*
G37*
G36*
X130614823Y-89331313D02*
G01*
X130775242Y-89379976D01*
X130907906Y-89450886D01*
X130923078Y-89458996D01*
X131052659Y-89565341D01*
X131159004Y-89694922D01*
X131159005Y-89694924D01*
X131238024Y-89842758D01*
X131286687Y-90003177D01*
X131303117Y-90170000D01*
X131286687Y-90336823D01*
X131238024Y-90497242D01*
X131167114Y-90629906D01*
X131159004Y-90645078D01*
X131052659Y-90774659D01*
X130923078Y-90881004D01*
X130923076Y-90881005D01*
X130775242Y-90960024D01*
X130614823Y-91008687D01*
X130489804Y-91021000D01*
X129606196Y-91021000D01*
X129481177Y-91008687D01*
X129320758Y-90960024D01*
X129172924Y-90881005D01*
X129172922Y-90881004D01*
X129043341Y-90774659D01*
X128936996Y-90645078D01*
X128928886Y-90629906D01*
X128857976Y-90497242D01*
X128809313Y-90336823D01*
X128792883Y-90170000D01*
X128809313Y-90003177D01*
X128857976Y-89842758D01*
X128936995Y-89694924D01*
X128936996Y-89694922D01*
X129043341Y-89565341D01*
X129172922Y-89458996D01*
X129188094Y-89450886D01*
X129320758Y-89379976D01*
X129481177Y-89331313D01*
X129606196Y-89319000D01*
X130489804Y-89319000D01*
X130614823Y-89331313D01*
G37*
G36*
X103182823Y-89331313D02*
G01*
X103343242Y-89379976D01*
X103475906Y-89450886D01*
X103491078Y-89458996D01*
X103620659Y-89565341D01*
X103727004Y-89694922D01*
X103727005Y-89694924D01*
X103806024Y-89842758D01*
X103854687Y-90003177D01*
X103871117Y-90170000D01*
X103854687Y-90336823D01*
X103806024Y-90497242D01*
X103735114Y-90629906D01*
X103727004Y-90645078D01*
X103620659Y-90774659D01*
X103491078Y-90881004D01*
X103491076Y-90881005D01*
X103343242Y-90960024D01*
X103182823Y-91008687D01*
X103057804Y-91021000D01*
X102174196Y-91021000D01*
X102049177Y-91008687D01*
X101888758Y-90960024D01*
X101740924Y-90881005D01*
X101740922Y-90881004D01*
X101611341Y-90774659D01*
X101504996Y-90645078D01*
X101496886Y-90629906D01*
X101425976Y-90497242D01*
X101377313Y-90336823D01*
X101360883Y-90170000D01*
X101377313Y-90003177D01*
X101425976Y-89842758D01*
X101504995Y-89694924D01*
X101504996Y-89694922D01*
X101611341Y-89565341D01*
X101740922Y-89458996D01*
X101756094Y-89450886D01*
X101888758Y-89379976D01*
X102049177Y-89331313D01*
X102174196Y-89319000D01*
X103057804Y-89319000D01*
X103182823Y-89331313D01*
G37*
G36*
X118422823Y-89331313D02*
G01*
X118583242Y-89379976D01*
X118715906Y-89450886D01*
X118731078Y-89458996D01*
X118860659Y-89565341D01*
X118967004Y-89694922D01*
X118967005Y-89694924D01*
X119046024Y-89842758D01*
X119094687Y-90003177D01*
X119111117Y-90170000D01*
X119094687Y-90336823D01*
X119046024Y-90497242D01*
X118975114Y-90629906D01*
X118967004Y-90645078D01*
X118860659Y-90774659D01*
X118731078Y-90881004D01*
X118731076Y-90881005D01*
X118583242Y-90960024D01*
X118422823Y-91008687D01*
X118297804Y-91021000D01*
X117414196Y-91021000D01*
X117289177Y-91008687D01*
X117128758Y-90960024D01*
X116980924Y-90881005D01*
X116980922Y-90881004D01*
X116851341Y-90774659D01*
X116744996Y-90645078D01*
X116736886Y-90629906D01*
X116665976Y-90497242D01*
X116617313Y-90336823D01*
X116600883Y-90170000D01*
X116617313Y-90003177D01*
X116665976Y-89842758D01*
X116744995Y-89694924D01*
X116744996Y-89694922D01*
X116851341Y-89565341D01*
X116980922Y-89458996D01*
X116996094Y-89450886D01*
X117128758Y-89379976D01*
X117289177Y-89331313D01*
X117414196Y-89319000D01*
X118297804Y-89319000D01*
X118422823Y-89331313D01*
G37*
G36*
X96006228Y-88081703D02*
G01*
X96161100Y-88145853D01*
X96300481Y-88238985D01*
X96419015Y-88357519D01*
X96512147Y-88496900D01*
X96576297Y-88651772D01*
X96609000Y-88816184D01*
X96609000Y-88983816D01*
X96576297Y-89148228D01*
X96512147Y-89303100D01*
X96419015Y-89442481D01*
X96300481Y-89561015D01*
X96161100Y-89654147D01*
X96006228Y-89718297D01*
X95841816Y-89751000D01*
X95674184Y-89751000D01*
X95509772Y-89718297D01*
X95354900Y-89654147D01*
X95215519Y-89561015D01*
X95096985Y-89442481D01*
X95003853Y-89303100D01*
X94939703Y-89148228D01*
X94907000Y-88983816D01*
X94907000Y-88816184D01*
X94939703Y-88651772D01*
X95003853Y-88496900D01*
X95096985Y-88357519D01*
X95215519Y-88238985D01*
X95354900Y-88145853D01*
X95509772Y-88081703D01*
X95674184Y-88049000D01*
X95841816Y-88049000D01*
X96006228Y-88081703D01*
G37*
G36*
X92196228Y-88081703D02*
G01*
X92351100Y-88145853D01*
X92490481Y-88238985D01*
X92609015Y-88357519D01*
X92702147Y-88496900D01*
X92766297Y-88651772D01*
X92799000Y-88816184D01*
X92799000Y-88983816D01*
X92766297Y-89148228D01*
X92702147Y-89303100D01*
X92609015Y-89442481D01*
X92490481Y-89561015D01*
X92351100Y-89654147D01*
X92196228Y-89718297D01*
X92031816Y-89751000D01*
X91864184Y-89751000D01*
X91699772Y-89718297D01*
X91544900Y-89654147D01*
X91405519Y-89561015D01*
X91286985Y-89442481D01*
X91193853Y-89303100D01*
X91129703Y-89148228D01*
X91097000Y-88983816D01*
X91097000Y-88816184D01*
X91129703Y-88651772D01*
X91193853Y-88496900D01*
X91286985Y-88357519D01*
X91405519Y-88238985D01*
X91544900Y-88145853D01*
X91699772Y-88081703D01*
X91864184Y-88049000D01*
X92031816Y-88049000D01*
X92196228Y-88081703D01*
G37*
G36*
X76313512Y-86733927D02*
G01*
X76462812Y-86763624D01*
X76626784Y-86831544D01*
X76774354Y-86930147D01*
X76899853Y-87055646D01*
X76998456Y-87203216D01*
X77066376Y-87367188D01*
X77101000Y-87541259D01*
X77101000Y-87718741D01*
X77066376Y-87892812D01*
X76998456Y-88056784D01*
X76899853Y-88204354D01*
X76774354Y-88329853D01*
X76626784Y-88428456D01*
X76462812Y-88496376D01*
X76313512Y-88526073D01*
X76288742Y-88531000D01*
X76111258Y-88531000D01*
X76086488Y-88526073D01*
X75937188Y-88496376D01*
X75773216Y-88428456D01*
X75625646Y-88329853D01*
X75500147Y-88204354D01*
X75401544Y-88056784D01*
X75333624Y-87892812D01*
X75299000Y-87718741D01*
X75299000Y-87541259D01*
X75333624Y-87367188D01*
X75401544Y-87203216D01*
X75500147Y-87055646D01*
X75625646Y-86930147D01*
X75773216Y-86831544D01*
X75937188Y-86763624D01*
X76086488Y-86733927D01*
X76111258Y-86729000D01*
X76288742Y-86729000D01*
X76313512Y-86733927D01*
G37*
G36*
X73773512Y-86733927D02*
G01*
X73922812Y-86763624D01*
X74086784Y-86831544D01*
X74234354Y-86930147D01*
X74359853Y-87055646D01*
X74458456Y-87203216D01*
X74526376Y-87367188D01*
X74561000Y-87541259D01*
X74561000Y-87718741D01*
X74526376Y-87892812D01*
X74458456Y-88056784D01*
X74359853Y-88204354D01*
X74234354Y-88329853D01*
X74086784Y-88428456D01*
X73922812Y-88496376D01*
X73773512Y-88526073D01*
X73748742Y-88531000D01*
X73571258Y-88531000D01*
X73546488Y-88526073D01*
X73397188Y-88496376D01*
X73233216Y-88428456D01*
X73085646Y-88329853D01*
X72960147Y-88204354D01*
X72861544Y-88056784D01*
X72793624Y-87892812D01*
X72759000Y-87718741D01*
X72759000Y-87541259D01*
X72793624Y-87367188D01*
X72861544Y-87203216D01*
X72960147Y-87055646D01*
X73085646Y-86930147D01*
X73233216Y-86831544D01*
X73397188Y-86763624D01*
X73546488Y-86733927D01*
X73571258Y-86729000D01*
X73748742Y-86729000D01*
X73773512Y-86733927D01*
G37*
G36*
X145854823Y-86791313D02*
G01*
X146015242Y-86839976D01*
X146147906Y-86910886D01*
X146163078Y-86918996D01*
X146292659Y-87025341D01*
X146399004Y-87154922D01*
X146399005Y-87154924D01*
X146478024Y-87302758D01*
X146526687Y-87463177D01*
X146543117Y-87630000D01*
X146526687Y-87796823D01*
X146478024Y-87957242D01*
X146411498Y-88081703D01*
X146399004Y-88105078D01*
X146292659Y-88234659D01*
X146163078Y-88341004D01*
X146163076Y-88341005D01*
X146015242Y-88420024D01*
X145854823Y-88468687D01*
X145729804Y-88481000D01*
X144846196Y-88481000D01*
X144721177Y-88468687D01*
X144560758Y-88420024D01*
X144412924Y-88341005D01*
X144412922Y-88341004D01*
X144283341Y-88234659D01*
X144176996Y-88105078D01*
X144164502Y-88081703D01*
X144097976Y-87957242D01*
X144049313Y-87796823D01*
X144032883Y-87630000D01*
X144049313Y-87463177D01*
X144097976Y-87302758D01*
X144176995Y-87154924D01*
X144176996Y-87154922D01*
X144283341Y-87025341D01*
X144412922Y-86918996D01*
X144428094Y-86910886D01*
X144560758Y-86839976D01*
X144721177Y-86791313D01*
X144846196Y-86779000D01*
X145729804Y-86779000D01*
X145854823Y-86791313D01*
G37*
G36*
X130614823Y-86791313D02*
G01*
X130775242Y-86839976D01*
X130907906Y-86910886D01*
X130923078Y-86918996D01*
X131052659Y-87025341D01*
X131159004Y-87154922D01*
X131159005Y-87154924D01*
X131238024Y-87302758D01*
X131286687Y-87463177D01*
X131303117Y-87630000D01*
X131286687Y-87796823D01*
X131238024Y-87957242D01*
X131171498Y-88081703D01*
X131159004Y-88105078D01*
X131052659Y-88234659D01*
X130923078Y-88341004D01*
X130923076Y-88341005D01*
X130775242Y-88420024D01*
X130614823Y-88468687D01*
X130489804Y-88481000D01*
X129606196Y-88481000D01*
X129481177Y-88468687D01*
X129320758Y-88420024D01*
X129172924Y-88341005D01*
X129172922Y-88341004D01*
X129043341Y-88234659D01*
X128936996Y-88105078D01*
X128924502Y-88081703D01*
X128857976Y-87957242D01*
X128809313Y-87796823D01*
X128792883Y-87630000D01*
X128809313Y-87463177D01*
X128857976Y-87302758D01*
X128936995Y-87154924D01*
X128936996Y-87154922D01*
X129043341Y-87025341D01*
X129172922Y-86918996D01*
X129188094Y-86910886D01*
X129320758Y-86839976D01*
X129481177Y-86791313D01*
X129606196Y-86779000D01*
X130489804Y-86779000D01*
X130614823Y-86791313D01*
G37*
G36*
X103182823Y-86791313D02*
G01*
X103343242Y-86839976D01*
X103475906Y-86910886D01*
X103491078Y-86918996D01*
X103620659Y-87025341D01*
X103727004Y-87154922D01*
X103727005Y-87154924D01*
X103806024Y-87302758D01*
X103854687Y-87463177D01*
X103871117Y-87630000D01*
X103854687Y-87796823D01*
X103806024Y-87957242D01*
X103739498Y-88081703D01*
X103727004Y-88105078D01*
X103620659Y-88234659D01*
X103491078Y-88341004D01*
X103491076Y-88341005D01*
X103343242Y-88420024D01*
X103182823Y-88468687D01*
X103057804Y-88481000D01*
X102174196Y-88481000D01*
X102049177Y-88468687D01*
X101888758Y-88420024D01*
X101740924Y-88341005D01*
X101740922Y-88341004D01*
X101611341Y-88234659D01*
X101504996Y-88105078D01*
X101492502Y-88081703D01*
X101425976Y-87957242D01*
X101377313Y-87796823D01*
X101360883Y-87630000D01*
X101377313Y-87463177D01*
X101425976Y-87302758D01*
X101504995Y-87154924D01*
X101504996Y-87154922D01*
X101611341Y-87025341D01*
X101740922Y-86918996D01*
X101756094Y-86910886D01*
X101888758Y-86839976D01*
X102049177Y-86791313D01*
X102174196Y-86779000D01*
X103057804Y-86779000D01*
X103182823Y-86791313D01*
G37*
G36*
X118422823Y-86791313D02*
G01*
X118583242Y-86839976D01*
X118715906Y-86910886D01*
X118731078Y-86918996D01*
X118860659Y-87025341D01*
X118967004Y-87154922D01*
X118967005Y-87154924D01*
X119046024Y-87302758D01*
X119094687Y-87463177D01*
X119111117Y-87630000D01*
X119094687Y-87796823D01*
X119046024Y-87957242D01*
X118979498Y-88081703D01*
X118967004Y-88105078D01*
X118860659Y-88234659D01*
X118731078Y-88341004D01*
X118731076Y-88341005D01*
X118583242Y-88420024D01*
X118422823Y-88468687D01*
X118297804Y-88481000D01*
X117414196Y-88481000D01*
X117289177Y-88468687D01*
X117128758Y-88420024D01*
X116980924Y-88341005D01*
X116980922Y-88341004D01*
X116851341Y-88234659D01*
X116744996Y-88105078D01*
X116732502Y-88081703D01*
X116665976Y-87957242D01*
X116617313Y-87796823D01*
X116600883Y-87630000D01*
X116617313Y-87463177D01*
X116665976Y-87302758D01*
X116744995Y-87154924D01*
X116744996Y-87154922D01*
X116851341Y-87025341D01*
X116980922Y-86918996D01*
X116996094Y-86910886D01*
X117128758Y-86839976D01*
X117289177Y-86791313D01*
X117414196Y-86779000D01*
X118297804Y-86779000D01*
X118422823Y-86791313D01*
G37*
G36*
X76313512Y-84193927D02*
G01*
X76462812Y-84223624D01*
X76626784Y-84291544D01*
X76774354Y-84390147D01*
X76899853Y-84515646D01*
X76998456Y-84663216D01*
X77066376Y-84827188D01*
X77101000Y-85001259D01*
X77101000Y-85178741D01*
X77066376Y-85352812D01*
X76998456Y-85516784D01*
X76899853Y-85664354D01*
X76774354Y-85789853D01*
X76626784Y-85888456D01*
X76462812Y-85956376D01*
X76313512Y-85986073D01*
X76288742Y-85991000D01*
X76111258Y-85991000D01*
X76086488Y-85986073D01*
X75937188Y-85956376D01*
X75773216Y-85888456D01*
X75625646Y-85789853D01*
X75500147Y-85664354D01*
X75401544Y-85516784D01*
X75333624Y-85352812D01*
X75299000Y-85178741D01*
X75299000Y-85001259D01*
X75333624Y-84827188D01*
X75401544Y-84663216D01*
X75500147Y-84515646D01*
X75625646Y-84390147D01*
X75773216Y-84291544D01*
X75937188Y-84223624D01*
X76086488Y-84193927D01*
X76111258Y-84189000D01*
X76288742Y-84189000D01*
X76313512Y-84193927D01*
G37*
G36*
X73773512Y-84193927D02*
G01*
X73922812Y-84223624D01*
X74086784Y-84291544D01*
X74234354Y-84390147D01*
X74359853Y-84515646D01*
X74458456Y-84663216D01*
X74526376Y-84827188D01*
X74561000Y-85001259D01*
X74561000Y-85178741D01*
X74526376Y-85352812D01*
X74458456Y-85516784D01*
X74359853Y-85664354D01*
X74234354Y-85789853D01*
X74086784Y-85888456D01*
X73922812Y-85956376D01*
X73773512Y-85986073D01*
X73748742Y-85991000D01*
X73571258Y-85991000D01*
X73546488Y-85986073D01*
X73397188Y-85956376D01*
X73233216Y-85888456D01*
X73085646Y-85789853D01*
X72960147Y-85664354D01*
X72861544Y-85516784D01*
X72793624Y-85352812D01*
X72759000Y-85178741D01*
X72759000Y-85001259D01*
X72793624Y-84827188D01*
X72861544Y-84663216D01*
X72960147Y-84515646D01*
X73085646Y-84390147D01*
X73233216Y-84291544D01*
X73397188Y-84223624D01*
X73546488Y-84193927D01*
X73571258Y-84189000D01*
X73748742Y-84189000D01*
X73773512Y-84193927D01*
G37*
G36*
X103182823Y-84251313D02*
G01*
X103343242Y-84299976D01*
X103475906Y-84370886D01*
X103491078Y-84378996D01*
X103620659Y-84485341D01*
X103727004Y-84614922D01*
X103727005Y-84614924D01*
X103806024Y-84762758D01*
X103854687Y-84923177D01*
X103871117Y-85090000D01*
X103854687Y-85256823D01*
X103806024Y-85417242D01*
X103735114Y-85549906D01*
X103727004Y-85565078D01*
X103620659Y-85694659D01*
X103491078Y-85801004D01*
X103491076Y-85801005D01*
X103343242Y-85880024D01*
X103182823Y-85928687D01*
X103057804Y-85941000D01*
X102174196Y-85941000D01*
X102049177Y-85928687D01*
X101888758Y-85880024D01*
X101740924Y-85801005D01*
X101740922Y-85801004D01*
X101611341Y-85694659D01*
X101504996Y-85565078D01*
X101496886Y-85549906D01*
X101425976Y-85417242D01*
X101377313Y-85256823D01*
X101360883Y-85090000D01*
X101377313Y-84923177D01*
X101425976Y-84762758D01*
X101504995Y-84614924D01*
X101504996Y-84614922D01*
X101611341Y-84485341D01*
X101740922Y-84378996D01*
X101756094Y-84370886D01*
X101888758Y-84299976D01*
X102049177Y-84251313D01*
X102174196Y-84239000D01*
X103057804Y-84239000D01*
X103182823Y-84251313D01*
G37*
G36*
X118422823Y-84251313D02*
G01*
X118583242Y-84299976D01*
X118715906Y-84370886D01*
X118731078Y-84378996D01*
X118860659Y-84485341D01*
X118967004Y-84614922D01*
X118967005Y-84614924D01*
X119046024Y-84762758D01*
X119094687Y-84923177D01*
X119111117Y-85090000D01*
X119094687Y-85256823D01*
X119046024Y-85417242D01*
X118975114Y-85549906D01*
X118967004Y-85565078D01*
X118860659Y-85694659D01*
X118731078Y-85801004D01*
X118731076Y-85801005D01*
X118583242Y-85880024D01*
X118422823Y-85928687D01*
X118297804Y-85941000D01*
X117414196Y-85941000D01*
X117289177Y-85928687D01*
X117128758Y-85880024D01*
X116980924Y-85801005D01*
X116980922Y-85801004D01*
X116851341Y-85694659D01*
X116744996Y-85565078D01*
X116736886Y-85549906D01*
X116665976Y-85417242D01*
X116617313Y-85256823D01*
X116600883Y-85090000D01*
X116617313Y-84923177D01*
X116665976Y-84762758D01*
X116744995Y-84614924D01*
X116744996Y-84614922D01*
X116851341Y-84485341D01*
X116980922Y-84378996D01*
X116996094Y-84370886D01*
X117128758Y-84299976D01*
X117289177Y-84251313D01*
X117414196Y-84239000D01*
X118297804Y-84239000D01*
X118422823Y-84251313D01*
G37*
G36*
X130614823Y-84251313D02*
G01*
X130775242Y-84299976D01*
X130907906Y-84370886D01*
X130923078Y-84378996D01*
X131052659Y-84485341D01*
X131159004Y-84614922D01*
X131159005Y-84614924D01*
X131238024Y-84762758D01*
X131286687Y-84923177D01*
X131303117Y-85090000D01*
X131286687Y-85256823D01*
X131238024Y-85417242D01*
X131167114Y-85549906D01*
X131159004Y-85565078D01*
X131052659Y-85694659D01*
X130923078Y-85801004D01*
X130923076Y-85801005D01*
X130775242Y-85880024D01*
X130614823Y-85928687D01*
X130489804Y-85941000D01*
X129606196Y-85941000D01*
X129481177Y-85928687D01*
X129320758Y-85880024D01*
X129172924Y-85801005D01*
X129172922Y-85801004D01*
X129043341Y-85694659D01*
X128936996Y-85565078D01*
X128928886Y-85549906D01*
X128857976Y-85417242D01*
X128809313Y-85256823D01*
X128792883Y-85090000D01*
X128809313Y-84923177D01*
X128857976Y-84762758D01*
X128936995Y-84614924D01*
X128936996Y-84614922D01*
X129043341Y-84485341D01*
X129172922Y-84378996D01*
X129188094Y-84370886D01*
X129320758Y-84299976D01*
X129481177Y-84251313D01*
X129606196Y-84239000D01*
X130489804Y-84239000D01*
X130614823Y-84251313D01*
G37*
G36*
X145854823Y-84251313D02*
G01*
X146015242Y-84299976D01*
X146147906Y-84370886D01*
X146163078Y-84378996D01*
X146292659Y-84485341D01*
X146399004Y-84614922D01*
X146399005Y-84614924D01*
X146478024Y-84762758D01*
X146526687Y-84923177D01*
X146543117Y-85090000D01*
X146526687Y-85256823D01*
X146478024Y-85417242D01*
X146407114Y-85549906D01*
X146399004Y-85565078D01*
X146292659Y-85694659D01*
X146163078Y-85801004D01*
X146163076Y-85801005D01*
X146015242Y-85880024D01*
X145854823Y-85928687D01*
X145729804Y-85941000D01*
X144846196Y-85941000D01*
X144721177Y-85928687D01*
X144560758Y-85880024D01*
X144412924Y-85801005D01*
X144412922Y-85801004D01*
X144283341Y-85694659D01*
X144176996Y-85565078D01*
X144168886Y-85549906D01*
X144097976Y-85417242D01*
X144049313Y-85256823D01*
X144032883Y-85090000D01*
X144049313Y-84923177D01*
X144097976Y-84762758D01*
X144176995Y-84614924D01*
X144176996Y-84614922D01*
X144283341Y-84485341D01*
X144412922Y-84378996D01*
X144428094Y-84370886D01*
X144560758Y-84299976D01*
X144721177Y-84251313D01*
X144846196Y-84239000D01*
X145729804Y-84239000D01*
X145854823Y-84251313D01*
G37*
G36*
X76313512Y-81653927D02*
G01*
X76462812Y-81683624D01*
X76626784Y-81751544D01*
X76774354Y-81850147D01*
X76899853Y-81975646D01*
X76998456Y-82123216D01*
X77066376Y-82287188D01*
X77101000Y-82461259D01*
X77101000Y-82638741D01*
X77066376Y-82812812D01*
X76998456Y-82976784D01*
X76899853Y-83124354D01*
X76774354Y-83249853D01*
X76626784Y-83348456D01*
X76462812Y-83416376D01*
X76313512Y-83446073D01*
X76288742Y-83451000D01*
X76111258Y-83451000D01*
X76086488Y-83446073D01*
X75937188Y-83416376D01*
X75773216Y-83348456D01*
X75625646Y-83249853D01*
X75500147Y-83124354D01*
X75401544Y-82976784D01*
X75333624Y-82812812D01*
X75299000Y-82638741D01*
X75299000Y-82461259D01*
X75333624Y-82287188D01*
X75401544Y-82123216D01*
X75500147Y-81975646D01*
X75625646Y-81850147D01*
X75773216Y-81751544D01*
X75937188Y-81683624D01*
X76086488Y-81653927D01*
X76111258Y-81649000D01*
X76288742Y-81649000D01*
X76313512Y-81653927D01*
G37*
G36*
X73773512Y-81653927D02*
G01*
X73922812Y-81683624D01*
X74086784Y-81751544D01*
X74234354Y-81850147D01*
X74359853Y-81975646D01*
X74458456Y-82123216D01*
X74526376Y-82287188D01*
X74561000Y-82461259D01*
X74561000Y-82638741D01*
X74526376Y-82812812D01*
X74458456Y-82976784D01*
X74359853Y-83124354D01*
X74234354Y-83249853D01*
X74086784Y-83348456D01*
X73922812Y-83416376D01*
X73773512Y-83446073D01*
X73748742Y-83451000D01*
X73571258Y-83451000D01*
X73546488Y-83446073D01*
X73397188Y-83416376D01*
X73233216Y-83348456D01*
X73085646Y-83249853D01*
X72960147Y-83124354D01*
X72861544Y-82976784D01*
X72793624Y-82812812D01*
X72759000Y-82638741D01*
X72759000Y-82461259D01*
X72793624Y-82287188D01*
X72861544Y-82123216D01*
X72960147Y-81975646D01*
X73085646Y-81850147D01*
X73233216Y-81751544D01*
X73397188Y-81683624D01*
X73546488Y-81653927D01*
X73571258Y-81649000D01*
X73748742Y-81649000D01*
X73773512Y-81653927D01*
G37*
G36*
X118422823Y-81711313D02*
G01*
X118583242Y-81759976D01*
X118650361Y-81795852D01*
X118731078Y-81838996D01*
X118860659Y-81945341D01*
X118967004Y-82074922D01*
X118967005Y-82074924D01*
X119046024Y-82222758D01*
X119094687Y-82383177D01*
X119111117Y-82550000D01*
X119094687Y-82716823D01*
X119046024Y-82877242D01*
X118975114Y-83009906D01*
X118967004Y-83025078D01*
X118860659Y-83154659D01*
X118731078Y-83261004D01*
X118731076Y-83261005D01*
X118583242Y-83340024D01*
X118422823Y-83388687D01*
X118297804Y-83401000D01*
X117414196Y-83401000D01*
X117289177Y-83388687D01*
X117128758Y-83340024D01*
X116980924Y-83261005D01*
X116980922Y-83261004D01*
X116851341Y-83154659D01*
X116744996Y-83025078D01*
X116736886Y-83009906D01*
X116665976Y-82877242D01*
X116617313Y-82716823D01*
X116600883Y-82550000D01*
X116617313Y-82383177D01*
X116665976Y-82222758D01*
X116744995Y-82074924D01*
X116744996Y-82074922D01*
X116851341Y-81945341D01*
X116980922Y-81838996D01*
X117061639Y-81795852D01*
X117128758Y-81759976D01*
X117289177Y-81711313D01*
X117414196Y-81699000D01*
X118297804Y-81699000D01*
X118422823Y-81711313D01*
G37*
G36*
X131299000Y-83401000D02*
G01*
X128797000Y-83401000D01*
X128797000Y-81699000D01*
X131299000Y-81699000D01*
X131299000Y-83401000D01*
G37*
G36*
X103867000Y-83401000D02*
G01*
X101365000Y-83401000D01*
X101365000Y-81699000D01*
X103867000Y-81699000D01*
X103867000Y-83401000D01*
G37*
G36*
X154934228Y-81731703D02*
G01*
X155089100Y-81795853D01*
X155228481Y-81888985D01*
X155347015Y-82007519D01*
X155440147Y-82146900D01*
X155504297Y-82301772D01*
X155537000Y-82466184D01*
X155537000Y-82633816D01*
X155504297Y-82798228D01*
X155440147Y-82953100D01*
X155347015Y-83092481D01*
X155228481Y-83211015D01*
X155089100Y-83304147D01*
X154934228Y-83368297D01*
X154769816Y-83401000D01*
X154602184Y-83401000D01*
X154437772Y-83368297D01*
X154282900Y-83304147D01*
X154143519Y-83211015D01*
X154024985Y-83092481D01*
X153931853Y-82953100D01*
X153867703Y-82798228D01*
X153835000Y-82633816D01*
X153835000Y-82466184D01*
X153867703Y-82301772D01*
X153931853Y-82146900D01*
X154024985Y-82007519D01*
X154143519Y-81888985D01*
X154282900Y-81795853D01*
X154437772Y-81731703D01*
X154602184Y-81699000D01*
X154769816Y-81699000D01*
X154934228Y-81731703D01*
G37*
G36*
X162554228Y-81731703D02*
G01*
X162709100Y-81795853D01*
X162848481Y-81888985D01*
X162967015Y-82007519D01*
X163060147Y-82146900D01*
X163124297Y-82301772D01*
X163157000Y-82466184D01*
X163157000Y-82633816D01*
X163124297Y-82798228D01*
X163060147Y-82953100D01*
X162967015Y-83092481D01*
X162848481Y-83211015D01*
X162709100Y-83304147D01*
X162554228Y-83368297D01*
X162389816Y-83401000D01*
X162222184Y-83401000D01*
X162057772Y-83368297D01*
X161902900Y-83304147D01*
X161763519Y-83211015D01*
X161644985Y-83092481D01*
X161551853Y-82953100D01*
X161487703Y-82798228D01*
X161455000Y-82633816D01*
X161455000Y-82466184D01*
X161487703Y-82301772D01*
X161551853Y-82146900D01*
X161644985Y-82007519D01*
X161763519Y-81888985D01*
X161902900Y-81795853D01*
X162057772Y-81731703D01*
X162222184Y-81699000D01*
X162389816Y-81699000D01*
X162554228Y-81731703D01*
G37*
G36*
X145854823Y-81711313D02*
G01*
X146015242Y-81759976D01*
X146082361Y-81795852D01*
X146163078Y-81838996D01*
X146292659Y-81945341D01*
X146399004Y-82074922D01*
X146399005Y-82074924D01*
X146478024Y-82222758D01*
X146526687Y-82383177D01*
X146543117Y-82550000D01*
X146526687Y-82716823D01*
X146478024Y-82877242D01*
X146407114Y-83009906D01*
X146399004Y-83025078D01*
X146292659Y-83154659D01*
X146163078Y-83261004D01*
X146163076Y-83261005D01*
X146015242Y-83340024D01*
X145854823Y-83388687D01*
X145729804Y-83401000D01*
X144846196Y-83401000D01*
X144721177Y-83388687D01*
X144560758Y-83340024D01*
X144412924Y-83261005D01*
X144412922Y-83261004D01*
X144283341Y-83154659D01*
X144176996Y-83025078D01*
X144168886Y-83009906D01*
X144097976Y-82877242D01*
X144049313Y-82716823D01*
X144032883Y-82550000D01*
X144049313Y-82383177D01*
X144097976Y-82222758D01*
X144176995Y-82074924D01*
X144176996Y-82074922D01*
X144283341Y-81945341D01*
X144412922Y-81838996D01*
X144493639Y-81795852D01*
X144560758Y-81759976D01*
X144721177Y-81711313D01*
X144846196Y-81699000D01*
X145729804Y-81699000D01*
X145854823Y-81711313D01*
G37*
G36*
X73773512Y-79113927D02*
G01*
X73922812Y-79143624D01*
X74086784Y-79211544D01*
X74234354Y-79310147D01*
X74359853Y-79435646D01*
X74458456Y-79583216D01*
X74526376Y-79747188D01*
X74561000Y-79921259D01*
X74561000Y-80098741D01*
X74526376Y-80272812D01*
X74458456Y-80436784D01*
X74359853Y-80584354D01*
X74234354Y-80709853D01*
X74086784Y-80808456D01*
X73922812Y-80876376D01*
X73773512Y-80906073D01*
X73748742Y-80911000D01*
X73571258Y-80911000D01*
X73546488Y-80906073D01*
X73397188Y-80876376D01*
X73233216Y-80808456D01*
X73085646Y-80709853D01*
X72960147Y-80584354D01*
X72861544Y-80436784D01*
X72793624Y-80272812D01*
X72759000Y-80098741D01*
X72759000Y-79921259D01*
X72793624Y-79747188D01*
X72861544Y-79583216D01*
X72960147Y-79435646D01*
X73085646Y-79310147D01*
X73233216Y-79211544D01*
X73397188Y-79143624D01*
X73546488Y-79113927D01*
X73571258Y-79109000D01*
X73748742Y-79109000D01*
X73773512Y-79113927D01*
G37*
G36*
X76313512Y-79113927D02*
G01*
X76462812Y-79143624D01*
X76626784Y-79211544D01*
X76774354Y-79310147D01*
X76899853Y-79435646D01*
X76998456Y-79583216D01*
X77066376Y-79747188D01*
X77101000Y-79921259D01*
X77101000Y-80098741D01*
X77066376Y-80272812D01*
X76998456Y-80436784D01*
X76899853Y-80584354D01*
X76774354Y-80709853D01*
X76626784Y-80808456D01*
X76462812Y-80876376D01*
X76313512Y-80906073D01*
X76288742Y-80911000D01*
X76111258Y-80911000D01*
X76086488Y-80906073D01*
X75937188Y-80876376D01*
X75773216Y-80808456D01*
X75625646Y-80709853D01*
X75500147Y-80584354D01*
X75401544Y-80436784D01*
X75333624Y-80272812D01*
X75299000Y-80098741D01*
X75299000Y-79921259D01*
X75333624Y-79747188D01*
X75401544Y-79583216D01*
X75500147Y-79435646D01*
X75625646Y-79310147D01*
X75773216Y-79211544D01*
X75937188Y-79143624D01*
X76086488Y-79113927D01*
X76111258Y-79109000D01*
X76288742Y-79109000D01*
X76313512Y-79113927D01*
G37*
G36*
X113104228Y-77921703D02*
G01*
X113259100Y-77985853D01*
X113398481Y-78078985D01*
X113517015Y-78197519D01*
X113610147Y-78336900D01*
X113674297Y-78491772D01*
X113707000Y-78656184D01*
X113707000Y-78823816D01*
X113674297Y-78988228D01*
X113610147Y-79143100D01*
X113517015Y-79282481D01*
X113398481Y-79401015D01*
X113259100Y-79494147D01*
X113104228Y-79558297D01*
X112939816Y-79591000D01*
X112772184Y-79591000D01*
X112607772Y-79558297D01*
X112452900Y-79494147D01*
X112313519Y-79401015D01*
X112194985Y-79282481D01*
X112101853Y-79143100D01*
X112037703Y-78988228D01*
X112005000Y-78823816D01*
X112005000Y-78656184D01*
X112037703Y-78491772D01*
X112101853Y-78336900D01*
X112194985Y-78197519D01*
X112313519Y-78078985D01*
X112452900Y-77985853D01*
X112607772Y-77921703D01*
X112772184Y-77889000D01*
X112939816Y-77889000D01*
X113104228Y-77921703D01*
G37*
G36*
X118104228Y-77921703D02*
G01*
X118259100Y-77985853D01*
X118398481Y-78078985D01*
X118517015Y-78197519D01*
X118610147Y-78336900D01*
X118674297Y-78491772D01*
X118707000Y-78656184D01*
X118707000Y-78823816D01*
X118674297Y-78988228D01*
X118610147Y-79143100D01*
X118517015Y-79282481D01*
X118398481Y-79401015D01*
X118259100Y-79494147D01*
X118104228Y-79558297D01*
X117939816Y-79591000D01*
X117772184Y-79591000D01*
X117607772Y-79558297D01*
X117452900Y-79494147D01*
X117313519Y-79401015D01*
X117194985Y-79282481D01*
X117101853Y-79143100D01*
X117037703Y-78988228D01*
X117005000Y-78823816D01*
X117005000Y-78656184D01*
X117037703Y-78491772D01*
X117101853Y-78336900D01*
X117194985Y-78197519D01*
X117313519Y-78078985D01*
X117452900Y-77985853D01*
X117607772Y-77921703D01*
X117772184Y-77889000D01*
X117939816Y-77889000D01*
X118104228Y-77921703D01*
G37*
G36*
X140536228Y-77921703D02*
G01*
X140691100Y-77985853D01*
X140830481Y-78078985D01*
X140949015Y-78197519D01*
X141042147Y-78336900D01*
X141106297Y-78491772D01*
X141139000Y-78656184D01*
X141139000Y-78823816D01*
X141106297Y-78988228D01*
X141042147Y-79143100D01*
X140949015Y-79282481D01*
X140830481Y-79401015D01*
X140691100Y-79494147D01*
X140536228Y-79558297D01*
X140371816Y-79591000D01*
X140204184Y-79591000D01*
X140039772Y-79558297D01*
X139884900Y-79494147D01*
X139745519Y-79401015D01*
X139626985Y-79282481D01*
X139533853Y-79143100D01*
X139469703Y-78988228D01*
X139437000Y-78823816D01*
X139437000Y-78656184D01*
X139469703Y-78491772D01*
X139533853Y-78336900D01*
X139626985Y-78197519D01*
X139745519Y-78078985D01*
X139884900Y-77985853D01*
X140039772Y-77921703D01*
X140204184Y-77889000D01*
X140371816Y-77889000D01*
X140536228Y-77921703D01*
G37*
G36*
X96006228Y-77921703D02*
G01*
X96161100Y-77985853D01*
X96300481Y-78078985D01*
X96419015Y-78197519D01*
X96512147Y-78336900D01*
X96576297Y-78491772D01*
X96609000Y-78656184D01*
X96609000Y-78823816D01*
X96576297Y-78988228D01*
X96512147Y-79143100D01*
X96419015Y-79282481D01*
X96300481Y-79401015D01*
X96161100Y-79494147D01*
X96006228Y-79558297D01*
X95841816Y-79591000D01*
X95674184Y-79591000D01*
X95509772Y-79558297D01*
X95354900Y-79494147D01*
X95215519Y-79401015D01*
X95096985Y-79282481D01*
X95003853Y-79143100D01*
X94939703Y-78988228D01*
X94907000Y-78823816D01*
X94907000Y-78656184D01*
X94939703Y-78491772D01*
X95003853Y-78336900D01*
X95096985Y-78197519D01*
X95215519Y-78078985D01*
X95354900Y-77985853D01*
X95509772Y-77921703D01*
X95674184Y-77889000D01*
X95841816Y-77889000D01*
X96006228Y-77921703D01*
G37*
G36*
X145536228Y-77921703D02*
G01*
X145691100Y-77985853D01*
X145830481Y-78078985D01*
X145949015Y-78197519D01*
X146042147Y-78336900D01*
X146106297Y-78491772D01*
X146139000Y-78656184D01*
X146139000Y-78823816D01*
X146106297Y-78988228D01*
X146042147Y-79143100D01*
X145949015Y-79282481D01*
X145830481Y-79401015D01*
X145691100Y-79494147D01*
X145536228Y-79558297D01*
X145371816Y-79591000D01*
X145204184Y-79591000D01*
X145039772Y-79558297D01*
X144884900Y-79494147D01*
X144745519Y-79401015D01*
X144626985Y-79282481D01*
X144533853Y-79143100D01*
X144469703Y-78988228D01*
X144437000Y-78823816D01*
X144437000Y-78656184D01*
X144469703Y-78491772D01*
X144533853Y-78336900D01*
X144626985Y-78197519D01*
X144745519Y-78078985D01*
X144884900Y-77985853D01*
X145039772Y-77921703D01*
X145204184Y-77889000D01*
X145371816Y-77889000D01*
X145536228Y-77921703D01*
G37*
G36*
X92196228Y-77921703D02*
G01*
X92351100Y-77985853D01*
X92490481Y-78078985D01*
X92609015Y-78197519D01*
X92702147Y-78336900D01*
X92766297Y-78491772D01*
X92799000Y-78656184D01*
X92799000Y-78823816D01*
X92766297Y-78988228D01*
X92702147Y-79143100D01*
X92609015Y-79282481D01*
X92490481Y-79401015D01*
X92351100Y-79494147D01*
X92196228Y-79558297D01*
X92031816Y-79591000D01*
X91864184Y-79591000D01*
X91699772Y-79558297D01*
X91544900Y-79494147D01*
X91405519Y-79401015D01*
X91286985Y-79282481D01*
X91193853Y-79143100D01*
X91129703Y-78988228D01*
X91097000Y-78823816D01*
X91097000Y-78656184D01*
X91129703Y-78491772D01*
X91193853Y-78336900D01*
X91286985Y-78197519D01*
X91405519Y-78078985D01*
X91544900Y-77985853D01*
X91699772Y-77921703D01*
X91864184Y-77889000D01*
X92031816Y-77889000D01*
X92196228Y-77921703D01*
G37*
G36*
X73773512Y-76573927D02*
G01*
X73922812Y-76603624D01*
X74086784Y-76671544D01*
X74234354Y-76770147D01*
X74359853Y-76895646D01*
X74458456Y-77043216D01*
X74526376Y-77207188D01*
X74561000Y-77381259D01*
X74561000Y-77558741D01*
X74526376Y-77732812D01*
X74458456Y-77896784D01*
X74359853Y-78044354D01*
X74234354Y-78169853D01*
X74086784Y-78268456D01*
X73922812Y-78336376D01*
X73773512Y-78366073D01*
X73748742Y-78371000D01*
X73571258Y-78371000D01*
X73546488Y-78366073D01*
X73397188Y-78336376D01*
X73233216Y-78268456D01*
X73085646Y-78169853D01*
X72960147Y-78044354D01*
X72861544Y-77896784D01*
X72793624Y-77732812D01*
X72759000Y-77558741D01*
X72759000Y-77381259D01*
X72793624Y-77207188D01*
X72861544Y-77043216D01*
X72960147Y-76895646D01*
X73085646Y-76770147D01*
X73233216Y-76671544D01*
X73397188Y-76603624D01*
X73546488Y-76573927D01*
X73571258Y-76569000D01*
X73748742Y-76569000D01*
X73773512Y-76573927D01*
G37*
G36*
X76313512Y-76573927D02*
G01*
X76462812Y-76603624D01*
X76626784Y-76671544D01*
X76774354Y-76770147D01*
X76899853Y-76895646D01*
X76998456Y-77043216D01*
X77066376Y-77207188D01*
X77101000Y-77381259D01*
X77101000Y-77558741D01*
X77066376Y-77732812D01*
X76998456Y-77896784D01*
X76899853Y-78044354D01*
X76774354Y-78169853D01*
X76626784Y-78268456D01*
X76462812Y-78336376D01*
X76313512Y-78366073D01*
X76288742Y-78371000D01*
X76111258Y-78371000D01*
X76086488Y-78366073D01*
X75937188Y-78336376D01*
X75773216Y-78268456D01*
X75625646Y-78169853D01*
X75500147Y-78044354D01*
X75401544Y-77896784D01*
X75333624Y-77732812D01*
X75299000Y-77558741D01*
X75299000Y-77381259D01*
X75333624Y-77207188D01*
X75401544Y-77043216D01*
X75500147Y-76895646D01*
X75625646Y-76770147D01*
X75773216Y-76671544D01*
X75937188Y-76603624D01*
X76086488Y-76573927D01*
X76111258Y-76569000D01*
X76288742Y-76569000D01*
X76313512Y-76573927D01*
G37*
G36*
X76313512Y-74033927D02*
G01*
X76462812Y-74063624D01*
X76626784Y-74131544D01*
X76774354Y-74230147D01*
X76899853Y-74355646D01*
X76998456Y-74503216D01*
X77066376Y-74667188D01*
X77101000Y-74841259D01*
X77101000Y-75018741D01*
X77066376Y-75192812D01*
X76998456Y-75356784D01*
X76899853Y-75504354D01*
X76774354Y-75629853D01*
X76626784Y-75728456D01*
X76462812Y-75796376D01*
X76313512Y-75826073D01*
X76288742Y-75831000D01*
X76111258Y-75831000D01*
X76086488Y-75826073D01*
X75937188Y-75796376D01*
X75773216Y-75728456D01*
X75625646Y-75629853D01*
X75500147Y-75504354D01*
X75401544Y-75356784D01*
X75333624Y-75192812D01*
X75299000Y-75018741D01*
X75299000Y-74841259D01*
X75333624Y-74667188D01*
X75401544Y-74503216D01*
X75500147Y-74355646D01*
X75625646Y-74230147D01*
X75773216Y-74131544D01*
X75937188Y-74063624D01*
X76086488Y-74033927D01*
X76111258Y-74029000D01*
X76288742Y-74029000D01*
X76313512Y-74033927D01*
G37*
G36*
X74561000Y-75831000D02*
G01*
X72759000Y-75831000D01*
X72759000Y-74029000D01*
X74561000Y-74029000D01*
X74561000Y-75831000D01*
G37*
M02*
