M48
INCH,TZ
T1C0.0157
T2C0.0315
T3C0.0354
T4C0.0394
%
G90
G05
T1
X39622Y-44663
X41336Y-33069
T2
X56000Y-43500
X59000Y-43500
X40531Y-45500
X42500Y-45500
X49000Y-32500
X49000Y-33500
X49000Y-34500
X49000Y-35500
X49000Y-36500
X49000Y-37500
X49000Y-38500
X49000Y-39500
X49000Y-40500
X49000Y-41500
X49000Y-42500
X49000Y-43500
X52000Y-32500
X52000Y-33500
X52000Y-34500
X52000Y-35500
X52000Y-36500
X52000Y-37500
X52000Y-38500
X52000Y-39500
X52000Y-40500
X52000Y-41500
X52000Y-42500
X52000Y-43500
X38000Y-31000
X38000Y-35000
X56000Y-42000
X59000Y-42000
X56000Y-32500
X56000Y-36500
X49531Y-45500
X51500Y-45500
X59000Y-32500
X59000Y-36500
X40000Y-32500
X40000Y-33500
X40000Y-34500
X40000Y-35500
X40000Y-36500
X40000Y-37500
X40000Y-38500
X40000Y-39500
X40000Y-40500
X40000Y-41500
X40000Y-42500
X40000Y-43500
X43000Y-32500
X43000Y-33500
X43000Y-34500
X43000Y-35500
X43000Y-36500
X43000Y-37500
X43000Y-38500
X43000Y-39500
X43000Y-40500
X43000Y-41500
X43000Y-42500
X43000Y-43500
X36500Y-31000
X36500Y-35000
T3
X59000Y-39000
X60000Y-39000
X55000Y-39000
X56000Y-39000
T4
X38000Y-39000
X38000Y-40000
X29000Y-29500
X29000Y-30500
X29000Y-31500
X29000Y-32500
X29000Y-33500
X29000Y-34500
X29000Y-35500
X29000Y-36500
X29000Y-37500
X29000Y-38500
X29000Y-39500
X29000Y-40500
X29000Y-41500
X29000Y-42500
X29000Y-43500
X29000Y-44500
X29000Y-45500
X29000Y-46500
X30000Y-29500
X30000Y-30500
X30000Y-31500
X30000Y-32500
X30000Y-33500
X30000Y-34500
X30000Y-35500
X30000Y-36500
X30000Y-37500
X30000Y-38500
X30000Y-39500
X30000Y-40500
X30000Y-41500
X30000Y-42500
X30000Y-43500
X30000Y-44500
X30000Y-45500
X30000Y-46500
X38000Y-44000
X38000Y-45000
T0
M30
