G04 #@! TF.GenerationSoftware,KiCad,Pcbnew,(5.1.2)-1*
G04 #@! TF.CreationDate,2020-04-18T21:29:19+12:00*
G04 #@! TF.ProjectId,ALU_Tester,414c555f-5465-4737-9465-722e6b696361,rev?*
G04 #@! TF.SameCoordinates,Original*
G04 #@! TF.FileFunction,Copper,L1,Top*
G04 #@! TF.FilePolarity,Positive*
%FSLAX46Y46*%
G04 Gerber Fmt 4.6, Leading zero omitted, Abs format (unit mm)*
G04 Created by KiCad (PCBNEW (5.1.2)-1) date 2020-04-18 21:29:19*
%MOMM*%
%LPD*%
G04 APERTURE LIST*
%ADD10O,2.400000X1.600000*%
%ADD11R,2.400000X1.600000*%
%ADD12O,1.700000X1.700000*%
%ADD13R,1.700000X1.700000*%
%ADD14O,1.600000X1.600000*%
%ADD15C,1.600000*%
%ADD16C,1.800000*%
%ADD17R,1.800000X1.800000*%
%ADD18R,1.600000X1.600000*%
%ADD19C,0.800000*%
%ADD20C,0.650000*%
%ADD21C,0.250000*%
G04 APERTURE END LIST*
D10*
X132080000Y-82550000D03*
X124460000Y-110490000D03*
X132080000Y-85090000D03*
X124460000Y-107950000D03*
X132080000Y-87630000D03*
X124460000Y-105410000D03*
X132080000Y-90170000D03*
X124460000Y-102870000D03*
X132080000Y-92710000D03*
X124460000Y-100330000D03*
X132080000Y-95250000D03*
X124460000Y-97790000D03*
X132080000Y-97790000D03*
X124460000Y-95250000D03*
X132080000Y-100330000D03*
X124460000Y-92710000D03*
X132080000Y-102870000D03*
X124460000Y-90170000D03*
X132080000Y-105410000D03*
X124460000Y-87630000D03*
X132080000Y-107950000D03*
X124460000Y-85090000D03*
X132080000Y-110490000D03*
D11*
X124460000Y-82550000D03*
D10*
X109220000Y-82550000D03*
X101600000Y-110490000D03*
X109220000Y-85090000D03*
X101600000Y-107950000D03*
X109220000Y-87630000D03*
X101600000Y-105410000D03*
X109220000Y-90170000D03*
X101600000Y-102870000D03*
X109220000Y-92710000D03*
X101600000Y-100330000D03*
X109220000Y-95250000D03*
X101600000Y-97790000D03*
X109220000Y-97790000D03*
X101600000Y-95250000D03*
X109220000Y-100330000D03*
X101600000Y-92710000D03*
X109220000Y-102870000D03*
X101600000Y-90170000D03*
X109220000Y-105410000D03*
X101600000Y-87630000D03*
X109220000Y-107950000D03*
X101600000Y-85090000D03*
X109220000Y-110490000D03*
D11*
X101600000Y-82550000D03*
D12*
X96520000Y-111760000D03*
D13*
X96520000Y-114300000D03*
D14*
X142240000Y-92710000D03*
D15*
X142240000Y-82550000D03*
D14*
X149860000Y-92710000D03*
D15*
X149860000Y-82550000D03*
D14*
X96520000Y-88900000D03*
D15*
X96520000Y-78740000D03*
D14*
X92710000Y-88900000D03*
D15*
X92710000Y-78740000D03*
D12*
X96520000Y-99060000D03*
D13*
X96520000Y-101600000D03*
D12*
X76200000Y-118110000D03*
X73660000Y-118110000D03*
X76200000Y-115570000D03*
X73660000Y-115570000D03*
X76200000Y-113030000D03*
X73660000Y-113030000D03*
X76200000Y-110490000D03*
X73660000Y-110490000D03*
X76200000Y-107950000D03*
X73660000Y-107950000D03*
X76200000Y-105410000D03*
X73660000Y-105410000D03*
X76200000Y-102870000D03*
X73660000Y-102870000D03*
X76200000Y-100330000D03*
X73660000Y-100330000D03*
X76200000Y-97790000D03*
X73660000Y-97790000D03*
X76200000Y-95250000D03*
X73660000Y-95250000D03*
X76200000Y-92710000D03*
X73660000Y-92710000D03*
X76200000Y-90170000D03*
X73660000Y-90170000D03*
X76200000Y-87630000D03*
X73660000Y-87630000D03*
X76200000Y-85090000D03*
X73660000Y-85090000D03*
X76200000Y-82550000D03*
X73660000Y-82550000D03*
X76200000Y-80010000D03*
X73660000Y-80010000D03*
X76200000Y-77470000D03*
X73660000Y-77470000D03*
X76200000Y-74930000D03*
D13*
X73660000Y-74930000D03*
D16*
X142240000Y-99060000D03*
D17*
X139700000Y-99060000D03*
D16*
X149860000Y-99060000D03*
D17*
X152400000Y-99060000D03*
D14*
X149860000Y-110490000D03*
D18*
X142240000Y-110490000D03*
D14*
X149860000Y-106680000D03*
D18*
X142240000Y-106680000D03*
D15*
X102950000Y-115570000D03*
X107950000Y-115570000D03*
X125810000Y-115570000D03*
X130810000Y-115570000D03*
D19*
X100640700Y-113444100D03*
X104992500Y-83995200D03*
D20*
X102870000Y-118110000D02*
X125730000Y-118110000D01*
X96520000Y-118110000D02*
X102870000Y-118110000D01*
X125730000Y-118110000D02*
X151130000Y-118110000D01*
X151130000Y-118110000D02*
X152400000Y-116840000D01*
X152400000Y-116840000D02*
X152400000Y-99060000D01*
X124460000Y-110490000D02*
X124460000Y-114220000D01*
X124460000Y-114220000D02*
X125810000Y-115570000D01*
X101600000Y-110490000D02*
X101600000Y-114220000D01*
X101600000Y-114220000D02*
X102950000Y-115570000D01*
X102950000Y-115570000D02*
X102950000Y-118030000D01*
X102950000Y-118030000D02*
X102870000Y-118110000D01*
X125730000Y-118110000D02*
X125810000Y-118030000D01*
X125810000Y-118030000D02*
X125810000Y-115570000D01*
X76200000Y-118110000D02*
X96520000Y-118110000D01*
X96520000Y-114300000D02*
X96520000Y-118110000D01*
X73660000Y-118110000D02*
X76200000Y-118110000D01*
X109220000Y-82550000D02*
X109220000Y-81280000D01*
X76200000Y-74930000D02*
X88900000Y-74930000D01*
X88900000Y-74930000D02*
X92710000Y-78740000D01*
X73660000Y-74930000D02*
X76200000Y-74930000D01*
X96520000Y-78740000D02*
X92710000Y-78740000D01*
X96520000Y-78740000D02*
X106680000Y-78740000D01*
X106680000Y-78740000D02*
X109220000Y-81280000D01*
X109220000Y-81280000D02*
X109220000Y-81100000D01*
X109220000Y-81100000D02*
X110310000Y-80010000D01*
X110310000Y-80010000D02*
X130990000Y-80010000D01*
X130990000Y-80010000D02*
X132080000Y-81100000D01*
X132080000Y-81100000D02*
X132080000Y-82550000D01*
X132080000Y-82550000D02*
X142240000Y-82550000D01*
X149860000Y-82550000D02*
X142240000Y-82550000D01*
X149860000Y-99060000D02*
X149860000Y-106680000D01*
X149860000Y-92710000D02*
X149860000Y-99060000D01*
X149860000Y-110490000D02*
X149860000Y-106680000D01*
X132080000Y-107950000D02*
X133930000Y-107950000D01*
X133930000Y-107950000D02*
X135200000Y-106680000D01*
X135200000Y-106680000D02*
X142240000Y-106680000D01*
D21*
X109220000Y-107950000D02*
X110745300Y-107950000D01*
X141114700Y-110490000D02*
X139989400Y-109364700D01*
X139989400Y-109364700D02*
X129872800Y-109364700D01*
X129872800Y-109364700D02*
X127329500Y-106821400D01*
X127329500Y-106821400D02*
X111873900Y-106821400D01*
X111873900Y-106821400D02*
X110745300Y-107950000D01*
X142240000Y-110490000D02*
X141114700Y-110490000D01*
D20*
X142240000Y-99060000D02*
X142240000Y-92710000D01*
X132080000Y-102870000D02*
X137440000Y-102870000D01*
X137440000Y-102870000D02*
X139700000Y-100610000D01*
X139700000Y-100610000D02*
X139700000Y-99060000D01*
D21*
X124460000Y-87630000D02*
X122934700Y-87630000D01*
X101600000Y-87630000D02*
X103125300Y-87630000D01*
X103125300Y-87630000D02*
X104297500Y-86457800D01*
X104297500Y-86457800D02*
X121762500Y-86457800D01*
X121762500Y-86457800D02*
X122934700Y-87630000D01*
X101600000Y-90170000D02*
X106197900Y-90170000D01*
X106197900Y-90170000D02*
X107332100Y-89035800D01*
X107332100Y-89035800D02*
X121800500Y-89035800D01*
X121800500Y-89035800D02*
X122934700Y-90170000D01*
X124460000Y-90170000D02*
X122934700Y-90170000D01*
X124460000Y-92710000D02*
X122934700Y-92710000D01*
X101600000Y-92710000D02*
X103125300Y-92710000D01*
X103125300Y-92710000D02*
X104264900Y-91570400D01*
X104264900Y-91570400D02*
X121795100Y-91570400D01*
X121795100Y-91570400D02*
X122934700Y-92710000D01*
X124460000Y-95250000D02*
X122934700Y-95250000D01*
X101600000Y-95250000D02*
X103125300Y-95250000D01*
X103125300Y-95250000D02*
X104300500Y-96425200D01*
X104300500Y-96425200D02*
X121759500Y-96425200D01*
X121759500Y-96425200D02*
X122934700Y-95250000D01*
X77375300Y-105410000D02*
X84900700Y-112935400D01*
X84900700Y-112935400D02*
X100132000Y-112935400D01*
X100132000Y-112935400D02*
X100640700Y-113444100D01*
X76200000Y-105410000D02*
X77375300Y-105410000D01*
X124460000Y-107950000D02*
X122934700Y-107950000D01*
X73660000Y-105410000D02*
X74835300Y-105410000D01*
X74835300Y-105410000D02*
X74835300Y-105042700D01*
X74835300Y-105042700D02*
X75653700Y-104224300D01*
X75653700Y-104224300D02*
X77375500Y-104224300D01*
X77375500Y-104224300D02*
X82250500Y-109099300D01*
X82250500Y-109099300D02*
X121785400Y-109099300D01*
X121785400Y-109099300D02*
X122934700Y-107950000D01*
X122934700Y-102870000D02*
X119494600Y-106310100D01*
X119494600Y-106310100D02*
X111748300Y-106310100D01*
X111748300Y-106310100D02*
X111518300Y-106540100D01*
X111518300Y-106540100D02*
X85488500Y-106540100D01*
X85488500Y-106540100D02*
X78098300Y-99149900D01*
X78098300Y-99149900D02*
X73149400Y-99149900D01*
X73149400Y-99149900D02*
X72484700Y-99814600D01*
X72484700Y-99814600D02*
X72484700Y-100886800D01*
X72484700Y-100886800D02*
X73292600Y-101694700D01*
X73292600Y-101694700D02*
X73660000Y-101694700D01*
X73660000Y-102870000D02*
X73660000Y-101694700D01*
X124460000Y-102870000D02*
X122934700Y-102870000D01*
X101600000Y-107950000D02*
X86159800Y-107950000D01*
X86159800Y-107950000D02*
X79715100Y-101505300D01*
X79715100Y-101505300D02*
X75643200Y-101505300D01*
X75643200Y-101505300D02*
X74835300Y-100697400D01*
X74835300Y-100697400D02*
X74835300Y-100330000D01*
X73660000Y-100330000D02*
X74835300Y-100330000D01*
X101600000Y-105410000D02*
X84995300Y-105410000D01*
X84995300Y-105410000D02*
X77375300Y-97790000D01*
X76200000Y-97790000D02*
X77375300Y-97790000D01*
X73660000Y-97790000D02*
X74835300Y-97790000D01*
X74835300Y-97790000D02*
X74835300Y-97422700D01*
X74835300Y-97422700D02*
X75649200Y-96608800D01*
X75649200Y-96608800D02*
X87067100Y-96608800D01*
X87067100Y-96608800D02*
X93328300Y-102870000D01*
X93328300Y-102870000D02*
X101600000Y-102870000D01*
X77375300Y-95250000D02*
X95540000Y-95250000D01*
X95540000Y-95250000D02*
X99231200Y-98941200D01*
X99231200Y-98941200D02*
X121108600Y-98941200D01*
X121108600Y-98941200D02*
X123399500Y-96650300D01*
X123399500Y-96650300D02*
X129415000Y-96650300D01*
X129415000Y-96650300D02*
X130554700Y-97790000D01*
X76200000Y-95250000D02*
X77375300Y-95250000D01*
X132080000Y-97790000D02*
X130554700Y-97790000D01*
X76200000Y-90170000D02*
X77375300Y-90170000D01*
X77375300Y-90170000D02*
X78143500Y-90938200D01*
X78143500Y-90938200D02*
X93394000Y-90938200D01*
X93394000Y-90938200D02*
X98975800Y-96520000D01*
X98975800Y-96520000D02*
X102769800Y-96520000D01*
X102769800Y-96520000D02*
X104039800Y-97790000D01*
X104039800Y-97790000D02*
X109220000Y-97790000D01*
X107694700Y-92710000D02*
X106545400Y-93859300D01*
X106545400Y-93859300D02*
X98648800Y-93859300D01*
X98648800Y-93859300D02*
X95277300Y-90487800D01*
X95277300Y-90487800D02*
X78966900Y-90487800D01*
X78966900Y-90487800D02*
X77470400Y-88991300D01*
X77470400Y-88991300D02*
X75646700Y-88991300D01*
X75646700Y-88991300D02*
X74835300Y-89802700D01*
X74835300Y-89802700D02*
X74835300Y-90170000D01*
X109220000Y-92710000D02*
X107694700Y-92710000D01*
X73660000Y-90170000D02*
X74835300Y-90170000D01*
X107694700Y-87630000D02*
X106424700Y-88900000D01*
X106424700Y-88900000D02*
X99268200Y-88900000D01*
X99268200Y-88900000D02*
X98130800Y-90037400D01*
X98130800Y-90037400D02*
X79782700Y-90037400D01*
X79782700Y-90037400D02*
X77375300Y-87630000D01*
X109220000Y-87630000D02*
X107694700Y-87630000D01*
X76200000Y-87630000D02*
X77375300Y-87630000D01*
X76200000Y-85090000D02*
X77375300Y-85090000D01*
X77375300Y-85090000D02*
X78518000Y-86232700D01*
X78518000Y-86232700D02*
X102755000Y-86232700D01*
X102755000Y-86232700D02*
X104992500Y-83995200D01*
X130554700Y-85090000D02*
X129140100Y-83675400D01*
X129140100Y-83675400D02*
X107593100Y-83675400D01*
X107593100Y-83675400D02*
X103833900Y-79916200D01*
X103833900Y-79916200D02*
X91189400Y-79916200D01*
X91189400Y-79916200D02*
X87527000Y-76253800D01*
X87527000Y-76253800D02*
X73166000Y-76253800D01*
X73166000Y-76253800D02*
X72461000Y-76958800D01*
X72461000Y-76958800D02*
X72461000Y-80474500D01*
X72461000Y-80474500D02*
X73361200Y-81374700D01*
X73361200Y-81374700D02*
X74216800Y-81374700D01*
X74216800Y-81374700D02*
X75024700Y-82182600D01*
X75024700Y-82182600D02*
X75024700Y-82550000D01*
X132080000Y-85090000D02*
X130554700Y-85090000D01*
X76200000Y-82550000D02*
X75024700Y-82550000D01*
X107694700Y-85090000D02*
X103116800Y-80512100D01*
X103116800Y-80512100D02*
X80417400Y-80512100D01*
X80417400Y-80512100D02*
X77375300Y-77470000D01*
X109220000Y-85090000D02*
X107694700Y-85090000D01*
X76200000Y-77470000D02*
X77375300Y-77470000D01*
X73660000Y-77470000D02*
X74835300Y-77470000D01*
X74835300Y-77470000D02*
X74835300Y-77837400D01*
X74835300Y-77837400D02*
X75643200Y-78645300D01*
X75643200Y-78645300D02*
X76583600Y-78645300D01*
X76583600Y-78645300D02*
X83028300Y-85090000D01*
X83028300Y-85090000D02*
X101600000Y-85090000D01*
X124460000Y-100330000D02*
X122934700Y-100330000D01*
X101600000Y-100330000D02*
X103125300Y-100330000D01*
X103125300Y-100330000D02*
X106804700Y-104009400D01*
X106804700Y-104009400D02*
X119255300Y-104009400D01*
X119255300Y-104009400D02*
X122934700Y-100330000D01*
X122934700Y-97790000D02*
X117854700Y-102870000D01*
X117854700Y-102870000D02*
X109220000Y-102870000D01*
X124460000Y-97790000D02*
X122934700Y-97790000D01*
M02*
