M48
INCH,TZ
T1C0.0157
T2C0.0315
T3C0.0354
T4C0.0394
%
G90
G05
T1
X33786Y-36000
X36776Y-38992
T2
X60900Y-43500
X63900Y-43500
X37700Y-31000
X37700Y-35000
X51200Y-32500
X51200Y-33500
X51200Y-34500
X51200Y-35500
X51200Y-36500
X51200Y-37500
X51200Y-38500
X51200Y-39500
X51200Y-40500
X51200Y-41500
X51200Y-42500
X51200Y-43500
X57200Y-32500
X57200Y-33500
X57200Y-34500
X57200Y-35500
X57200Y-36500
X57200Y-37500
X57200Y-38500
X57200Y-39500
X57200Y-40500
X57200Y-41500
X57200Y-42500
X57200Y-43500
X36200Y-31000
X36200Y-35000
X55231Y-31000
X57200Y-31000
X40400Y-32500
X40400Y-33500
X40400Y-34500
X40400Y-35500
X40400Y-36500
X40400Y-37500
X40400Y-38500
X40400Y-39500
X40400Y-40500
X40400Y-41500
X40400Y-42500
X40400Y-43500
X46400Y-32500
X46400Y-33500
X46400Y-34500
X46400Y-35500
X46400Y-36500
X46400Y-37500
X46400Y-38500
X46400Y-39500
X46400Y-40500
X46400Y-41500
X46400Y-42500
X46400Y-43500
X44431Y-31000
X46400Y-31000
X63900Y-32500
X63900Y-36500
X60900Y-32500
X60900Y-36500
X60900Y-42000
X63900Y-42000
T3
X59900Y-39000
X60900Y-39000
X63900Y-39000
X64900Y-39000
T4
X36200Y-38500
X36200Y-39500
X29000Y-29500
X29000Y-30500
X29000Y-31500
X29000Y-32500
X29000Y-33500
X29000Y-34500
X29000Y-35500
X29000Y-36500
X29000Y-37500
X29000Y-38500
X29000Y-39500
X29000Y-40500
X29000Y-41500
X29000Y-42500
X29000Y-43500
X29000Y-44500
X29000Y-45500
X29000Y-46500
X30000Y-29500
X30000Y-30500
X30000Y-31500
X30000Y-32500
X30000Y-33500
X30000Y-34500
X30000Y-35500
X30000Y-36500
X30000Y-37500
X30000Y-38500
X30000Y-39500
X30000Y-40500
X30000Y-41500
X30000Y-42500
X30000Y-43500
X30000Y-44500
X30000Y-45500
X30000Y-46500
X36300Y-42500
X36300Y-43500
T0
M30
