G04 #@! TF.GenerationSoftware,KiCad,Pcbnew,(5.1.2)-1*
G04 #@! TF.CreationDate,2020-04-18T21:29:19+12:00*
G04 #@! TF.ProjectId,ALU_Tester,414c555f-5465-4737-9465-722e6b696361,rev?*
G04 #@! TF.SameCoordinates,Original*
G04 #@! TF.FileFunction,Legend,Top*
G04 #@! TF.FilePolarity,Positive*
%FSLAX46Y46*%
G04 Gerber Fmt 4.6, Leading zero omitted, Abs format (unit mm)*
G04 Created by KiCad (PCBNEW (5.1.2)-1) date 2020-04-18 21:29:19*
%MOMM*%
%LPD*%
G04 APERTURE LIST*
%ADD10C,0.120000*%
%ADD11C,0.150000*%
G04 APERTURE END LIST*
D10*
X171450000Y-124460000D02*
X171450000Y-71120000D01*
X69850000Y-124460000D02*
X171450000Y-124460000D01*
X69850000Y-71120000D02*
X69850000Y-124460000D01*
X69850000Y-71120000D02*
X171450000Y-71120000D01*
X130520000Y-81220000D02*
X129270000Y-81220000D01*
X130520000Y-111820000D02*
X130520000Y-81220000D01*
X126020000Y-111820000D02*
X130520000Y-111820000D01*
X126020000Y-81220000D02*
X126020000Y-111820000D01*
X127270000Y-81220000D02*
X126020000Y-81220000D01*
X129270000Y-81220000D02*
G75*
G02X127270000Y-81220000I-1000000J0D01*
G01*
X107660000Y-81220000D02*
X106410000Y-81220000D01*
X107660000Y-111820000D02*
X107660000Y-81220000D01*
X103160000Y-111820000D02*
X107660000Y-111820000D01*
X103160000Y-81220000D02*
X103160000Y-111820000D01*
X104410000Y-81220000D02*
X103160000Y-81220000D01*
X106410000Y-81220000D02*
G75*
G02X104410000Y-81220000I-1000000J0D01*
G01*
X96520000Y-115630000D02*
X95190000Y-115630000D01*
X95190000Y-115630000D02*
X95190000Y-114300000D01*
X95190000Y-113030000D02*
X95190000Y-110430000D01*
X97850000Y-110430000D02*
X95190000Y-110430000D01*
X97850000Y-113030000D02*
X97850000Y-110430000D01*
X97850000Y-113030000D02*
X95190000Y-113030000D01*
X142240000Y-91670000D02*
X142240000Y-90900000D01*
X142240000Y-83590000D02*
X142240000Y-84360000D01*
X143610000Y-90900000D02*
X143610000Y-84360000D01*
X140870000Y-90900000D02*
X143610000Y-90900000D01*
X140870000Y-84360000D02*
X140870000Y-90900000D01*
X143610000Y-84360000D02*
X140870000Y-84360000D01*
X149860000Y-91670000D02*
X149860000Y-90900000D01*
X149860000Y-83590000D02*
X149860000Y-84360000D01*
X151230000Y-90900000D02*
X151230000Y-84360000D01*
X148490000Y-90900000D02*
X151230000Y-90900000D01*
X148490000Y-84360000D02*
X148490000Y-90900000D01*
X151230000Y-84360000D02*
X148490000Y-84360000D01*
X96520000Y-87860000D02*
X96520000Y-87090000D01*
X96520000Y-79780000D02*
X96520000Y-80550000D01*
X97890000Y-87090000D02*
X97890000Y-80550000D01*
X95150000Y-87090000D02*
X97890000Y-87090000D01*
X95150000Y-80550000D02*
X95150000Y-87090000D01*
X97890000Y-80550000D02*
X95150000Y-80550000D01*
X92710000Y-87860000D02*
X92710000Y-87090000D01*
X92710000Y-79780000D02*
X92710000Y-80550000D01*
X94080000Y-87090000D02*
X94080000Y-80550000D01*
X91340000Y-87090000D02*
X94080000Y-87090000D01*
X91340000Y-80550000D02*
X91340000Y-87090000D01*
X94080000Y-80550000D02*
X91340000Y-80550000D01*
X97850000Y-102930000D02*
X96520000Y-102930000D01*
X97850000Y-101600000D02*
X97850000Y-102930000D01*
X97850000Y-100330000D02*
X95190000Y-100330000D01*
X95190000Y-100330000D02*
X95190000Y-97730000D01*
X97850000Y-100330000D02*
X97850000Y-97730000D01*
X97850000Y-97730000D02*
X95190000Y-97730000D01*
X72330000Y-73600000D02*
X73660000Y-73600000D01*
X72330000Y-74930000D02*
X72330000Y-73600000D01*
X74930000Y-73600000D02*
X77530000Y-73600000D01*
X74930000Y-76200000D02*
X74930000Y-73600000D01*
X72330000Y-76200000D02*
X74930000Y-76200000D01*
X77530000Y-73600000D02*
X77530000Y-119440000D01*
X72330000Y-76200000D02*
X72330000Y-119440000D01*
X72330000Y-119440000D02*
X77530000Y-119440000D01*
X138410000Y-97515000D02*
X138410000Y-100605000D01*
X143470000Y-99060000D02*
G75*
G03X143470000Y-99060000I-2500000J0D01*
G01*
X143960000Y-99059538D02*
G75*
G02X138410000Y-100604830I-2990000J-462D01*
G01*
X143960000Y-99060462D02*
G75*
G03X138410000Y-97515170I-2990000J462D01*
G01*
X153690000Y-100605000D02*
X153690000Y-97515000D01*
X153630000Y-99060000D02*
G75*
G03X153630000Y-99060000I-2500000J0D01*
G01*
X148140000Y-99060462D02*
G75*
G02X153690000Y-97515170I2990000J462D01*
G01*
X148140000Y-99059538D02*
G75*
G03X153690000Y-100604830I2990000J-462D01*
G01*
X144530000Y-109370000D02*
X144530000Y-111610000D01*
X144770000Y-109370000D02*
X144770000Y-111610000D01*
X144650000Y-109370000D02*
X144650000Y-111610000D01*
X148820000Y-110490000D02*
X148170000Y-110490000D01*
X143280000Y-110490000D02*
X143930000Y-110490000D01*
X148170000Y-109370000D02*
X143930000Y-109370000D01*
X148170000Y-111610000D02*
X148170000Y-109370000D01*
X143930000Y-111610000D02*
X148170000Y-111610000D01*
X143930000Y-109370000D02*
X143930000Y-111610000D01*
X144530000Y-105560000D02*
X144530000Y-107800000D01*
X144770000Y-105560000D02*
X144770000Y-107800000D01*
X144650000Y-105560000D02*
X144650000Y-107800000D01*
X148820000Y-106680000D02*
X148170000Y-106680000D01*
X143280000Y-106680000D02*
X143930000Y-106680000D01*
X148170000Y-105560000D02*
X143930000Y-105560000D01*
X148170000Y-107800000D02*
X148170000Y-105560000D01*
X143930000Y-107800000D02*
X148170000Y-107800000D01*
X143930000Y-105560000D02*
X143930000Y-107800000D01*
X101830000Y-116690000D02*
X101830000Y-114450000D01*
X109070000Y-116690000D02*
X109070000Y-114450000D01*
X109070000Y-114450000D02*
X101830000Y-114450000D01*
X109070000Y-116690000D02*
X101830000Y-116690000D01*
X124690000Y-116690000D02*
X124690000Y-114450000D01*
X131930000Y-116690000D02*
X131930000Y-114450000D01*
X131930000Y-114450000D02*
X124690000Y-114450000D01*
X131930000Y-116690000D02*
X124690000Y-116690000D01*
D11*
X127508095Y-79672380D02*
X127508095Y-80481904D01*
X127555714Y-80577142D01*
X127603333Y-80624761D01*
X127698571Y-80672380D01*
X127889047Y-80672380D01*
X127984285Y-80624761D01*
X128031904Y-80577142D01*
X128079523Y-80481904D01*
X128079523Y-79672380D01*
X128508095Y-79767619D02*
X128555714Y-79720000D01*
X128650952Y-79672380D01*
X128889047Y-79672380D01*
X128984285Y-79720000D01*
X129031904Y-79767619D01*
X129079523Y-79862857D01*
X129079523Y-79958095D01*
X129031904Y-80100952D01*
X128460476Y-80672380D01*
X129079523Y-80672380D01*
X104648095Y-79672380D02*
X104648095Y-80481904D01*
X104695714Y-80577142D01*
X104743333Y-80624761D01*
X104838571Y-80672380D01*
X105029047Y-80672380D01*
X105124285Y-80624761D01*
X105171904Y-80577142D01*
X105219523Y-80481904D01*
X105219523Y-79672380D01*
X106219523Y-80672380D02*
X105648095Y-80672380D01*
X105933809Y-80672380D02*
X105933809Y-79672380D01*
X105838571Y-79815238D01*
X105743333Y-79910476D01*
X105648095Y-79958095D01*
X95186666Y-117474761D02*
X95329523Y-117522380D01*
X95567619Y-117522380D01*
X95662857Y-117474761D01*
X95710476Y-117427142D01*
X95758095Y-117331904D01*
X95758095Y-117236666D01*
X95710476Y-117141428D01*
X95662857Y-117093809D01*
X95567619Y-117046190D01*
X95377142Y-116998571D01*
X95281904Y-116950952D01*
X95234285Y-116903333D01*
X95186666Y-116808095D01*
X95186666Y-116712857D01*
X95234285Y-116617619D01*
X95281904Y-116570000D01*
X95377142Y-116522380D01*
X95615238Y-116522380D01*
X95758095Y-116570000D01*
X96091428Y-116522380D02*
X96329523Y-117522380D01*
X96520000Y-116808095D01*
X96710476Y-117522380D01*
X96948571Y-116522380D01*
X97853333Y-117522380D02*
X97281904Y-117522380D01*
X97567619Y-117522380D02*
X97567619Y-116522380D01*
X97472380Y-116665238D01*
X97377142Y-116760476D01*
X97281904Y-116808095D01*
X145062380Y-87796666D02*
X144586190Y-88130000D01*
X145062380Y-88368095D02*
X144062380Y-88368095D01*
X144062380Y-87987142D01*
X144110000Y-87891904D01*
X144157619Y-87844285D01*
X144252857Y-87796666D01*
X144395714Y-87796666D01*
X144490952Y-87844285D01*
X144538571Y-87891904D01*
X144586190Y-87987142D01*
X144586190Y-88368095D01*
X144395714Y-86939523D02*
X145062380Y-86939523D01*
X144014761Y-87177619D02*
X144729047Y-87415714D01*
X144729047Y-86796666D01*
X152682380Y-87796666D02*
X152206190Y-88130000D01*
X152682380Y-88368095D02*
X151682380Y-88368095D01*
X151682380Y-87987142D01*
X151730000Y-87891904D01*
X151777619Y-87844285D01*
X151872857Y-87796666D01*
X152015714Y-87796666D01*
X152110952Y-87844285D01*
X152158571Y-87891904D01*
X152206190Y-87987142D01*
X152206190Y-88368095D01*
X151682380Y-87463333D02*
X151682380Y-86844285D01*
X152063333Y-87177619D01*
X152063333Y-87034761D01*
X152110952Y-86939523D01*
X152158571Y-86891904D01*
X152253809Y-86844285D01*
X152491904Y-86844285D01*
X152587142Y-86891904D01*
X152634761Y-86939523D01*
X152682380Y-87034761D01*
X152682380Y-87320476D01*
X152634761Y-87415714D01*
X152587142Y-87463333D01*
X99342380Y-83986666D02*
X98866190Y-84320000D01*
X99342380Y-84558095D02*
X98342380Y-84558095D01*
X98342380Y-84177142D01*
X98390000Y-84081904D01*
X98437619Y-84034285D01*
X98532857Y-83986666D01*
X98675714Y-83986666D01*
X98770952Y-84034285D01*
X98818571Y-84081904D01*
X98866190Y-84177142D01*
X98866190Y-84558095D01*
X98437619Y-83605714D02*
X98390000Y-83558095D01*
X98342380Y-83462857D01*
X98342380Y-83224761D01*
X98390000Y-83129523D01*
X98437619Y-83081904D01*
X98532857Y-83034285D01*
X98628095Y-83034285D01*
X98770952Y-83081904D01*
X99342380Y-83653333D01*
X99342380Y-83034285D01*
X95532380Y-83986666D02*
X95056190Y-84320000D01*
X95532380Y-84558095D02*
X94532380Y-84558095D01*
X94532380Y-84177142D01*
X94580000Y-84081904D01*
X94627619Y-84034285D01*
X94722857Y-83986666D01*
X94865714Y-83986666D01*
X94960952Y-84034285D01*
X95008571Y-84081904D01*
X95056190Y-84177142D01*
X95056190Y-84558095D01*
X95532380Y-83034285D02*
X95532380Y-83605714D01*
X95532380Y-83320000D02*
X94532380Y-83320000D01*
X94675238Y-83415238D01*
X94770476Y-83510476D01*
X94818095Y-83605714D01*
X96186666Y-103382380D02*
X96186666Y-104096666D01*
X96139047Y-104239523D01*
X96043809Y-104334761D01*
X95900952Y-104382380D01*
X95805714Y-104382380D01*
X96615238Y-103477619D02*
X96662857Y-103430000D01*
X96758095Y-103382380D01*
X96996190Y-103382380D01*
X97091428Y-103430000D01*
X97139047Y-103477619D01*
X97186666Y-103572857D01*
X97186666Y-103668095D01*
X97139047Y-103810952D01*
X96567619Y-104382380D01*
X97186666Y-104382380D01*
X74596666Y-72052380D02*
X74596666Y-72766666D01*
X74549047Y-72909523D01*
X74453809Y-73004761D01*
X74310952Y-73052380D01*
X74215714Y-73052380D01*
X75596666Y-73052380D02*
X75025238Y-73052380D01*
X75310952Y-73052380D02*
X75310952Y-72052380D01*
X75215714Y-72195238D01*
X75120476Y-72290476D01*
X75025238Y-72338095D01*
X140231904Y-95552380D02*
X140231904Y-94552380D01*
X140470000Y-94552380D01*
X140612857Y-94600000D01*
X140708095Y-94695238D01*
X140755714Y-94790476D01*
X140803333Y-94980952D01*
X140803333Y-95123809D01*
X140755714Y-95314285D01*
X140708095Y-95409523D01*
X140612857Y-95504761D01*
X140470000Y-95552380D01*
X140231904Y-95552380D01*
X141660476Y-94885714D02*
X141660476Y-95552380D01*
X141422380Y-94504761D02*
X141184285Y-95219047D01*
X141803333Y-95219047D01*
X150391904Y-103472380D02*
X150391904Y-102472380D01*
X150630000Y-102472380D01*
X150772857Y-102520000D01*
X150868095Y-102615238D01*
X150915714Y-102710476D01*
X150963333Y-102900952D01*
X150963333Y-103043809D01*
X150915714Y-103234285D01*
X150868095Y-103329523D01*
X150772857Y-103424761D01*
X150630000Y-103472380D01*
X150391904Y-103472380D01*
X151296666Y-102472380D02*
X151915714Y-102472380D01*
X151582380Y-102853333D01*
X151725238Y-102853333D01*
X151820476Y-102900952D01*
X151868095Y-102948571D01*
X151915714Y-103043809D01*
X151915714Y-103281904D01*
X151868095Y-103377142D01*
X151820476Y-103424761D01*
X151725238Y-103472380D01*
X151439523Y-103472380D01*
X151344285Y-103424761D01*
X151296666Y-103377142D01*
X145311904Y-108822380D02*
X145311904Y-107822380D01*
X145550000Y-107822380D01*
X145692857Y-107870000D01*
X145788095Y-107965238D01*
X145835714Y-108060476D01*
X145883333Y-108250952D01*
X145883333Y-108393809D01*
X145835714Y-108584285D01*
X145788095Y-108679523D01*
X145692857Y-108774761D01*
X145550000Y-108822380D01*
X145311904Y-108822380D01*
X146264285Y-107917619D02*
X146311904Y-107870000D01*
X146407142Y-107822380D01*
X146645238Y-107822380D01*
X146740476Y-107870000D01*
X146788095Y-107917619D01*
X146835714Y-108012857D01*
X146835714Y-108108095D01*
X146788095Y-108250952D01*
X146216666Y-108822380D01*
X146835714Y-108822380D01*
X141978095Y-109142380D02*
X141978095Y-108142380D01*
X142549523Y-109142380D02*
X142120952Y-108570952D01*
X142549523Y-108142380D02*
X141978095Y-108713809D01*
X145311904Y-105012380D02*
X145311904Y-104012380D01*
X145550000Y-104012380D01*
X145692857Y-104060000D01*
X145788095Y-104155238D01*
X145835714Y-104250476D01*
X145883333Y-104440952D01*
X145883333Y-104583809D01*
X145835714Y-104774285D01*
X145788095Y-104869523D01*
X145692857Y-104964761D01*
X145550000Y-105012380D01*
X145311904Y-105012380D01*
X146835714Y-105012380D02*
X146264285Y-105012380D01*
X146550000Y-105012380D02*
X146550000Y-104012380D01*
X146454761Y-104155238D01*
X146359523Y-104250476D01*
X146264285Y-104298095D01*
X141978095Y-105332380D02*
X141978095Y-104332380D01*
X142549523Y-105332380D02*
X142120952Y-104760952D01*
X142549523Y-104332380D02*
X141978095Y-104903809D01*
X105283333Y-118177142D02*
X105235714Y-118224761D01*
X105092857Y-118272380D01*
X104997619Y-118272380D01*
X104854761Y-118224761D01*
X104759523Y-118129523D01*
X104711904Y-118034285D01*
X104664285Y-117843809D01*
X104664285Y-117700952D01*
X104711904Y-117510476D01*
X104759523Y-117415238D01*
X104854761Y-117320000D01*
X104997619Y-117272380D01*
X105092857Y-117272380D01*
X105235714Y-117320000D01*
X105283333Y-117367619D01*
X105664285Y-117367619D02*
X105711904Y-117320000D01*
X105807142Y-117272380D01*
X106045238Y-117272380D01*
X106140476Y-117320000D01*
X106188095Y-117367619D01*
X106235714Y-117462857D01*
X106235714Y-117558095D01*
X106188095Y-117700952D01*
X105616666Y-118272380D01*
X106235714Y-118272380D01*
X128143333Y-118177142D02*
X128095714Y-118224761D01*
X127952857Y-118272380D01*
X127857619Y-118272380D01*
X127714761Y-118224761D01*
X127619523Y-118129523D01*
X127571904Y-118034285D01*
X127524285Y-117843809D01*
X127524285Y-117700952D01*
X127571904Y-117510476D01*
X127619523Y-117415238D01*
X127714761Y-117320000D01*
X127857619Y-117272380D01*
X127952857Y-117272380D01*
X128095714Y-117320000D01*
X128143333Y-117367619D01*
X129095714Y-118272380D02*
X128524285Y-118272380D01*
X128810000Y-118272380D02*
X128810000Y-117272380D01*
X128714761Y-117415238D01*
X128619523Y-117510476D01*
X128524285Y-117558095D01*
M02*
