G04 #@! TF.GenerationSoftware,KiCad,Pcbnew,(5.1.5)-3*
G04 #@! TF.CreationDate,2020-04-30T22:35:48+12:00*
G04 #@! TF.ProjectId,ALU_Tester,414c555f-5465-4737-9465-722e6b696361,rev?*
G04 #@! TF.SameCoordinates,Original*
G04 #@! TF.FileFunction,Copper,L2,Bot*
G04 #@! TF.FilePolarity,Positive*
%FSLAX46Y46*%
G04 Gerber Fmt 4.6, Leading zero omitted, Abs format (unit mm)*
G04 Created by KiCad (PCBNEW (5.1.5)-3) date 2020-04-30 22:35:48*
%MOMM*%
%LPD*%
G04 APERTURE LIST*
%ADD10O,2.400000X1.600000*%
%ADD11R,2.400000X1.600000*%
%ADD12O,1.700000X1.700000*%
%ADD13R,1.700000X1.700000*%
%ADD14O,1.600000X1.600000*%
%ADD15C,1.600000*%
%ADD16C,1.800000*%
%ADD17R,1.800000X1.800000*%
%ADD18R,1.600000X1.600000*%
%ADD19C,0.800000*%
%ADD20C,0.400000*%
%ADD21C,0.500000*%
%ADD22C,0.254000*%
G04 APERTURE END LIST*
D10*
X145288000Y-82550000D03*
X130048000Y-110490000D03*
X145288000Y-85090000D03*
X130048000Y-107950000D03*
X145288000Y-87630000D03*
X130048000Y-105410000D03*
X145288000Y-90170000D03*
X130048000Y-102870000D03*
X145288000Y-92710000D03*
X130048000Y-100330000D03*
X145288000Y-95250000D03*
X130048000Y-97790000D03*
X145288000Y-97790000D03*
X130048000Y-95250000D03*
X145288000Y-100330000D03*
X130048000Y-92710000D03*
X145288000Y-102870000D03*
X130048000Y-90170000D03*
X145288000Y-105410000D03*
X130048000Y-87630000D03*
X145288000Y-107950000D03*
X130048000Y-85090000D03*
X145288000Y-110490000D03*
D11*
X130048000Y-82550000D03*
D10*
X117856000Y-82550000D03*
X102616000Y-110490000D03*
X117856000Y-85090000D03*
X102616000Y-107950000D03*
X117856000Y-87630000D03*
X102616000Y-105410000D03*
X117856000Y-90170000D03*
X102616000Y-102870000D03*
X117856000Y-92710000D03*
X102616000Y-100330000D03*
X117856000Y-95250000D03*
X102616000Y-97790000D03*
X117856000Y-97790000D03*
X102616000Y-95250000D03*
X117856000Y-100330000D03*
X102616000Y-92710000D03*
X117856000Y-102870000D03*
X102616000Y-90170000D03*
X117856000Y-105410000D03*
X102616000Y-87630000D03*
X117856000Y-107950000D03*
X102616000Y-85090000D03*
X117856000Y-110490000D03*
D11*
X102616000Y-82550000D03*
D12*
X92202000Y-107950000D03*
D13*
X92202000Y-110490000D03*
D14*
X154686000Y-92710000D03*
D15*
X154686000Y-82550000D03*
D14*
X162306000Y-92710000D03*
D15*
X162306000Y-82550000D03*
D14*
X91948000Y-88900000D03*
D15*
X91948000Y-78740000D03*
D14*
X95758000Y-88900000D03*
D15*
X95758000Y-78740000D03*
D12*
X91948000Y-97790000D03*
D13*
X91948000Y-100330000D03*
D12*
X76200000Y-118110000D03*
X73660000Y-118110000D03*
X76200000Y-115570000D03*
X73660000Y-115570000D03*
X76200000Y-113030000D03*
X73660000Y-113030000D03*
X76200000Y-110490000D03*
X73660000Y-110490000D03*
X76200000Y-107950000D03*
X73660000Y-107950000D03*
X76200000Y-105410000D03*
X73660000Y-105410000D03*
X76200000Y-102870000D03*
X73660000Y-102870000D03*
X76200000Y-100330000D03*
X73660000Y-100330000D03*
X76200000Y-97790000D03*
X73660000Y-97790000D03*
X76200000Y-95250000D03*
X73660000Y-95250000D03*
X76200000Y-92710000D03*
X73660000Y-92710000D03*
X76200000Y-90170000D03*
X73660000Y-90170000D03*
X76200000Y-87630000D03*
X73660000Y-87630000D03*
X76200000Y-85090000D03*
X73660000Y-85090000D03*
X76200000Y-82550000D03*
X73660000Y-82550000D03*
X76200000Y-80010000D03*
X73660000Y-80010000D03*
X76200000Y-77470000D03*
X73660000Y-77470000D03*
X76200000Y-74930000D03*
D13*
X73660000Y-74930000D03*
D16*
X154686000Y-99060000D03*
D17*
X152146000Y-99060000D03*
D16*
X162306000Y-99060000D03*
D17*
X164846000Y-99060000D03*
D14*
X162306000Y-110490000D03*
D18*
X154686000Y-110490000D03*
D14*
X162306000Y-106680000D03*
D18*
X154686000Y-106680000D03*
D15*
X112856000Y-78740000D03*
X117856000Y-78740000D03*
X140288000Y-78740000D03*
X145288000Y-78740000D03*
D19*
X93411700Y-99040300D03*
X85817200Y-91440000D03*
D20*
X114057800Y-79941800D02*
X112856000Y-78740000D01*
X140288000Y-78740000D02*
X139086200Y-79941800D01*
X139086200Y-79941800D02*
X114057800Y-79941800D01*
X147489400Y-95652000D02*
X147489400Y-82639000D01*
X161438000Y-95652000D02*
X164846000Y-99060000D01*
X147489400Y-95652000D02*
X161438000Y-95652000D01*
X147489400Y-82639000D02*
X143590400Y-78740000D01*
X143590400Y-78740000D02*
X140288000Y-78740000D01*
X131648300Y-109303300D02*
X131648300Y-110490000D01*
X144431600Y-96520000D02*
X131648300Y-109303300D01*
X130048000Y-110490000D02*
X131648300Y-110490000D01*
X146621400Y-96520000D02*
X144431600Y-96520000D01*
X147489400Y-95652000D02*
X146621400Y-96520000D01*
X105434600Y-111708300D02*
X104216300Y-110490000D01*
X127229400Y-111708300D02*
X105434600Y-111708300D01*
X102616000Y-110490000D02*
X104216300Y-110490000D01*
X130048000Y-110490000D02*
X128447700Y-110490000D01*
X128447700Y-110490000D02*
X127229400Y-111708300D01*
X92202000Y-110490000D02*
X90951700Y-110490000D01*
X83331700Y-118110000D02*
X90951700Y-110490000D01*
X76200000Y-118110000D02*
X83331700Y-118110000D01*
D21*
X76200000Y-118110000D02*
X73660000Y-118110000D01*
D20*
X102616000Y-87630000D02*
X101015700Y-87630000D01*
X76200000Y-110490000D02*
X74949700Y-110490000D01*
X74949700Y-110490000D02*
X74949700Y-111037000D01*
X74949700Y-111037000D02*
X74226700Y-111760000D01*
X74226700Y-111760000D02*
X73152000Y-111760000D01*
X73152000Y-111760000D02*
X71116600Y-109724600D01*
X71116600Y-109724600D02*
X71116600Y-88398300D01*
X71116600Y-88398300D02*
X73154800Y-86360100D01*
X73154800Y-86360100D02*
X99745800Y-86360100D01*
X99745800Y-86360100D02*
X101015700Y-87630000D01*
X130048000Y-87630000D02*
X128447700Y-87630000D01*
X102616000Y-87630000D02*
X104216300Y-87630000D01*
X104216300Y-87630000D02*
X105486200Y-86360100D01*
X105486200Y-86360100D02*
X127177800Y-86360100D01*
X127177800Y-86360100D02*
X128447700Y-87630000D01*
X128447700Y-90170000D02*
X127191900Y-91425800D01*
X127191900Y-91425800D02*
X105472100Y-91425800D01*
X105472100Y-91425800D02*
X104216300Y-90170000D01*
X102616000Y-90170000D02*
X101015700Y-90170000D01*
X73660000Y-110490000D02*
X73450200Y-110490000D01*
X73450200Y-110490000D02*
X71737400Y-108777200D01*
X71737400Y-108777200D02*
X71737400Y-90319800D01*
X71737400Y-90319800D02*
X73157200Y-88900000D01*
X73157200Y-88900000D02*
X88165800Y-88900000D01*
X88165800Y-88900000D02*
X89435700Y-90169900D01*
X89435700Y-90169900D02*
X101015700Y-90169900D01*
X101015700Y-90169900D02*
X101015700Y-90170000D01*
X103416200Y-90170000D02*
X102616000Y-90170000D01*
X103416200Y-90170000D02*
X104216300Y-90170000D01*
X130048000Y-90170000D02*
X128447700Y-90170000D01*
X130048000Y-92710000D02*
X128447700Y-92710000D01*
X104216300Y-92710000D02*
X105417000Y-93910700D01*
X105417000Y-93910700D02*
X127247000Y-93910700D01*
X127247000Y-93910700D02*
X128447700Y-92710000D01*
X102616000Y-92710000D02*
X104216300Y-92710000D01*
X128447700Y-95250000D02*
X127247200Y-96450500D01*
X127247200Y-96450500D02*
X106265700Y-96450500D01*
X106265700Y-96450500D02*
X105065200Y-95250000D01*
X105065200Y-95250000D02*
X104216300Y-95250000D01*
X130048000Y-95250000D02*
X128447700Y-95250000D01*
X102616000Y-95250000D02*
X104216300Y-95250000D01*
X130048000Y-107950000D02*
X128447700Y-107950000D01*
X73660000Y-105410000D02*
X74910300Y-105410000D01*
X74910300Y-105410000D02*
X74910300Y-105957000D01*
X74910300Y-105957000D02*
X75633200Y-106679900D01*
X75633200Y-106679900D02*
X92727800Y-106679900D01*
X92727800Y-106679900D02*
X95198200Y-109150300D01*
X95198200Y-109150300D02*
X127247400Y-109150300D01*
X127247400Y-109150300D02*
X128447700Y-107950000D01*
X128447700Y-105410000D02*
X127192000Y-106665700D01*
X127192000Y-106665700D02*
X95260700Y-106665700D01*
X95260700Y-106665700D02*
X94074300Y-105479300D01*
X94074300Y-105479300D02*
X80059600Y-105479300D01*
X80059600Y-105479300D02*
X77450300Y-102870000D01*
X130048000Y-105410000D02*
X128447700Y-105410000D01*
X76200000Y-102870000D02*
X77450300Y-102870000D01*
X73660000Y-100330000D02*
X73660000Y-101580300D01*
X73660000Y-101580300D02*
X74207100Y-101580300D01*
X74207100Y-101580300D02*
X74910300Y-102283500D01*
X74910300Y-102283500D02*
X74910300Y-103416500D01*
X74910300Y-103416500D02*
X75633800Y-104140000D01*
X75633800Y-104140000D02*
X77450400Y-104140000D01*
X77450400Y-104140000D02*
X79390000Y-106079600D01*
X79390000Y-106079600D02*
X93401300Y-106079600D01*
X93401300Y-106079600D02*
X95271700Y-107950000D01*
X95271700Y-107950000D02*
X102616000Y-107950000D01*
X101015700Y-105410000D02*
X100484700Y-104879000D01*
X100484700Y-104879000D02*
X84539300Y-104879000D01*
X84539300Y-104879000D02*
X77450300Y-97790000D01*
X102616000Y-105410000D02*
X101015700Y-105410000D01*
X76200000Y-97790000D02*
X77450300Y-97790000D01*
X102616000Y-102870000D02*
X97241400Y-102870000D01*
X97241400Y-102870000D02*
X93411700Y-99040300D01*
X76200000Y-95250000D02*
X74930000Y-93980000D01*
X74930000Y-93980000D02*
X73118400Y-93980000D01*
X73118400Y-93980000D02*
X72348400Y-94750000D01*
X72348400Y-94750000D02*
X72348400Y-108468400D01*
X72348400Y-108468400D02*
X73119600Y-109239600D01*
X73119600Y-109239600D02*
X93590700Y-109239600D01*
X93590700Y-109239600D02*
X96699700Y-112348600D01*
X96699700Y-112348600D02*
X130729400Y-112348600D01*
X130729400Y-112348600D02*
X145288000Y-97790000D01*
X143687700Y-92710000D02*
X132317400Y-104080300D01*
X132317400Y-104080300D02*
X84589700Y-104080300D01*
X84589700Y-104080300D02*
X77009700Y-96500300D01*
X77009700Y-96500300D02*
X75613500Y-96500300D01*
X75613500Y-96500300D02*
X74910300Y-95797100D01*
X74910300Y-95797100D02*
X74910300Y-95250000D01*
X145288000Y-92710000D02*
X143687700Y-92710000D01*
X73660000Y-95250000D02*
X74910300Y-95250000D01*
X145288000Y-87630000D02*
X143687700Y-87630000D01*
X76200000Y-92710000D02*
X77450300Y-92710000D01*
X77450300Y-92710000D02*
X81213800Y-96473500D01*
X81213800Y-96473500D02*
X94571800Y-96473500D01*
X94571800Y-96473500D02*
X99634200Y-101535900D01*
X99634200Y-101535900D02*
X130968500Y-101535900D01*
X130968500Y-101535900D02*
X143687700Y-88816700D01*
X143687700Y-88816700D02*
X143687700Y-87630000D01*
X131648300Y-82550000D02*
X131648300Y-98287400D01*
X131648300Y-98287400D02*
X130931500Y-99004200D01*
X130931500Y-99004200D02*
X98304000Y-99004200D01*
X98304000Y-99004200D02*
X95172900Y-95873100D01*
X95172900Y-95873100D02*
X86626700Y-95873100D01*
X86626700Y-95873100D02*
X82190300Y-91436700D01*
X82190300Y-91436700D02*
X75624000Y-91436700D01*
X75624000Y-91436700D02*
X74910300Y-92150400D01*
X74910300Y-92150400D02*
X74910300Y-92710000D01*
X130048000Y-82550000D02*
X131648300Y-82550000D01*
X73660000Y-92710000D02*
X74910300Y-92710000D01*
X117856000Y-97790000D02*
X106331900Y-97790000D01*
X106331900Y-97790000D02*
X104992400Y-96450500D01*
X104992400Y-96450500D02*
X98858800Y-96450500D01*
X98858800Y-96450500D02*
X95619100Y-93210800D01*
X95619100Y-93210800D02*
X85285900Y-93210800D01*
X85285900Y-93210800D02*
X82245100Y-90170000D01*
X82245100Y-90170000D02*
X76200000Y-90170000D01*
X117856000Y-92710000D02*
X116255700Y-92710000D01*
X116255700Y-92710000D02*
X115571900Y-92026200D01*
X115571900Y-92026200D02*
X104029900Y-92026200D01*
X104029900Y-92026200D02*
X103443700Y-91440000D01*
X103443700Y-91440000D02*
X85817200Y-91440000D01*
X117856000Y-87630000D02*
X116255700Y-87630000D01*
X76200000Y-87630000D02*
X96208200Y-87630000D01*
X96208200Y-87630000D02*
X97478000Y-88899800D01*
X97478000Y-88899800D02*
X114985900Y-88899800D01*
X114985900Y-88899800D02*
X116255700Y-87630000D01*
X145288000Y-90170000D02*
X146888300Y-90170000D01*
X73660000Y-85090000D02*
X73660000Y-83839700D01*
X73660000Y-83839700D02*
X73113000Y-83839700D01*
X73113000Y-83839700D02*
X72395000Y-83121700D01*
X72395000Y-83121700D02*
X72395000Y-82024500D01*
X72395000Y-82024500D02*
X73119900Y-81299600D01*
X73119900Y-81299600D02*
X78861800Y-81299600D01*
X78861800Y-81299600D02*
X79465900Y-80695500D01*
X79465900Y-80695500D02*
X140175200Y-80695500D01*
X140175200Y-80695500D02*
X143299700Y-83820000D01*
X143299700Y-83820000D02*
X146124400Y-83820000D01*
X146124400Y-83820000D02*
X146888300Y-84583900D01*
X146888300Y-84583900D02*
X146888300Y-90170000D01*
X77450300Y-82550000D02*
X80651800Y-82550000D01*
X80651800Y-82550000D02*
X81905900Y-81295900D01*
X81905900Y-81295900D02*
X139893600Y-81295900D01*
X139893600Y-81295900D02*
X143687700Y-85090000D01*
X145288000Y-85090000D02*
X143687700Y-85090000D01*
X76200000Y-82550000D02*
X77450300Y-82550000D01*
X130048000Y-85090000D02*
X128447700Y-85090000D01*
X73660000Y-82550000D02*
X74910300Y-82550000D01*
X74910300Y-82550000D02*
X74910300Y-83097100D01*
X74910300Y-83097100D02*
X75613500Y-83800300D01*
X75613500Y-83800300D02*
X127158000Y-83800300D01*
X127158000Y-83800300D02*
X128447700Y-85090000D01*
D22*
G36*
X169291000Y-121539000D02*
G01*
X69977000Y-121539000D01*
X69977000Y-118466890D01*
X72218524Y-118466890D01*
X72263175Y-118614099D01*
X72388359Y-118876920D01*
X72562412Y-119110269D01*
X72778645Y-119305178D01*
X73028748Y-119454157D01*
X73303109Y-119551481D01*
X73533000Y-119430814D01*
X73533000Y-118237000D01*
X73787000Y-118237000D01*
X73787000Y-119430814D01*
X74016891Y-119551481D01*
X74291252Y-119454157D01*
X74541355Y-119305178D01*
X74757588Y-119110269D01*
X74930000Y-118879120D01*
X75102412Y-119110269D01*
X75318645Y-119305178D01*
X75568748Y-119454157D01*
X75843109Y-119551481D01*
X76073000Y-119430814D01*
X76073000Y-118237000D01*
X76327000Y-118237000D01*
X76327000Y-119430814D01*
X76556891Y-119551481D01*
X76831252Y-119454157D01*
X77081355Y-119305178D01*
X77297588Y-119110269D01*
X77471641Y-118876920D01*
X77596825Y-118614099D01*
X77641476Y-118466890D01*
X77520155Y-118237000D01*
X76327000Y-118237000D01*
X76073000Y-118237000D01*
X73787000Y-118237000D01*
X73533000Y-118237000D01*
X72339845Y-118237000D01*
X72218524Y-118466890D01*
X69977000Y-118466890D01*
X69977000Y-88398300D01*
X70277560Y-88398300D01*
X70281601Y-88439329D01*
X70281600Y-109683582D01*
X70277560Y-109724600D01*
X70281600Y-109765618D01*
X70293682Y-109888288D01*
X70341428Y-110045686D01*
X70418964Y-110190745D01*
X70523309Y-110317891D01*
X70555179Y-110344046D01*
X72421600Y-112210468D01*
X72344010Y-112326589D01*
X72232068Y-112596842D01*
X72175000Y-112883740D01*
X72175000Y-113176260D01*
X72232068Y-113463158D01*
X72344010Y-113733411D01*
X72506525Y-113976632D01*
X72713368Y-114183475D01*
X72887760Y-114300000D01*
X72713368Y-114416525D01*
X72506525Y-114623368D01*
X72344010Y-114866589D01*
X72232068Y-115136842D01*
X72175000Y-115423740D01*
X72175000Y-115716260D01*
X72232068Y-116003158D01*
X72344010Y-116273411D01*
X72506525Y-116516632D01*
X72713368Y-116723475D01*
X72895534Y-116845195D01*
X72778645Y-116914822D01*
X72562412Y-117109731D01*
X72388359Y-117343080D01*
X72263175Y-117605901D01*
X72218524Y-117753110D01*
X72339845Y-117983000D01*
X73533000Y-117983000D01*
X73533000Y-117963000D01*
X73787000Y-117963000D01*
X73787000Y-117983000D01*
X76073000Y-117983000D01*
X76073000Y-117963000D01*
X76327000Y-117963000D01*
X76327000Y-117983000D01*
X77520155Y-117983000D01*
X77641476Y-117753110D01*
X77596825Y-117605901D01*
X77471641Y-117343080D01*
X77297588Y-117109731D01*
X77081355Y-116914822D01*
X76964466Y-116845195D01*
X77146632Y-116723475D01*
X77353475Y-116516632D01*
X77515990Y-116273411D01*
X77627932Y-116003158D01*
X77685000Y-115716260D01*
X77685000Y-115423740D01*
X77627932Y-115136842D01*
X77515990Y-114866589D01*
X77353475Y-114623368D01*
X77146632Y-114416525D01*
X76972240Y-114300000D01*
X77146632Y-114183475D01*
X77353475Y-113976632D01*
X77515990Y-113733411D01*
X77627932Y-113463158D01*
X77685000Y-113176260D01*
X77685000Y-112883740D01*
X77627932Y-112596842D01*
X77515990Y-112326589D01*
X77353475Y-112083368D01*
X77146632Y-111876525D01*
X76972240Y-111760000D01*
X77146632Y-111643475D01*
X77353475Y-111436632D01*
X77418042Y-111340000D01*
X90713928Y-111340000D01*
X90726188Y-111464482D01*
X90762498Y-111584180D01*
X90821463Y-111694494D01*
X90900815Y-111791185D01*
X90997506Y-111870537D01*
X91107820Y-111929502D01*
X91227518Y-111965812D01*
X91352000Y-111978072D01*
X91916250Y-111975000D01*
X92075000Y-111816250D01*
X92075000Y-110617000D01*
X90875750Y-110617000D01*
X90717000Y-110775750D01*
X90713928Y-111340000D01*
X77418042Y-111340000D01*
X77515990Y-111193411D01*
X77627932Y-110923158D01*
X77685000Y-110636260D01*
X77685000Y-110343740D01*
X77631464Y-110074600D01*
X90716294Y-110074600D01*
X90717000Y-110204250D01*
X90875750Y-110363000D01*
X92075000Y-110363000D01*
X92075000Y-110343000D01*
X92329000Y-110343000D01*
X92329000Y-110363000D01*
X92349000Y-110363000D01*
X92349000Y-110617000D01*
X92329000Y-110617000D01*
X92329000Y-111816250D01*
X92487750Y-111975000D01*
X93052000Y-111978072D01*
X93176482Y-111965812D01*
X93296180Y-111929502D01*
X93406494Y-111870537D01*
X93503185Y-111791185D01*
X93582537Y-111694494D01*
X93641502Y-111584180D01*
X93677812Y-111464482D01*
X93690072Y-111340000D01*
X93687000Y-110775750D01*
X93528252Y-110617002D01*
X93687000Y-110617002D01*
X93687000Y-110516768D01*
X96080259Y-112910027D01*
X96106409Y-112941891D01*
X96233554Y-113046236D01*
X96378613Y-113123772D01*
X96536011Y-113171518D01*
X96699700Y-113187640D01*
X96740718Y-113183600D01*
X130688382Y-113183600D01*
X130729400Y-113187640D01*
X130770418Y-113183600D01*
X130770419Y-113183600D01*
X130893089Y-113171518D01*
X131050487Y-113123772D01*
X131195546Y-113046236D01*
X131322691Y-112941891D01*
X131348846Y-112910021D01*
X143514214Y-100744655D01*
X143555818Y-100881808D01*
X143689068Y-101131101D01*
X143868392Y-101349608D01*
X144086899Y-101528932D01*
X144219858Y-101600000D01*
X144086899Y-101671068D01*
X143868392Y-101850392D01*
X143689068Y-102068899D01*
X143555818Y-102318192D01*
X143473764Y-102588691D01*
X143446057Y-102870000D01*
X143473764Y-103151309D01*
X143555818Y-103421808D01*
X143689068Y-103671101D01*
X143868392Y-103889608D01*
X144086899Y-104068932D01*
X144219858Y-104140000D01*
X144086899Y-104211068D01*
X143868392Y-104390392D01*
X143689068Y-104608899D01*
X143555818Y-104858192D01*
X143473764Y-105128691D01*
X143446057Y-105410000D01*
X143473764Y-105691309D01*
X143555818Y-105961808D01*
X143689068Y-106211101D01*
X143868392Y-106429608D01*
X144086899Y-106608932D01*
X144219858Y-106680000D01*
X144086899Y-106751068D01*
X143868392Y-106930392D01*
X143689068Y-107148899D01*
X143555818Y-107398192D01*
X143473764Y-107668691D01*
X143446057Y-107950000D01*
X143473764Y-108231309D01*
X143555818Y-108501808D01*
X143689068Y-108751101D01*
X143868392Y-108969608D01*
X144086899Y-109148932D01*
X144219858Y-109220000D01*
X144086899Y-109291068D01*
X143868392Y-109470392D01*
X143689068Y-109688899D01*
X143555818Y-109938192D01*
X143473764Y-110208691D01*
X143446057Y-110490000D01*
X143473764Y-110771309D01*
X143555818Y-111041808D01*
X143689068Y-111291101D01*
X143868392Y-111509608D01*
X144086899Y-111688932D01*
X144336192Y-111822182D01*
X144606691Y-111904236D01*
X144817508Y-111925000D01*
X145758492Y-111925000D01*
X145969309Y-111904236D01*
X146239808Y-111822182D01*
X146489101Y-111688932D01*
X146707608Y-111509608D01*
X146886932Y-111291101D01*
X147020182Y-111041808D01*
X147102236Y-110771309D01*
X147129943Y-110490000D01*
X147102236Y-110208691D01*
X147020182Y-109938192D01*
X146887521Y-109690000D01*
X153247928Y-109690000D01*
X153247928Y-111290000D01*
X153260188Y-111414482D01*
X153296498Y-111534180D01*
X153355463Y-111644494D01*
X153434815Y-111741185D01*
X153531506Y-111820537D01*
X153641820Y-111879502D01*
X153761518Y-111915812D01*
X153886000Y-111928072D01*
X155486000Y-111928072D01*
X155610482Y-111915812D01*
X155730180Y-111879502D01*
X155840494Y-111820537D01*
X155937185Y-111741185D01*
X156016537Y-111644494D01*
X156075502Y-111534180D01*
X156111812Y-111414482D01*
X156124072Y-111290000D01*
X156124072Y-110348665D01*
X160871000Y-110348665D01*
X160871000Y-110631335D01*
X160926147Y-110908574D01*
X161034320Y-111169727D01*
X161191363Y-111404759D01*
X161391241Y-111604637D01*
X161626273Y-111761680D01*
X161887426Y-111869853D01*
X162164665Y-111925000D01*
X162447335Y-111925000D01*
X162724574Y-111869853D01*
X162985727Y-111761680D01*
X163220759Y-111604637D01*
X163420637Y-111404759D01*
X163577680Y-111169727D01*
X163685853Y-110908574D01*
X163741000Y-110631335D01*
X163741000Y-110348665D01*
X163685853Y-110071426D01*
X163577680Y-109810273D01*
X163420637Y-109575241D01*
X163220759Y-109375363D01*
X162985727Y-109218320D01*
X162724574Y-109110147D01*
X162447335Y-109055000D01*
X162164665Y-109055000D01*
X161887426Y-109110147D01*
X161626273Y-109218320D01*
X161391241Y-109375363D01*
X161191363Y-109575241D01*
X161034320Y-109810273D01*
X160926147Y-110071426D01*
X160871000Y-110348665D01*
X156124072Y-110348665D01*
X156124072Y-109690000D01*
X156111812Y-109565518D01*
X156075502Y-109445820D01*
X156016537Y-109335506D01*
X155937185Y-109238815D01*
X155840494Y-109159463D01*
X155730180Y-109100498D01*
X155610482Y-109064188D01*
X155486000Y-109051928D01*
X153886000Y-109051928D01*
X153761518Y-109064188D01*
X153641820Y-109100498D01*
X153531506Y-109159463D01*
X153434815Y-109238815D01*
X153355463Y-109335506D01*
X153296498Y-109445820D01*
X153260188Y-109565518D01*
X153247928Y-109690000D01*
X146887521Y-109690000D01*
X146886932Y-109688899D01*
X146707608Y-109470392D01*
X146489101Y-109291068D01*
X146356142Y-109220000D01*
X146489101Y-109148932D01*
X146707608Y-108969608D01*
X146886932Y-108751101D01*
X147020182Y-108501808D01*
X147102236Y-108231309D01*
X147129943Y-107950000D01*
X147102236Y-107668691D01*
X147020182Y-107398192D01*
X146886932Y-107148899D01*
X146707608Y-106930392D01*
X146489101Y-106751068D01*
X146356142Y-106680000D01*
X146489101Y-106608932D01*
X146707608Y-106429608D01*
X146886932Y-106211101D01*
X147020182Y-105961808D01*
X147044997Y-105880000D01*
X153247928Y-105880000D01*
X153247928Y-107480000D01*
X153260188Y-107604482D01*
X153296498Y-107724180D01*
X153355463Y-107834494D01*
X153434815Y-107931185D01*
X153531506Y-108010537D01*
X153641820Y-108069502D01*
X153761518Y-108105812D01*
X153886000Y-108118072D01*
X155486000Y-108118072D01*
X155610482Y-108105812D01*
X155730180Y-108069502D01*
X155840494Y-108010537D01*
X155937185Y-107931185D01*
X156016537Y-107834494D01*
X156075502Y-107724180D01*
X156111812Y-107604482D01*
X156124072Y-107480000D01*
X156124072Y-106538665D01*
X160871000Y-106538665D01*
X160871000Y-106821335D01*
X160926147Y-107098574D01*
X161034320Y-107359727D01*
X161191363Y-107594759D01*
X161391241Y-107794637D01*
X161626273Y-107951680D01*
X161887426Y-108059853D01*
X162164665Y-108115000D01*
X162447335Y-108115000D01*
X162724574Y-108059853D01*
X162985727Y-107951680D01*
X163220759Y-107794637D01*
X163420637Y-107594759D01*
X163577680Y-107359727D01*
X163685853Y-107098574D01*
X163741000Y-106821335D01*
X163741000Y-106538665D01*
X163685853Y-106261426D01*
X163577680Y-106000273D01*
X163420637Y-105765241D01*
X163220759Y-105565363D01*
X162985727Y-105408320D01*
X162724574Y-105300147D01*
X162447335Y-105245000D01*
X162164665Y-105245000D01*
X161887426Y-105300147D01*
X161626273Y-105408320D01*
X161391241Y-105565363D01*
X161191363Y-105765241D01*
X161034320Y-106000273D01*
X160926147Y-106261426D01*
X160871000Y-106538665D01*
X156124072Y-106538665D01*
X156124072Y-105880000D01*
X156111812Y-105755518D01*
X156075502Y-105635820D01*
X156016537Y-105525506D01*
X155937185Y-105428815D01*
X155840494Y-105349463D01*
X155730180Y-105290498D01*
X155610482Y-105254188D01*
X155486000Y-105241928D01*
X153886000Y-105241928D01*
X153761518Y-105254188D01*
X153641820Y-105290498D01*
X153531506Y-105349463D01*
X153434815Y-105428815D01*
X153355463Y-105525506D01*
X153296498Y-105635820D01*
X153260188Y-105755518D01*
X153247928Y-105880000D01*
X147044997Y-105880000D01*
X147102236Y-105691309D01*
X147129943Y-105410000D01*
X147102236Y-105128691D01*
X147020182Y-104858192D01*
X146886932Y-104608899D01*
X146707608Y-104390392D01*
X146489101Y-104211068D01*
X146356142Y-104140000D01*
X146489101Y-104068932D01*
X146707608Y-103889608D01*
X146886932Y-103671101D01*
X147020182Y-103421808D01*
X147102236Y-103151309D01*
X147129943Y-102870000D01*
X147102236Y-102588691D01*
X147020182Y-102318192D01*
X146886932Y-102068899D01*
X146707608Y-101850392D01*
X146489101Y-101671068D01*
X146356142Y-101600000D01*
X146489101Y-101528932D01*
X146707608Y-101349608D01*
X146886932Y-101131101D01*
X147020182Y-100881808D01*
X147102236Y-100611309D01*
X147129943Y-100330000D01*
X147102236Y-100048691D01*
X147020182Y-99778192D01*
X146886932Y-99528899D01*
X146707608Y-99310392D01*
X146489101Y-99131068D01*
X146356142Y-99060000D01*
X146489101Y-98988932D01*
X146707608Y-98809608D01*
X146886932Y-98591101D01*
X147020182Y-98341808D01*
X147075332Y-98160000D01*
X150607928Y-98160000D01*
X150607928Y-99960000D01*
X150620188Y-100084482D01*
X150656498Y-100204180D01*
X150715463Y-100314494D01*
X150794815Y-100411185D01*
X150891506Y-100490537D01*
X151001820Y-100549502D01*
X151121518Y-100585812D01*
X151246000Y-100598072D01*
X153046000Y-100598072D01*
X153170482Y-100585812D01*
X153290180Y-100549502D01*
X153400494Y-100490537D01*
X153497185Y-100411185D01*
X153576537Y-100314494D01*
X153635502Y-100204180D01*
X153641056Y-100185873D01*
X153707495Y-100252312D01*
X153958905Y-100420299D01*
X154238257Y-100536011D01*
X154534816Y-100595000D01*
X154837184Y-100595000D01*
X155133743Y-100536011D01*
X155413095Y-100420299D01*
X155664505Y-100252312D01*
X155878312Y-100038505D01*
X156046299Y-99787095D01*
X156162011Y-99507743D01*
X156221000Y-99211184D01*
X156221000Y-98908816D01*
X160771000Y-98908816D01*
X160771000Y-99211184D01*
X160829989Y-99507743D01*
X160945701Y-99787095D01*
X161113688Y-100038505D01*
X161327495Y-100252312D01*
X161578905Y-100420299D01*
X161858257Y-100536011D01*
X162154816Y-100595000D01*
X162457184Y-100595000D01*
X162753743Y-100536011D01*
X163033095Y-100420299D01*
X163284505Y-100252312D01*
X163350944Y-100185873D01*
X163356498Y-100204180D01*
X163415463Y-100314494D01*
X163494815Y-100411185D01*
X163591506Y-100490537D01*
X163701820Y-100549502D01*
X163821518Y-100585812D01*
X163946000Y-100598072D01*
X164560250Y-100595000D01*
X164719000Y-100436250D01*
X164719000Y-99187000D01*
X164973000Y-99187000D01*
X164973000Y-100436250D01*
X165131750Y-100595000D01*
X165746000Y-100598072D01*
X165870482Y-100585812D01*
X165990180Y-100549502D01*
X166100494Y-100490537D01*
X166197185Y-100411185D01*
X166276537Y-100314494D01*
X166335502Y-100204180D01*
X166371812Y-100084482D01*
X166384072Y-99960000D01*
X166381000Y-99345750D01*
X166222250Y-99187000D01*
X164973000Y-99187000D01*
X164719000Y-99187000D01*
X164699000Y-99187000D01*
X164699000Y-98933000D01*
X164719000Y-98933000D01*
X164719000Y-97683750D01*
X164973000Y-97683750D01*
X164973000Y-98933000D01*
X166222250Y-98933000D01*
X166381000Y-98774250D01*
X166384072Y-98160000D01*
X166371812Y-98035518D01*
X166335502Y-97915820D01*
X166276537Y-97805506D01*
X166197185Y-97708815D01*
X166100494Y-97629463D01*
X165990180Y-97570498D01*
X165870482Y-97534188D01*
X165746000Y-97521928D01*
X165131750Y-97525000D01*
X164973000Y-97683750D01*
X164719000Y-97683750D01*
X164560250Y-97525000D01*
X163946000Y-97521928D01*
X163821518Y-97534188D01*
X163701820Y-97570498D01*
X163591506Y-97629463D01*
X163494815Y-97708815D01*
X163415463Y-97805506D01*
X163356498Y-97915820D01*
X163350944Y-97934127D01*
X163284505Y-97867688D01*
X163033095Y-97699701D01*
X162753743Y-97583989D01*
X162457184Y-97525000D01*
X162154816Y-97525000D01*
X161858257Y-97583989D01*
X161578905Y-97699701D01*
X161327495Y-97867688D01*
X161113688Y-98081495D01*
X160945701Y-98332905D01*
X160829989Y-98612257D01*
X160771000Y-98908816D01*
X156221000Y-98908816D01*
X156162011Y-98612257D01*
X156046299Y-98332905D01*
X155878312Y-98081495D01*
X155664505Y-97867688D01*
X155413095Y-97699701D01*
X155133743Y-97583989D01*
X154837184Y-97525000D01*
X154534816Y-97525000D01*
X154238257Y-97583989D01*
X153958905Y-97699701D01*
X153707495Y-97867688D01*
X153641056Y-97934127D01*
X153635502Y-97915820D01*
X153576537Y-97805506D01*
X153497185Y-97708815D01*
X153400494Y-97629463D01*
X153290180Y-97570498D01*
X153170482Y-97534188D01*
X153046000Y-97521928D01*
X151246000Y-97521928D01*
X151121518Y-97534188D01*
X151001820Y-97570498D01*
X150891506Y-97629463D01*
X150794815Y-97708815D01*
X150715463Y-97805506D01*
X150656498Y-97915820D01*
X150620188Y-98035518D01*
X150607928Y-98160000D01*
X147075332Y-98160000D01*
X147102236Y-98071309D01*
X147129943Y-97790000D01*
X147102236Y-97508691D01*
X147020182Y-97238192D01*
X146886932Y-96988899D01*
X146707608Y-96770392D01*
X146489101Y-96591068D01*
X146356142Y-96520000D01*
X146489101Y-96448932D01*
X146707608Y-96269608D01*
X146886932Y-96051101D01*
X147020182Y-95801808D01*
X147102236Y-95531309D01*
X147129943Y-95250000D01*
X147102236Y-94968691D01*
X147020182Y-94698192D01*
X146886932Y-94448899D01*
X146707608Y-94230392D01*
X146489101Y-94051068D01*
X146356142Y-93980000D01*
X146489101Y-93908932D01*
X146707608Y-93729608D01*
X146886932Y-93511101D01*
X147020182Y-93261808D01*
X147102236Y-92991309D01*
X147129943Y-92710000D01*
X147116023Y-92568665D01*
X153251000Y-92568665D01*
X153251000Y-92851335D01*
X153306147Y-93128574D01*
X153414320Y-93389727D01*
X153571363Y-93624759D01*
X153771241Y-93824637D01*
X154006273Y-93981680D01*
X154267426Y-94089853D01*
X154544665Y-94145000D01*
X154827335Y-94145000D01*
X155104574Y-94089853D01*
X155365727Y-93981680D01*
X155600759Y-93824637D01*
X155800637Y-93624759D01*
X155957680Y-93389727D01*
X156065853Y-93128574D01*
X156121000Y-92851335D01*
X156121000Y-92568665D01*
X160871000Y-92568665D01*
X160871000Y-92851335D01*
X160926147Y-93128574D01*
X161034320Y-93389727D01*
X161191363Y-93624759D01*
X161391241Y-93824637D01*
X161626273Y-93981680D01*
X161887426Y-94089853D01*
X162164665Y-94145000D01*
X162447335Y-94145000D01*
X162724574Y-94089853D01*
X162985727Y-93981680D01*
X163220759Y-93824637D01*
X163420637Y-93624759D01*
X163577680Y-93389727D01*
X163685853Y-93128574D01*
X163741000Y-92851335D01*
X163741000Y-92568665D01*
X163685853Y-92291426D01*
X163577680Y-92030273D01*
X163420637Y-91795241D01*
X163220759Y-91595363D01*
X162985727Y-91438320D01*
X162724574Y-91330147D01*
X162447335Y-91275000D01*
X162164665Y-91275000D01*
X161887426Y-91330147D01*
X161626273Y-91438320D01*
X161391241Y-91595363D01*
X161191363Y-91795241D01*
X161034320Y-92030273D01*
X160926147Y-92291426D01*
X160871000Y-92568665D01*
X156121000Y-92568665D01*
X156065853Y-92291426D01*
X155957680Y-92030273D01*
X155800637Y-91795241D01*
X155600759Y-91595363D01*
X155365727Y-91438320D01*
X155104574Y-91330147D01*
X154827335Y-91275000D01*
X154544665Y-91275000D01*
X154267426Y-91330147D01*
X154006273Y-91438320D01*
X153771241Y-91595363D01*
X153571363Y-91795241D01*
X153414320Y-92030273D01*
X153306147Y-92291426D01*
X153251000Y-92568665D01*
X147116023Y-92568665D01*
X147102236Y-92428691D01*
X147020182Y-92158192D01*
X146886932Y-91908899D01*
X146707608Y-91690392D01*
X146489101Y-91511068D01*
X146356142Y-91440000D01*
X146489101Y-91368932D01*
X146707608Y-91189608D01*
X146858227Y-91006078D01*
X146888300Y-91009040D01*
X147051989Y-90992918D01*
X147209387Y-90945172D01*
X147354446Y-90867636D01*
X147481591Y-90763291D01*
X147585936Y-90636146D01*
X147663472Y-90491087D01*
X147711218Y-90333689D01*
X147723300Y-90211019D01*
X147723300Y-90211018D01*
X147727340Y-90170000D01*
X147723300Y-90128981D01*
X147723300Y-84624918D01*
X147727340Y-84583900D01*
X147711218Y-84420212D01*
X147711075Y-84419738D01*
X147663472Y-84262813D01*
X147585936Y-84117754D01*
X147481591Y-83990609D01*
X147449733Y-83964464D01*
X146864140Y-83378873D01*
X146886932Y-83351101D01*
X147020182Y-83101808D01*
X147102236Y-82831309D01*
X147129943Y-82550000D01*
X147116023Y-82408665D01*
X153251000Y-82408665D01*
X153251000Y-82691335D01*
X153306147Y-82968574D01*
X153414320Y-83229727D01*
X153571363Y-83464759D01*
X153771241Y-83664637D01*
X154006273Y-83821680D01*
X154267426Y-83929853D01*
X154544665Y-83985000D01*
X154827335Y-83985000D01*
X155104574Y-83929853D01*
X155365727Y-83821680D01*
X155600759Y-83664637D01*
X155800637Y-83464759D01*
X155957680Y-83229727D01*
X156065853Y-82968574D01*
X156121000Y-82691335D01*
X156121000Y-82408665D01*
X160871000Y-82408665D01*
X160871000Y-82691335D01*
X160926147Y-82968574D01*
X161034320Y-83229727D01*
X161191363Y-83464759D01*
X161391241Y-83664637D01*
X161626273Y-83821680D01*
X161887426Y-83929853D01*
X162164665Y-83985000D01*
X162447335Y-83985000D01*
X162724574Y-83929853D01*
X162985727Y-83821680D01*
X163220759Y-83664637D01*
X163420637Y-83464759D01*
X163577680Y-83229727D01*
X163685853Y-82968574D01*
X163741000Y-82691335D01*
X163741000Y-82408665D01*
X163685853Y-82131426D01*
X163577680Y-81870273D01*
X163420637Y-81635241D01*
X163220759Y-81435363D01*
X162985727Y-81278320D01*
X162724574Y-81170147D01*
X162447335Y-81115000D01*
X162164665Y-81115000D01*
X161887426Y-81170147D01*
X161626273Y-81278320D01*
X161391241Y-81435363D01*
X161191363Y-81635241D01*
X161034320Y-81870273D01*
X160926147Y-82131426D01*
X160871000Y-82408665D01*
X156121000Y-82408665D01*
X156065853Y-82131426D01*
X155957680Y-81870273D01*
X155800637Y-81635241D01*
X155600759Y-81435363D01*
X155365727Y-81278320D01*
X155104574Y-81170147D01*
X154827335Y-81115000D01*
X154544665Y-81115000D01*
X154267426Y-81170147D01*
X154006273Y-81278320D01*
X153771241Y-81435363D01*
X153571363Y-81635241D01*
X153414320Y-81870273D01*
X153306147Y-82131426D01*
X153251000Y-82408665D01*
X147116023Y-82408665D01*
X147102236Y-82268691D01*
X147020182Y-81998192D01*
X146886932Y-81748899D01*
X146707608Y-81530392D01*
X146489101Y-81351068D01*
X146239808Y-81217818D01*
X145969309Y-81135764D01*
X145758492Y-81115000D01*
X144817508Y-81115000D01*
X144606691Y-81135764D01*
X144336192Y-81217818D01*
X144086899Y-81351068D01*
X143868392Y-81530392D01*
X143689068Y-81748899D01*
X143555818Y-81998192D01*
X143473764Y-82268691D01*
X143446057Y-82550000D01*
X143471785Y-82811217D01*
X140794646Y-80134079D01*
X140768491Y-80102209D01*
X140759969Y-80095215D01*
X140904292Y-80043603D01*
X141029514Y-79976671D01*
X141101097Y-79732702D01*
X140288000Y-78919605D01*
X139474903Y-79732702D01*
X139512400Y-79860500D01*
X118761984Y-79860500D01*
X118770759Y-79854637D01*
X118970637Y-79654759D01*
X119127680Y-79419727D01*
X119235853Y-79158574D01*
X119291000Y-78881335D01*
X119291000Y-78810512D01*
X138847783Y-78810512D01*
X138889213Y-79090130D01*
X138984397Y-79356292D01*
X139051329Y-79481514D01*
X139295298Y-79553097D01*
X140108395Y-78740000D01*
X140467605Y-78740000D01*
X141280702Y-79553097D01*
X141524671Y-79481514D01*
X141645571Y-79226004D01*
X141714300Y-78951816D01*
X141728217Y-78669488D01*
X141717724Y-78598665D01*
X143853000Y-78598665D01*
X143853000Y-78881335D01*
X143908147Y-79158574D01*
X144016320Y-79419727D01*
X144173363Y-79654759D01*
X144373241Y-79854637D01*
X144608273Y-80011680D01*
X144869426Y-80119853D01*
X145146665Y-80175000D01*
X145429335Y-80175000D01*
X145706574Y-80119853D01*
X145967727Y-80011680D01*
X146202759Y-79854637D01*
X146402637Y-79654759D01*
X146559680Y-79419727D01*
X146667853Y-79158574D01*
X146723000Y-78881335D01*
X146723000Y-78598665D01*
X146667853Y-78321426D01*
X146559680Y-78060273D01*
X146402637Y-77825241D01*
X146202759Y-77625363D01*
X145967727Y-77468320D01*
X145706574Y-77360147D01*
X145429335Y-77305000D01*
X145146665Y-77305000D01*
X144869426Y-77360147D01*
X144608273Y-77468320D01*
X144373241Y-77625363D01*
X144173363Y-77825241D01*
X144016320Y-78060273D01*
X143908147Y-78321426D01*
X143853000Y-78598665D01*
X141717724Y-78598665D01*
X141686787Y-78389870D01*
X141591603Y-78123708D01*
X141524671Y-77998486D01*
X141280702Y-77926903D01*
X140467605Y-78740000D01*
X140108395Y-78740000D01*
X139295298Y-77926903D01*
X139051329Y-77998486D01*
X138930429Y-78253996D01*
X138861700Y-78528184D01*
X138847783Y-78810512D01*
X119291000Y-78810512D01*
X119291000Y-78598665D01*
X119235853Y-78321426D01*
X119127680Y-78060273D01*
X118970637Y-77825241D01*
X118892694Y-77747298D01*
X139474903Y-77747298D01*
X140288000Y-78560395D01*
X141101097Y-77747298D01*
X141029514Y-77503329D01*
X140774004Y-77382429D01*
X140499816Y-77313700D01*
X140217488Y-77299783D01*
X139937870Y-77341213D01*
X139671708Y-77436397D01*
X139546486Y-77503329D01*
X139474903Y-77747298D01*
X118892694Y-77747298D01*
X118770759Y-77625363D01*
X118535727Y-77468320D01*
X118274574Y-77360147D01*
X117997335Y-77305000D01*
X117714665Y-77305000D01*
X117437426Y-77360147D01*
X117176273Y-77468320D01*
X116941241Y-77625363D01*
X116741363Y-77825241D01*
X116584320Y-78060273D01*
X116476147Y-78321426D01*
X116421000Y-78598665D01*
X116421000Y-78881335D01*
X116476147Y-79158574D01*
X116584320Y-79419727D01*
X116741363Y-79654759D01*
X116941241Y-79854637D01*
X116950016Y-79860500D01*
X113631600Y-79860500D01*
X113669097Y-79732702D01*
X112856000Y-78919605D01*
X112042903Y-79732702D01*
X112080400Y-79860500D01*
X96663984Y-79860500D01*
X96672759Y-79854637D01*
X96872637Y-79654759D01*
X97029680Y-79419727D01*
X97137853Y-79158574D01*
X97193000Y-78881335D01*
X97193000Y-78810512D01*
X111415783Y-78810512D01*
X111457213Y-79090130D01*
X111552397Y-79356292D01*
X111619329Y-79481514D01*
X111863298Y-79553097D01*
X112676395Y-78740000D01*
X113035605Y-78740000D01*
X113848702Y-79553097D01*
X114092671Y-79481514D01*
X114213571Y-79226004D01*
X114282300Y-78951816D01*
X114296217Y-78669488D01*
X114254787Y-78389870D01*
X114159603Y-78123708D01*
X114092671Y-77998486D01*
X113848702Y-77926903D01*
X113035605Y-78740000D01*
X112676395Y-78740000D01*
X111863298Y-77926903D01*
X111619329Y-77998486D01*
X111498429Y-78253996D01*
X111429700Y-78528184D01*
X111415783Y-78810512D01*
X97193000Y-78810512D01*
X97193000Y-78598665D01*
X97137853Y-78321426D01*
X97029680Y-78060273D01*
X96872637Y-77825241D01*
X96794694Y-77747298D01*
X112042903Y-77747298D01*
X112856000Y-78560395D01*
X113669097Y-77747298D01*
X113597514Y-77503329D01*
X113342004Y-77382429D01*
X113067816Y-77313700D01*
X112785488Y-77299783D01*
X112505870Y-77341213D01*
X112239708Y-77436397D01*
X112114486Y-77503329D01*
X112042903Y-77747298D01*
X96794694Y-77747298D01*
X96672759Y-77625363D01*
X96437727Y-77468320D01*
X96176574Y-77360147D01*
X95899335Y-77305000D01*
X95616665Y-77305000D01*
X95339426Y-77360147D01*
X95078273Y-77468320D01*
X94843241Y-77625363D01*
X94643363Y-77825241D01*
X94486320Y-78060273D01*
X94378147Y-78321426D01*
X94323000Y-78598665D01*
X94323000Y-78881335D01*
X94378147Y-79158574D01*
X94486320Y-79419727D01*
X94643363Y-79654759D01*
X94843241Y-79854637D01*
X94852016Y-79860500D01*
X92853984Y-79860500D01*
X92862759Y-79854637D01*
X93062637Y-79654759D01*
X93219680Y-79419727D01*
X93327853Y-79158574D01*
X93383000Y-78881335D01*
X93383000Y-78598665D01*
X93327853Y-78321426D01*
X93219680Y-78060273D01*
X93062637Y-77825241D01*
X92862759Y-77625363D01*
X92627727Y-77468320D01*
X92366574Y-77360147D01*
X92089335Y-77305000D01*
X91806665Y-77305000D01*
X91529426Y-77360147D01*
X91268273Y-77468320D01*
X91033241Y-77625363D01*
X90833363Y-77825241D01*
X90676320Y-78060273D01*
X90568147Y-78321426D01*
X90513000Y-78598665D01*
X90513000Y-78881335D01*
X90568147Y-79158574D01*
X90676320Y-79419727D01*
X90833363Y-79654759D01*
X91033241Y-79854637D01*
X91042016Y-79860500D01*
X79506907Y-79860500D01*
X79465899Y-79856461D01*
X79424891Y-79860500D01*
X79424881Y-79860500D01*
X79302211Y-79872582D01*
X79144813Y-79920328D01*
X78999754Y-79997864D01*
X78872609Y-80102209D01*
X78846458Y-80134074D01*
X78515933Y-80464600D01*
X77619050Y-80464600D01*
X77627932Y-80443158D01*
X77685000Y-80156260D01*
X77685000Y-79863740D01*
X77627932Y-79576842D01*
X77515990Y-79306589D01*
X77353475Y-79063368D01*
X77146632Y-78856525D01*
X76972240Y-78740000D01*
X77146632Y-78623475D01*
X77353475Y-78416632D01*
X77515990Y-78173411D01*
X77627932Y-77903158D01*
X77685000Y-77616260D01*
X77685000Y-77323740D01*
X77627932Y-77036842D01*
X77515990Y-76766589D01*
X77353475Y-76523368D01*
X77146632Y-76316525D01*
X76972240Y-76200000D01*
X77146632Y-76083475D01*
X77353475Y-75876632D01*
X77515990Y-75633411D01*
X77627932Y-75363158D01*
X77685000Y-75076260D01*
X77685000Y-74783740D01*
X77627932Y-74496842D01*
X77515990Y-74226589D01*
X77353475Y-73983368D01*
X77146632Y-73776525D01*
X76903411Y-73614010D01*
X76633158Y-73502068D01*
X76346260Y-73445000D01*
X76053740Y-73445000D01*
X75766842Y-73502068D01*
X75496589Y-73614010D01*
X75253368Y-73776525D01*
X75121513Y-73908380D01*
X75099502Y-73835820D01*
X75040537Y-73725506D01*
X74961185Y-73628815D01*
X74864494Y-73549463D01*
X74754180Y-73490498D01*
X74634482Y-73454188D01*
X74510000Y-73441928D01*
X72810000Y-73441928D01*
X72685518Y-73454188D01*
X72565820Y-73490498D01*
X72455506Y-73549463D01*
X72358815Y-73628815D01*
X72279463Y-73725506D01*
X72220498Y-73835820D01*
X72184188Y-73955518D01*
X72171928Y-74080000D01*
X72171928Y-75780000D01*
X72184188Y-75904482D01*
X72220498Y-76024180D01*
X72279463Y-76134494D01*
X72358815Y-76231185D01*
X72455506Y-76310537D01*
X72565820Y-76369502D01*
X72638380Y-76391513D01*
X72506525Y-76523368D01*
X72344010Y-76766589D01*
X72232068Y-77036842D01*
X72175000Y-77323740D01*
X72175000Y-77616260D01*
X72232068Y-77903158D01*
X72344010Y-78173411D01*
X72506525Y-78416632D01*
X72713368Y-78623475D01*
X72887760Y-78740000D01*
X72713368Y-78856525D01*
X72506525Y-79063368D01*
X72344010Y-79306589D01*
X72232068Y-79576842D01*
X72175000Y-79863740D01*
X72175000Y-80156260D01*
X72232068Y-80443158D01*
X72344010Y-80713411D01*
X72416593Y-80822039D01*
X71833574Y-81405059D01*
X71801710Y-81431209D01*
X71730140Y-81518418D01*
X71697364Y-81558355D01*
X71619828Y-81703414D01*
X71572082Y-81860812D01*
X71555960Y-82024500D01*
X71560001Y-82065528D01*
X71560000Y-83080681D01*
X71555960Y-83121700D01*
X71560000Y-83162718D01*
X71572082Y-83285388D01*
X71619828Y-83442786D01*
X71697364Y-83587845D01*
X71801709Y-83714991D01*
X71833578Y-83741146D01*
X72398088Y-84305656D01*
X72344010Y-84386589D01*
X72232068Y-84656842D01*
X72175000Y-84943740D01*
X72175000Y-85236260D01*
X72232068Y-85523158D01*
X72344010Y-85793411D01*
X72422761Y-85911271D01*
X70555174Y-87778859D01*
X70523310Y-87805009D01*
X70497162Y-87836871D01*
X70418964Y-87932155D01*
X70341428Y-88077214D01*
X70293682Y-88234612D01*
X70277560Y-88398300D01*
X69977000Y-88398300D01*
X69977000Y-71755000D01*
X169291000Y-71755000D01*
X169291000Y-121539000D01*
G37*
X169291000Y-121539000D02*
X69977000Y-121539000D01*
X69977000Y-118466890D01*
X72218524Y-118466890D01*
X72263175Y-118614099D01*
X72388359Y-118876920D01*
X72562412Y-119110269D01*
X72778645Y-119305178D01*
X73028748Y-119454157D01*
X73303109Y-119551481D01*
X73533000Y-119430814D01*
X73533000Y-118237000D01*
X73787000Y-118237000D01*
X73787000Y-119430814D01*
X74016891Y-119551481D01*
X74291252Y-119454157D01*
X74541355Y-119305178D01*
X74757588Y-119110269D01*
X74930000Y-118879120D01*
X75102412Y-119110269D01*
X75318645Y-119305178D01*
X75568748Y-119454157D01*
X75843109Y-119551481D01*
X76073000Y-119430814D01*
X76073000Y-118237000D01*
X76327000Y-118237000D01*
X76327000Y-119430814D01*
X76556891Y-119551481D01*
X76831252Y-119454157D01*
X77081355Y-119305178D01*
X77297588Y-119110269D01*
X77471641Y-118876920D01*
X77596825Y-118614099D01*
X77641476Y-118466890D01*
X77520155Y-118237000D01*
X76327000Y-118237000D01*
X76073000Y-118237000D01*
X73787000Y-118237000D01*
X73533000Y-118237000D01*
X72339845Y-118237000D01*
X72218524Y-118466890D01*
X69977000Y-118466890D01*
X69977000Y-88398300D01*
X70277560Y-88398300D01*
X70281601Y-88439329D01*
X70281600Y-109683582D01*
X70277560Y-109724600D01*
X70281600Y-109765618D01*
X70293682Y-109888288D01*
X70341428Y-110045686D01*
X70418964Y-110190745D01*
X70523309Y-110317891D01*
X70555179Y-110344046D01*
X72421600Y-112210468D01*
X72344010Y-112326589D01*
X72232068Y-112596842D01*
X72175000Y-112883740D01*
X72175000Y-113176260D01*
X72232068Y-113463158D01*
X72344010Y-113733411D01*
X72506525Y-113976632D01*
X72713368Y-114183475D01*
X72887760Y-114300000D01*
X72713368Y-114416525D01*
X72506525Y-114623368D01*
X72344010Y-114866589D01*
X72232068Y-115136842D01*
X72175000Y-115423740D01*
X72175000Y-115716260D01*
X72232068Y-116003158D01*
X72344010Y-116273411D01*
X72506525Y-116516632D01*
X72713368Y-116723475D01*
X72895534Y-116845195D01*
X72778645Y-116914822D01*
X72562412Y-117109731D01*
X72388359Y-117343080D01*
X72263175Y-117605901D01*
X72218524Y-117753110D01*
X72339845Y-117983000D01*
X73533000Y-117983000D01*
X73533000Y-117963000D01*
X73787000Y-117963000D01*
X73787000Y-117983000D01*
X76073000Y-117983000D01*
X76073000Y-117963000D01*
X76327000Y-117963000D01*
X76327000Y-117983000D01*
X77520155Y-117983000D01*
X77641476Y-117753110D01*
X77596825Y-117605901D01*
X77471641Y-117343080D01*
X77297588Y-117109731D01*
X77081355Y-116914822D01*
X76964466Y-116845195D01*
X77146632Y-116723475D01*
X77353475Y-116516632D01*
X77515990Y-116273411D01*
X77627932Y-116003158D01*
X77685000Y-115716260D01*
X77685000Y-115423740D01*
X77627932Y-115136842D01*
X77515990Y-114866589D01*
X77353475Y-114623368D01*
X77146632Y-114416525D01*
X76972240Y-114300000D01*
X77146632Y-114183475D01*
X77353475Y-113976632D01*
X77515990Y-113733411D01*
X77627932Y-113463158D01*
X77685000Y-113176260D01*
X77685000Y-112883740D01*
X77627932Y-112596842D01*
X77515990Y-112326589D01*
X77353475Y-112083368D01*
X77146632Y-111876525D01*
X76972240Y-111760000D01*
X77146632Y-111643475D01*
X77353475Y-111436632D01*
X77418042Y-111340000D01*
X90713928Y-111340000D01*
X90726188Y-111464482D01*
X90762498Y-111584180D01*
X90821463Y-111694494D01*
X90900815Y-111791185D01*
X90997506Y-111870537D01*
X91107820Y-111929502D01*
X91227518Y-111965812D01*
X91352000Y-111978072D01*
X91916250Y-111975000D01*
X92075000Y-111816250D01*
X92075000Y-110617000D01*
X90875750Y-110617000D01*
X90717000Y-110775750D01*
X90713928Y-111340000D01*
X77418042Y-111340000D01*
X77515990Y-111193411D01*
X77627932Y-110923158D01*
X77685000Y-110636260D01*
X77685000Y-110343740D01*
X77631464Y-110074600D01*
X90716294Y-110074600D01*
X90717000Y-110204250D01*
X90875750Y-110363000D01*
X92075000Y-110363000D01*
X92075000Y-110343000D01*
X92329000Y-110343000D01*
X92329000Y-110363000D01*
X92349000Y-110363000D01*
X92349000Y-110617000D01*
X92329000Y-110617000D01*
X92329000Y-111816250D01*
X92487750Y-111975000D01*
X93052000Y-111978072D01*
X93176482Y-111965812D01*
X93296180Y-111929502D01*
X93406494Y-111870537D01*
X93503185Y-111791185D01*
X93582537Y-111694494D01*
X93641502Y-111584180D01*
X93677812Y-111464482D01*
X93690072Y-111340000D01*
X93687000Y-110775750D01*
X93528252Y-110617002D01*
X93687000Y-110617002D01*
X93687000Y-110516768D01*
X96080259Y-112910027D01*
X96106409Y-112941891D01*
X96233554Y-113046236D01*
X96378613Y-113123772D01*
X96536011Y-113171518D01*
X96699700Y-113187640D01*
X96740718Y-113183600D01*
X130688382Y-113183600D01*
X130729400Y-113187640D01*
X130770418Y-113183600D01*
X130770419Y-113183600D01*
X130893089Y-113171518D01*
X131050487Y-113123772D01*
X131195546Y-113046236D01*
X131322691Y-112941891D01*
X131348846Y-112910021D01*
X143514214Y-100744655D01*
X143555818Y-100881808D01*
X143689068Y-101131101D01*
X143868392Y-101349608D01*
X144086899Y-101528932D01*
X144219858Y-101600000D01*
X144086899Y-101671068D01*
X143868392Y-101850392D01*
X143689068Y-102068899D01*
X143555818Y-102318192D01*
X143473764Y-102588691D01*
X143446057Y-102870000D01*
X143473764Y-103151309D01*
X143555818Y-103421808D01*
X143689068Y-103671101D01*
X143868392Y-103889608D01*
X144086899Y-104068932D01*
X144219858Y-104140000D01*
X144086899Y-104211068D01*
X143868392Y-104390392D01*
X143689068Y-104608899D01*
X143555818Y-104858192D01*
X143473764Y-105128691D01*
X143446057Y-105410000D01*
X143473764Y-105691309D01*
X143555818Y-105961808D01*
X143689068Y-106211101D01*
X143868392Y-106429608D01*
X144086899Y-106608932D01*
X144219858Y-106680000D01*
X144086899Y-106751068D01*
X143868392Y-106930392D01*
X143689068Y-107148899D01*
X143555818Y-107398192D01*
X143473764Y-107668691D01*
X143446057Y-107950000D01*
X143473764Y-108231309D01*
X143555818Y-108501808D01*
X143689068Y-108751101D01*
X143868392Y-108969608D01*
X144086899Y-109148932D01*
X144219858Y-109220000D01*
X144086899Y-109291068D01*
X143868392Y-109470392D01*
X143689068Y-109688899D01*
X143555818Y-109938192D01*
X143473764Y-110208691D01*
X143446057Y-110490000D01*
X143473764Y-110771309D01*
X143555818Y-111041808D01*
X143689068Y-111291101D01*
X143868392Y-111509608D01*
X144086899Y-111688932D01*
X144336192Y-111822182D01*
X144606691Y-111904236D01*
X144817508Y-111925000D01*
X145758492Y-111925000D01*
X145969309Y-111904236D01*
X146239808Y-111822182D01*
X146489101Y-111688932D01*
X146707608Y-111509608D01*
X146886932Y-111291101D01*
X147020182Y-111041808D01*
X147102236Y-110771309D01*
X147129943Y-110490000D01*
X147102236Y-110208691D01*
X147020182Y-109938192D01*
X146887521Y-109690000D01*
X153247928Y-109690000D01*
X153247928Y-111290000D01*
X153260188Y-111414482D01*
X153296498Y-111534180D01*
X153355463Y-111644494D01*
X153434815Y-111741185D01*
X153531506Y-111820537D01*
X153641820Y-111879502D01*
X153761518Y-111915812D01*
X153886000Y-111928072D01*
X155486000Y-111928072D01*
X155610482Y-111915812D01*
X155730180Y-111879502D01*
X155840494Y-111820537D01*
X155937185Y-111741185D01*
X156016537Y-111644494D01*
X156075502Y-111534180D01*
X156111812Y-111414482D01*
X156124072Y-111290000D01*
X156124072Y-110348665D01*
X160871000Y-110348665D01*
X160871000Y-110631335D01*
X160926147Y-110908574D01*
X161034320Y-111169727D01*
X161191363Y-111404759D01*
X161391241Y-111604637D01*
X161626273Y-111761680D01*
X161887426Y-111869853D01*
X162164665Y-111925000D01*
X162447335Y-111925000D01*
X162724574Y-111869853D01*
X162985727Y-111761680D01*
X163220759Y-111604637D01*
X163420637Y-111404759D01*
X163577680Y-111169727D01*
X163685853Y-110908574D01*
X163741000Y-110631335D01*
X163741000Y-110348665D01*
X163685853Y-110071426D01*
X163577680Y-109810273D01*
X163420637Y-109575241D01*
X163220759Y-109375363D01*
X162985727Y-109218320D01*
X162724574Y-109110147D01*
X162447335Y-109055000D01*
X162164665Y-109055000D01*
X161887426Y-109110147D01*
X161626273Y-109218320D01*
X161391241Y-109375363D01*
X161191363Y-109575241D01*
X161034320Y-109810273D01*
X160926147Y-110071426D01*
X160871000Y-110348665D01*
X156124072Y-110348665D01*
X156124072Y-109690000D01*
X156111812Y-109565518D01*
X156075502Y-109445820D01*
X156016537Y-109335506D01*
X155937185Y-109238815D01*
X155840494Y-109159463D01*
X155730180Y-109100498D01*
X155610482Y-109064188D01*
X155486000Y-109051928D01*
X153886000Y-109051928D01*
X153761518Y-109064188D01*
X153641820Y-109100498D01*
X153531506Y-109159463D01*
X153434815Y-109238815D01*
X153355463Y-109335506D01*
X153296498Y-109445820D01*
X153260188Y-109565518D01*
X153247928Y-109690000D01*
X146887521Y-109690000D01*
X146886932Y-109688899D01*
X146707608Y-109470392D01*
X146489101Y-109291068D01*
X146356142Y-109220000D01*
X146489101Y-109148932D01*
X146707608Y-108969608D01*
X146886932Y-108751101D01*
X147020182Y-108501808D01*
X147102236Y-108231309D01*
X147129943Y-107950000D01*
X147102236Y-107668691D01*
X147020182Y-107398192D01*
X146886932Y-107148899D01*
X146707608Y-106930392D01*
X146489101Y-106751068D01*
X146356142Y-106680000D01*
X146489101Y-106608932D01*
X146707608Y-106429608D01*
X146886932Y-106211101D01*
X147020182Y-105961808D01*
X147044997Y-105880000D01*
X153247928Y-105880000D01*
X153247928Y-107480000D01*
X153260188Y-107604482D01*
X153296498Y-107724180D01*
X153355463Y-107834494D01*
X153434815Y-107931185D01*
X153531506Y-108010537D01*
X153641820Y-108069502D01*
X153761518Y-108105812D01*
X153886000Y-108118072D01*
X155486000Y-108118072D01*
X155610482Y-108105812D01*
X155730180Y-108069502D01*
X155840494Y-108010537D01*
X155937185Y-107931185D01*
X156016537Y-107834494D01*
X156075502Y-107724180D01*
X156111812Y-107604482D01*
X156124072Y-107480000D01*
X156124072Y-106538665D01*
X160871000Y-106538665D01*
X160871000Y-106821335D01*
X160926147Y-107098574D01*
X161034320Y-107359727D01*
X161191363Y-107594759D01*
X161391241Y-107794637D01*
X161626273Y-107951680D01*
X161887426Y-108059853D01*
X162164665Y-108115000D01*
X162447335Y-108115000D01*
X162724574Y-108059853D01*
X162985727Y-107951680D01*
X163220759Y-107794637D01*
X163420637Y-107594759D01*
X163577680Y-107359727D01*
X163685853Y-107098574D01*
X163741000Y-106821335D01*
X163741000Y-106538665D01*
X163685853Y-106261426D01*
X163577680Y-106000273D01*
X163420637Y-105765241D01*
X163220759Y-105565363D01*
X162985727Y-105408320D01*
X162724574Y-105300147D01*
X162447335Y-105245000D01*
X162164665Y-105245000D01*
X161887426Y-105300147D01*
X161626273Y-105408320D01*
X161391241Y-105565363D01*
X161191363Y-105765241D01*
X161034320Y-106000273D01*
X160926147Y-106261426D01*
X160871000Y-106538665D01*
X156124072Y-106538665D01*
X156124072Y-105880000D01*
X156111812Y-105755518D01*
X156075502Y-105635820D01*
X156016537Y-105525506D01*
X155937185Y-105428815D01*
X155840494Y-105349463D01*
X155730180Y-105290498D01*
X155610482Y-105254188D01*
X155486000Y-105241928D01*
X153886000Y-105241928D01*
X153761518Y-105254188D01*
X153641820Y-105290498D01*
X153531506Y-105349463D01*
X153434815Y-105428815D01*
X153355463Y-105525506D01*
X153296498Y-105635820D01*
X153260188Y-105755518D01*
X153247928Y-105880000D01*
X147044997Y-105880000D01*
X147102236Y-105691309D01*
X147129943Y-105410000D01*
X147102236Y-105128691D01*
X147020182Y-104858192D01*
X146886932Y-104608899D01*
X146707608Y-104390392D01*
X146489101Y-104211068D01*
X146356142Y-104140000D01*
X146489101Y-104068932D01*
X146707608Y-103889608D01*
X146886932Y-103671101D01*
X147020182Y-103421808D01*
X147102236Y-103151309D01*
X147129943Y-102870000D01*
X147102236Y-102588691D01*
X147020182Y-102318192D01*
X146886932Y-102068899D01*
X146707608Y-101850392D01*
X146489101Y-101671068D01*
X146356142Y-101600000D01*
X146489101Y-101528932D01*
X146707608Y-101349608D01*
X146886932Y-101131101D01*
X147020182Y-100881808D01*
X147102236Y-100611309D01*
X147129943Y-100330000D01*
X147102236Y-100048691D01*
X147020182Y-99778192D01*
X146886932Y-99528899D01*
X146707608Y-99310392D01*
X146489101Y-99131068D01*
X146356142Y-99060000D01*
X146489101Y-98988932D01*
X146707608Y-98809608D01*
X146886932Y-98591101D01*
X147020182Y-98341808D01*
X147075332Y-98160000D01*
X150607928Y-98160000D01*
X150607928Y-99960000D01*
X150620188Y-100084482D01*
X150656498Y-100204180D01*
X150715463Y-100314494D01*
X150794815Y-100411185D01*
X150891506Y-100490537D01*
X151001820Y-100549502D01*
X151121518Y-100585812D01*
X151246000Y-100598072D01*
X153046000Y-100598072D01*
X153170482Y-100585812D01*
X153290180Y-100549502D01*
X153400494Y-100490537D01*
X153497185Y-100411185D01*
X153576537Y-100314494D01*
X153635502Y-100204180D01*
X153641056Y-100185873D01*
X153707495Y-100252312D01*
X153958905Y-100420299D01*
X154238257Y-100536011D01*
X154534816Y-100595000D01*
X154837184Y-100595000D01*
X155133743Y-100536011D01*
X155413095Y-100420299D01*
X155664505Y-100252312D01*
X155878312Y-100038505D01*
X156046299Y-99787095D01*
X156162011Y-99507743D01*
X156221000Y-99211184D01*
X156221000Y-98908816D01*
X160771000Y-98908816D01*
X160771000Y-99211184D01*
X160829989Y-99507743D01*
X160945701Y-99787095D01*
X161113688Y-100038505D01*
X161327495Y-100252312D01*
X161578905Y-100420299D01*
X161858257Y-100536011D01*
X162154816Y-100595000D01*
X162457184Y-100595000D01*
X162753743Y-100536011D01*
X163033095Y-100420299D01*
X163284505Y-100252312D01*
X163350944Y-100185873D01*
X163356498Y-100204180D01*
X163415463Y-100314494D01*
X163494815Y-100411185D01*
X163591506Y-100490537D01*
X163701820Y-100549502D01*
X163821518Y-100585812D01*
X163946000Y-100598072D01*
X164560250Y-100595000D01*
X164719000Y-100436250D01*
X164719000Y-99187000D01*
X164973000Y-99187000D01*
X164973000Y-100436250D01*
X165131750Y-100595000D01*
X165746000Y-100598072D01*
X165870482Y-100585812D01*
X165990180Y-100549502D01*
X166100494Y-100490537D01*
X166197185Y-100411185D01*
X166276537Y-100314494D01*
X166335502Y-100204180D01*
X166371812Y-100084482D01*
X166384072Y-99960000D01*
X166381000Y-99345750D01*
X166222250Y-99187000D01*
X164973000Y-99187000D01*
X164719000Y-99187000D01*
X164699000Y-99187000D01*
X164699000Y-98933000D01*
X164719000Y-98933000D01*
X164719000Y-97683750D01*
X164973000Y-97683750D01*
X164973000Y-98933000D01*
X166222250Y-98933000D01*
X166381000Y-98774250D01*
X166384072Y-98160000D01*
X166371812Y-98035518D01*
X166335502Y-97915820D01*
X166276537Y-97805506D01*
X166197185Y-97708815D01*
X166100494Y-97629463D01*
X165990180Y-97570498D01*
X165870482Y-97534188D01*
X165746000Y-97521928D01*
X165131750Y-97525000D01*
X164973000Y-97683750D01*
X164719000Y-97683750D01*
X164560250Y-97525000D01*
X163946000Y-97521928D01*
X163821518Y-97534188D01*
X163701820Y-97570498D01*
X163591506Y-97629463D01*
X163494815Y-97708815D01*
X163415463Y-97805506D01*
X163356498Y-97915820D01*
X163350944Y-97934127D01*
X163284505Y-97867688D01*
X163033095Y-97699701D01*
X162753743Y-97583989D01*
X162457184Y-97525000D01*
X162154816Y-97525000D01*
X161858257Y-97583989D01*
X161578905Y-97699701D01*
X161327495Y-97867688D01*
X161113688Y-98081495D01*
X160945701Y-98332905D01*
X160829989Y-98612257D01*
X160771000Y-98908816D01*
X156221000Y-98908816D01*
X156162011Y-98612257D01*
X156046299Y-98332905D01*
X155878312Y-98081495D01*
X155664505Y-97867688D01*
X155413095Y-97699701D01*
X155133743Y-97583989D01*
X154837184Y-97525000D01*
X154534816Y-97525000D01*
X154238257Y-97583989D01*
X153958905Y-97699701D01*
X153707495Y-97867688D01*
X153641056Y-97934127D01*
X153635502Y-97915820D01*
X153576537Y-97805506D01*
X153497185Y-97708815D01*
X153400494Y-97629463D01*
X153290180Y-97570498D01*
X153170482Y-97534188D01*
X153046000Y-97521928D01*
X151246000Y-97521928D01*
X151121518Y-97534188D01*
X151001820Y-97570498D01*
X150891506Y-97629463D01*
X150794815Y-97708815D01*
X150715463Y-97805506D01*
X150656498Y-97915820D01*
X150620188Y-98035518D01*
X150607928Y-98160000D01*
X147075332Y-98160000D01*
X147102236Y-98071309D01*
X147129943Y-97790000D01*
X147102236Y-97508691D01*
X147020182Y-97238192D01*
X146886932Y-96988899D01*
X146707608Y-96770392D01*
X146489101Y-96591068D01*
X146356142Y-96520000D01*
X146489101Y-96448932D01*
X146707608Y-96269608D01*
X146886932Y-96051101D01*
X147020182Y-95801808D01*
X147102236Y-95531309D01*
X147129943Y-95250000D01*
X147102236Y-94968691D01*
X147020182Y-94698192D01*
X146886932Y-94448899D01*
X146707608Y-94230392D01*
X146489101Y-94051068D01*
X146356142Y-93980000D01*
X146489101Y-93908932D01*
X146707608Y-93729608D01*
X146886932Y-93511101D01*
X147020182Y-93261808D01*
X147102236Y-92991309D01*
X147129943Y-92710000D01*
X147116023Y-92568665D01*
X153251000Y-92568665D01*
X153251000Y-92851335D01*
X153306147Y-93128574D01*
X153414320Y-93389727D01*
X153571363Y-93624759D01*
X153771241Y-93824637D01*
X154006273Y-93981680D01*
X154267426Y-94089853D01*
X154544665Y-94145000D01*
X154827335Y-94145000D01*
X155104574Y-94089853D01*
X155365727Y-93981680D01*
X155600759Y-93824637D01*
X155800637Y-93624759D01*
X155957680Y-93389727D01*
X156065853Y-93128574D01*
X156121000Y-92851335D01*
X156121000Y-92568665D01*
X160871000Y-92568665D01*
X160871000Y-92851335D01*
X160926147Y-93128574D01*
X161034320Y-93389727D01*
X161191363Y-93624759D01*
X161391241Y-93824637D01*
X161626273Y-93981680D01*
X161887426Y-94089853D01*
X162164665Y-94145000D01*
X162447335Y-94145000D01*
X162724574Y-94089853D01*
X162985727Y-93981680D01*
X163220759Y-93824637D01*
X163420637Y-93624759D01*
X163577680Y-93389727D01*
X163685853Y-93128574D01*
X163741000Y-92851335D01*
X163741000Y-92568665D01*
X163685853Y-92291426D01*
X163577680Y-92030273D01*
X163420637Y-91795241D01*
X163220759Y-91595363D01*
X162985727Y-91438320D01*
X162724574Y-91330147D01*
X162447335Y-91275000D01*
X162164665Y-91275000D01*
X161887426Y-91330147D01*
X161626273Y-91438320D01*
X161391241Y-91595363D01*
X161191363Y-91795241D01*
X161034320Y-92030273D01*
X160926147Y-92291426D01*
X160871000Y-92568665D01*
X156121000Y-92568665D01*
X156065853Y-92291426D01*
X155957680Y-92030273D01*
X155800637Y-91795241D01*
X155600759Y-91595363D01*
X155365727Y-91438320D01*
X155104574Y-91330147D01*
X154827335Y-91275000D01*
X154544665Y-91275000D01*
X154267426Y-91330147D01*
X154006273Y-91438320D01*
X153771241Y-91595363D01*
X153571363Y-91795241D01*
X153414320Y-92030273D01*
X153306147Y-92291426D01*
X153251000Y-92568665D01*
X147116023Y-92568665D01*
X147102236Y-92428691D01*
X147020182Y-92158192D01*
X146886932Y-91908899D01*
X146707608Y-91690392D01*
X146489101Y-91511068D01*
X146356142Y-91440000D01*
X146489101Y-91368932D01*
X146707608Y-91189608D01*
X146858227Y-91006078D01*
X146888300Y-91009040D01*
X147051989Y-90992918D01*
X147209387Y-90945172D01*
X147354446Y-90867636D01*
X147481591Y-90763291D01*
X147585936Y-90636146D01*
X147663472Y-90491087D01*
X147711218Y-90333689D01*
X147723300Y-90211019D01*
X147723300Y-90211018D01*
X147727340Y-90170000D01*
X147723300Y-90128981D01*
X147723300Y-84624918D01*
X147727340Y-84583900D01*
X147711218Y-84420212D01*
X147711075Y-84419738D01*
X147663472Y-84262813D01*
X147585936Y-84117754D01*
X147481591Y-83990609D01*
X147449733Y-83964464D01*
X146864140Y-83378873D01*
X146886932Y-83351101D01*
X147020182Y-83101808D01*
X147102236Y-82831309D01*
X147129943Y-82550000D01*
X147116023Y-82408665D01*
X153251000Y-82408665D01*
X153251000Y-82691335D01*
X153306147Y-82968574D01*
X153414320Y-83229727D01*
X153571363Y-83464759D01*
X153771241Y-83664637D01*
X154006273Y-83821680D01*
X154267426Y-83929853D01*
X154544665Y-83985000D01*
X154827335Y-83985000D01*
X155104574Y-83929853D01*
X155365727Y-83821680D01*
X155600759Y-83664637D01*
X155800637Y-83464759D01*
X155957680Y-83229727D01*
X156065853Y-82968574D01*
X156121000Y-82691335D01*
X156121000Y-82408665D01*
X160871000Y-82408665D01*
X160871000Y-82691335D01*
X160926147Y-82968574D01*
X161034320Y-83229727D01*
X161191363Y-83464759D01*
X161391241Y-83664637D01*
X161626273Y-83821680D01*
X161887426Y-83929853D01*
X162164665Y-83985000D01*
X162447335Y-83985000D01*
X162724574Y-83929853D01*
X162985727Y-83821680D01*
X163220759Y-83664637D01*
X163420637Y-83464759D01*
X163577680Y-83229727D01*
X163685853Y-82968574D01*
X163741000Y-82691335D01*
X163741000Y-82408665D01*
X163685853Y-82131426D01*
X163577680Y-81870273D01*
X163420637Y-81635241D01*
X163220759Y-81435363D01*
X162985727Y-81278320D01*
X162724574Y-81170147D01*
X162447335Y-81115000D01*
X162164665Y-81115000D01*
X161887426Y-81170147D01*
X161626273Y-81278320D01*
X161391241Y-81435363D01*
X161191363Y-81635241D01*
X161034320Y-81870273D01*
X160926147Y-82131426D01*
X160871000Y-82408665D01*
X156121000Y-82408665D01*
X156065853Y-82131426D01*
X155957680Y-81870273D01*
X155800637Y-81635241D01*
X155600759Y-81435363D01*
X155365727Y-81278320D01*
X155104574Y-81170147D01*
X154827335Y-81115000D01*
X154544665Y-81115000D01*
X154267426Y-81170147D01*
X154006273Y-81278320D01*
X153771241Y-81435363D01*
X153571363Y-81635241D01*
X153414320Y-81870273D01*
X153306147Y-82131426D01*
X153251000Y-82408665D01*
X147116023Y-82408665D01*
X147102236Y-82268691D01*
X147020182Y-81998192D01*
X146886932Y-81748899D01*
X146707608Y-81530392D01*
X146489101Y-81351068D01*
X146239808Y-81217818D01*
X145969309Y-81135764D01*
X145758492Y-81115000D01*
X144817508Y-81115000D01*
X144606691Y-81135764D01*
X144336192Y-81217818D01*
X144086899Y-81351068D01*
X143868392Y-81530392D01*
X143689068Y-81748899D01*
X143555818Y-81998192D01*
X143473764Y-82268691D01*
X143446057Y-82550000D01*
X143471785Y-82811217D01*
X140794646Y-80134079D01*
X140768491Y-80102209D01*
X140759969Y-80095215D01*
X140904292Y-80043603D01*
X141029514Y-79976671D01*
X141101097Y-79732702D01*
X140288000Y-78919605D01*
X139474903Y-79732702D01*
X139512400Y-79860500D01*
X118761984Y-79860500D01*
X118770759Y-79854637D01*
X118970637Y-79654759D01*
X119127680Y-79419727D01*
X119235853Y-79158574D01*
X119291000Y-78881335D01*
X119291000Y-78810512D01*
X138847783Y-78810512D01*
X138889213Y-79090130D01*
X138984397Y-79356292D01*
X139051329Y-79481514D01*
X139295298Y-79553097D01*
X140108395Y-78740000D01*
X140467605Y-78740000D01*
X141280702Y-79553097D01*
X141524671Y-79481514D01*
X141645571Y-79226004D01*
X141714300Y-78951816D01*
X141728217Y-78669488D01*
X141717724Y-78598665D01*
X143853000Y-78598665D01*
X143853000Y-78881335D01*
X143908147Y-79158574D01*
X144016320Y-79419727D01*
X144173363Y-79654759D01*
X144373241Y-79854637D01*
X144608273Y-80011680D01*
X144869426Y-80119853D01*
X145146665Y-80175000D01*
X145429335Y-80175000D01*
X145706574Y-80119853D01*
X145967727Y-80011680D01*
X146202759Y-79854637D01*
X146402637Y-79654759D01*
X146559680Y-79419727D01*
X146667853Y-79158574D01*
X146723000Y-78881335D01*
X146723000Y-78598665D01*
X146667853Y-78321426D01*
X146559680Y-78060273D01*
X146402637Y-77825241D01*
X146202759Y-77625363D01*
X145967727Y-77468320D01*
X145706574Y-77360147D01*
X145429335Y-77305000D01*
X145146665Y-77305000D01*
X144869426Y-77360147D01*
X144608273Y-77468320D01*
X144373241Y-77625363D01*
X144173363Y-77825241D01*
X144016320Y-78060273D01*
X143908147Y-78321426D01*
X143853000Y-78598665D01*
X141717724Y-78598665D01*
X141686787Y-78389870D01*
X141591603Y-78123708D01*
X141524671Y-77998486D01*
X141280702Y-77926903D01*
X140467605Y-78740000D01*
X140108395Y-78740000D01*
X139295298Y-77926903D01*
X139051329Y-77998486D01*
X138930429Y-78253996D01*
X138861700Y-78528184D01*
X138847783Y-78810512D01*
X119291000Y-78810512D01*
X119291000Y-78598665D01*
X119235853Y-78321426D01*
X119127680Y-78060273D01*
X118970637Y-77825241D01*
X118892694Y-77747298D01*
X139474903Y-77747298D01*
X140288000Y-78560395D01*
X141101097Y-77747298D01*
X141029514Y-77503329D01*
X140774004Y-77382429D01*
X140499816Y-77313700D01*
X140217488Y-77299783D01*
X139937870Y-77341213D01*
X139671708Y-77436397D01*
X139546486Y-77503329D01*
X139474903Y-77747298D01*
X118892694Y-77747298D01*
X118770759Y-77625363D01*
X118535727Y-77468320D01*
X118274574Y-77360147D01*
X117997335Y-77305000D01*
X117714665Y-77305000D01*
X117437426Y-77360147D01*
X117176273Y-77468320D01*
X116941241Y-77625363D01*
X116741363Y-77825241D01*
X116584320Y-78060273D01*
X116476147Y-78321426D01*
X116421000Y-78598665D01*
X116421000Y-78881335D01*
X116476147Y-79158574D01*
X116584320Y-79419727D01*
X116741363Y-79654759D01*
X116941241Y-79854637D01*
X116950016Y-79860500D01*
X113631600Y-79860500D01*
X113669097Y-79732702D01*
X112856000Y-78919605D01*
X112042903Y-79732702D01*
X112080400Y-79860500D01*
X96663984Y-79860500D01*
X96672759Y-79854637D01*
X96872637Y-79654759D01*
X97029680Y-79419727D01*
X97137853Y-79158574D01*
X97193000Y-78881335D01*
X97193000Y-78810512D01*
X111415783Y-78810512D01*
X111457213Y-79090130D01*
X111552397Y-79356292D01*
X111619329Y-79481514D01*
X111863298Y-79553097D01*
X112676395Y-78740000D01*
X113035605Y-78740000D01*
X113848702Y-79553097D01*
X114092671Y-79481514D01*
X114213571Y-79226004D01*
X114282300Y-78951816D01*
X114296217Y-78669488D01*
X114254787Y-78389870D01*
X114159603Y-78123708D01*
X114092671Y-77998486D01*
X113848702Y-77926903D01*
X113035605Y-78740000D01*
X112676395Y-78740000D01*
X111863298Y-77926903D01*
X111619329Y-77998486D01*
X111498429Y-78253996D01*
X111429700Y-78528184D01*
X111415783Y-78810512D01*
X97193000Y-78810512D01*
X97193000Y-78598665D01*
X97137853Y-78321426D01*
X97029680Y-78060273D01*
X96872637Y-77825241D01*
X96794694Y-77747298D01*
X112042903Y-77747298D01*
X112856000Y-78560395D01*
X113669097Y-77747298D01*
X113597514Y-77503329D01*
X113342004Y-77382429D01*
X113067816Y-77313700D01*
X112785488Y-77299783D01*
X112505870Y-77341213D01*
X112239708Y-77436397D01*
X112114486Y-77503329D01*
X112042903Y-77747298D01*
X96794694Y-77747298D01*
X96672759Y-77625363D01*
X96437727Y-77468320D01*
X96176574Y-77360147D01*
X95899335Y-77305000D01*
X95616665Y-77305000D01*
X95339426Y-77360147D01*
X95078273Y-77468320D01*
X94843241Y-77625363D01*
X94643363Y-77825241D01*
X94486320Y-78060273D01*
X94378147Y-78321426D01*
X94323000Y-78598665D01*
X94323000Y-78881335D01*
X94378147Y-79158574D01*
X94486320Y-79419727D01*
X94643363Y-79654759D01*
X94843241Y-79854637D01*
X94852016Y-79860500D01*
X92853984Y-79860500D01*
X92862759Y-79854637D01*
X93062637Y-79654759D01*
X93219680Y-79419727D01*
X93327853Y-79158574D01*
X93383000Y-78881335D01*
X93383000Y-78598665D01*
X93327853Y-78321426D01*
X93219680Y-78060273D01*
X93062637Y-77825241D01*
X92862759Y-77625363D01*
X92627727Y-77468320D01*
X92366574Y-77360147D01*
X92089335Y-77305000D01*
X91806665Y-77305000D01*
X91529426Y-77360147D01*
X91268273Y-77468320D01*
X91033241Y-77625363D01*
X90833363Y-77825241D01*
X90676320Y-78060273D01*
X90568147Y-78321426D01*
X90513000Y-78598665D01*
X90513000Y-78881335D01*
X90568147Y-79158574D01*
X90676320Y-79419727D01*
X90833363Y-79654759D01*
X91033241Y-79854637D01*
X91042016Y-79860500D01*
X79506907Y-79860500D01*
X79465899Y-79856461D01*
X79424891Y-79860500D01*
X79424881Y-79860500D01*
X79302211Y-79872582D01*
X79144813Y-79920328D01*
X78999754Y-79997864D01*
X78872609Y-80102209D01*
X78846458Y-80134074D01*
X78515933Y-80464600D01*
X77619050Y-80464600D01*
X77627932Y-80443158D01*
X77685000Y-80156260D01*
X77685000Y-79863740D01*
X77627932Y-79576842D01*
X77515990Y-79306589D01*
X77353475Y-79063368D01*
X77146632Y-78856525D01*
X76972240Y-78740000D01*
X77146632Y-78623475D01*
X77353475Y-78416632D01*
X77515990Y-78173411D01*
X77627932Y-77903158D01*
X77685000Y-77616260D01*
X77685000Y-77323740D01*
X77627932Y-77036842D01*
X77515990Y-76766589D01*
X77353475Y-76523368D01*
X77146632Y-76316525D01*
X76972240Y-76200000D01*
X77146632Y-76083475D01*
X77353475Y-75876632D01*
X77515990Y-75633411D01*
X77627932Y-75363158D01*
X77685000Y-75076260D01*
X77685000Y-74783740D01*
X77627932Y-74496842D01*
X77515990Y-74226589D01*
X77353475Y-73983368D01*
X77146632Y-73776525D01*
X76903411Y-73614010D01*
X76633158Y-73502068D01*
X76346260Y-73445000D01*
X76053740Y-73445000D01*
X75766842Y-73502068D01*
X75496589Y-73614010D01*
X75253368Y-73776525D01*
X75121513Y-73908380D01*
X75099502Y-73835820D01*
X75040537Y-73725506D01*
X74961185Y-73628815D01*
X74864494Y-73549463D01*
X74754180Y-73490498D01*
X74634482Y-73454188D01*
X74510000Y-73441928D01*
X72810000Y-73441928D01*
X72685518Y-73454188D01*
X72565820Y-73490498D01*
X72455506Y-73549463D01*
X72358815Y-73628815D01*
X72279463Y-73725506D01*
X72220498Y-73835820D01*
X72184188Y-73955518D01*
X72171928Y-74080000D01*
X72171928Y-75780000D01*
X72184188Y-75904482D01*
X72220498Y-76024180D01*
X72279463Y-76134494D01*
X72358815Y-76231185D01*
X72455506Y-76310537D01*
X72565820Y-76369502D01*
X72638380Y-76391513D01*
X72506525Y-76523368D01*
X72344010Y-76766589D01*
X72232068Y-77036842D01*
X72175000Y-77323740D01*
X72175000Y-77616260D01*
X72232068Y-77903158D01*
X72344010Y-78173411D01*
X72506525Y-78416632D01*
X72713368Y-78623475D01*
X72887760Y-78740000D01*
X72713368Y-78856525D01*
X72506525Y-79063368D01*
X72344010Y-79306589D01*
X72232068Y-79576842D01*
X72175000Y-79863740D01*
X72175000Y-80156260D01*
X72232068Y-80443158D01*
X72344010Y-80713411D01*
X72416593Y-80822039D01*
X71833574Y-81405059D01*
X71801710Y-81431209D01*
X71730140Y-81518418D01*
X71697364Y-81558355D01*
X71619828Y-81703414D01*
X71572082Y-81860812D01*
X71555960Y-82024500D01*
X71560001Y-82065528D01*
X71560000Y-83080681D01*
X71555960Y-83121700D01*
X71560000Y-83162718D01*
X71572082Y-83285388D01*
X71619828Y-83442786D01*
X71697364Y-83587845D01*
X71801709Y-83714991D01*
X71833578Y-83741146D01*
X72398088Y-84305656D01*
X72344010Y-84386589D01*
X72232068Y-84656842D01*
X72175000Y-84943740D01*
X72175000Y-85236260D01*
X72232068Y-85523158D01*
X72344010Y-85793411D01*
X72422761Y-85911271D01*
X70555174Y-87778859D01*
X70523310Y-87805009D01*
X70497162Y-87836871D01*
X70418964Y-87932155D01*
X70341428Y-88077214D01*
X70293682Y-88234612D01*
X70277560Y-88398300D01*
X69977000Y-88398300D01*
X69977000Y-71755000D01*
X169291000Y-71755000D01*
X169291000Y-121539000D01*
G36*
X100841633Y-110058182D02*
G01*
X100824096Y-110140961D01*
X100946085Y-110363000D01*
X102489000Y-110363000D01*
X102489000Y-110343000D01*
X102743000Y-110343000D01*
X102743000Y-110363000D01*
X104285915Y-110363000D01*
X104407904Y-110140961D01*
X104390367Y-110058182D01*
X104359329Y-109985300D01*
X116109528Y-109985300D01*
X116041764Y-110208691D01*
X116014057Y-110490000D01*
X116041764Y-110771309D01*
X116123818Y-111041808D01*
X116257068Y-111291101D01*
X116436392Y-111509608D01*
X116441256Y-111513600D01*
X104019820Y-111513600D01*
X104120500Y-111414895D01*
X104279715Y-111181646D01*
X104390367Y-110921818D01*
X104407904Y-110839039D01*
X104285915Y-110617000D01*
X102743000Y-110617000D01*
X102743000Y-110637000D01*
X102489000Y-110637000D01*
X102489000Y-110617000D01*
X100946085Y-110617000D01*
X100824096Y-110839039D01*
X100841633Y-110921818D01*
X100952285Y-111181646D01*
X101111500Y-111414895D01*
X101212180Y-111513600D01*
X97045568Y-111513600D01*
X95517267Y-109985300D01*
X100872671Y-109985300D01*
X100841633Y-110058182D01*
G37*
X100841633Y-110058182D02*
X100824096Y-110140961D01*
X100946085Y-110363000D01*
X102489000Y-110363000D01*
X102489000Y-110343000D01*
X102743000Y-110343000D01*
X102743000Y-110363000D01*
X104285915Y-110363000D01*
X104407904Y-110140961D01*
X104390367Y-110058182D01*
X104359329Y-109985300D01*
X116109528Y-109985300D01*
X116041764Y-110208691D01*
X116014057Y-110490000D01*
X116041764Y-110771309D01*
X116123818Y-111041808D01*
X116257068Y-111291101D01*
X116436392Y-111509608D01*
X116441256Y-111513600D01*
X104019820Y-111513600D01*
X104120500Y-111414895D01*
X104279715Y-111181646D01*
X104390367Y-110921818D01*
X104407904Y-110839039D01*
X104285915Y-110617000D01*
X102743000Y-110617000D01*
X102743000Y-110637000D01*
X102489000Y-110637000D01*
X102489000Y-110617000D01*
X100946085Y-110617000D01*
X100824096Y-110839039D01*
X100841633Y-110921818D01*
X100952285Y-111181646D01*
X101111500Y-111414895D01*
X101212180Y-111513600D01*
X97045568Y-111513600D01*
X95517267Y-109985300D01*
X100872671Y-109985300D01*
X100841633Y-110058182D01*
G36*
X128628392Y-108969608D02*
G01*
X128846899Y-109148932D01*
X128974741Y-109217265D01*
X128745161Y-109367399D01*
X128543500Y-109565105D01*
X128384285Y-109798354D01*
X128273633Y-110058182D01*
X128256096Y-110140961D01*
X128378085Y-110363000D01*
X129921000Y-110363000D01*
X129921000Y-110343000D01*
X130175000Y-110343000D01*
X130175000Y-110363000D01*
X130195000Y-110363000D01*
X130195000Y-110617000D01*
X130175000Y-110617000D01*
X130175000Y-110637000D01*
X129921000Y-110637000D01*
X129921000Y-110617000D01*
X128378085Y-110617000D01*
X128256096Y-110839039D01*
X128273633Y-110921818D01*
X128384285Y-111181646D01*
X128543500Y-111414895D01*
X128644180Y-111513600D01*
X119270744Y-111513600D01*
X119275608Y-111509608D01*
X119454932Y-111291101D01*
X119588182Y-111041808D01*
X119670236Y-110771309D01*
X119697943Y-110490000D01*
X119670236Y-110208691D01*
X119602472Y-109985300D01*
X127206382Y-109985300D01*
X127247400Y-109989340D01*
X127288418Y-109985300D01*
X127288419Y-109985300D01*
X127411089Y-109973218D01*
X127568487Y-109925472D01*
X127713546Y-109847936D01*
X127840691Y-109743591D01*
X127866845Y-109711722D01*
X128619633Y-108958935D01*
X128628392Y-108969608D01*
G37*
X128628392Y-108969608D02*
X128846899Y-109148932D01*
X128974741Y-109217265D01*
X128745161Y-109367399D01*
X128543500Y-109565105D01*
X128384285Y-109798354D01*
X128273633Y-110058182D01*
X128256096Y-110140961D01*
X128378085Y-110363000D01*
X129921000Y-110363000D01*
X129921000Y-110343000D01*
X130175000Y-110343000D01*
X130175000Y-110363000D01*
X130195000Y-110363000D01*
X130195000Y-110617000D01*
X130175000Y-110617000D01*
X130175000Y-110637000D01*
X129921000Y-110637000D01*
X129921000Y-110617000D01*
X128378085Y-110617000D01*
X128256096Y-110839039D01*
X128273633Y-110921818D01*
X128384285Y-111181646D01*
X128543500Y-111414895D01*
X128644180Y-111513600D01*
X119270744Y-111513600D01*
X119275608Y-111509608D01*
X119454932Y-111291101D01*
X119588182Y-111041808D01*
X119670236Y-110771309D01*
X119697943Y-110490000D01*
X119670236Y-110208691D01*
X119602472Y-109985300D01*
X127206382Y-109985300D01*
X127247400Y-109989340D01*
X127288418Y-109985300D01*
X127288419Y-109985300D01*
X127411089Y-109973218D01*
X127568487Y-109925472D01*
X127713546Y-109847936D01*
X127840691Y-109743591D01*
X127866845Y-109711722D01*
X128619633Y-108958935D01*
X128628392Y-108969608D01*
G36*
X143868392Y-93729608D02*
G01*
X144086899Y-93908932D01*
X144219858Y-93980000D01*
X144086899Y-94051068D01*
X143868392Y-94230392D01*
X143689068Y-94448899D01*
X143555818Y-94698192D01*
X143473764Y-94968691D01*
X143446057Y-95250000D01*
X143473764Y-95531309D01*
X143555818Y-95801808D01*
X143689068Y-96051101D01*
X143868392Y-96269608D01*
X144086899Y-96448932D01*
X144219858Y-96520000D01*
X144086899Y-96591068D01*
X143868392Y-96770392D01*
X143689068Y-96988899D01*
X143555818Y-97238192D01*
X143473764Y-97508691D01*
X143446057Y-97790000D01*
X143473764Y-98071309D01*
X143555703Y-98341428D01*
X131825266Y-110071867D01*
X131822367Y-110058182D01*
X131711715Y-109798354D01*
X131552500Y-109565105D01*
X131350839Y-109367399D01*
X131121259Y-109217265D01*
X131249101Y-109148932D01*
X131467608Y-108969608D01*
X131646932Y-108751101D01*
X131780182Y-108501808D01*
X131862236Y-108231309D01*
X131889943Y-107950000D01*
X131862236Y-107668691D01*
X131780182Y-107398192D01*
X131646932Y-107148899D01*
X131467608Y-106930392D01*
X131249101Y-106751068D01*
X131116142Y-106680000D01*
X131249101Y-106608932D01*
X131467608Y-106429608D01*
X131646932Y-106211101D01*
X131780182Y-105961808D01*
X131862236Y-105691309D01*
X131889943Y-105410000D01*
X131862236Y-105128691D01*
X131797505Y-104915300D01*
X132276382Y-104915300D01*
X132317400Y-104919340D01*
X132358418Y-104915300D01*
X132358419Y-104915300D01*
X132481089Y-104903218D01*
X132638487Y-104855472D01*
X132783546Y-104777936D01*
X132910691Y-104673591D01*
X132936846Y-104641721D01*
X143859633Y-93718935D01*
X143868392Y-93729608D01*
G37*
X143868392Y-93729608D02*
X144086899Y-93908932D01*
X144219858Y-93980000D01*
X144086899Y-94051068D01*
X143868392Y-94230392D01*
X143689068Y-94448899D01*
X143555818Y-94698192D01*
X143473764Y-94968691D01*
X143446057Y-95250000D01*
X143473764Y-95531309D01*
X143555818Y-95801808D01*
X143689068Y-96051101D01*
X143868392Y-96269608D01*
X144086899Y-96448932D01*
X144219858Y-96520000D01*
X144086899Y-96591068D01*
X143868392Y-96770392D01*
X143689068Y-96988899D01*
X143555818Y-97238192D01*
X143473764Y-97508691D01*
X143446057Y-97790000D01*
X143473764Y-98071309D01*
X143555703Y-98341428D01*
X131825266Y-110071867D01*
X131822367Y-110058182D01*
X131711715Y-109798354D01*
X131552500Y-109565105D01*
X131350839Y-109367399D01*
X131121259Y-109217265D01*
X131249101Y-109148932D01*
X131467608Y-108969608D01*
X131646932Y-108751101D01*
X131780182Y-108501808D01*
X131862236Y-108231309D01*
X131889943Y-107950000D01*
X131862236Y-107668691D01*
X131780182Y-107398192D01*
X131646932Y-107148899D01*
X131467608Y-106930392D01*
X131249101Y-106751068D01*
X131116142Y-106680000D01*
X131249101Y-106608932D01*
X131467608Y-106429608D01*
X131646932Y-106211101D01*
X131780182Y-105961808D01*
X131862236Y-105691309D01*
X131889943Y-105410000D01*
X131862236Y-105128691D01*
X131797505Y-104915300D01*
X132276382Y-104915300D01*
X132317400Y-104919340D01*
X132358418Y-104915300D01*
X132358419Y-104915300D01*
X132481089Y-104903218D01*
X132638487Y-104855472D01*
X132783546Y-104777936D01*
X132910691Y-104673591D01*
X132936846Y-104641721D01*
X143859633Y-93718935D01*
X143868392Y-93729608D01*
G36*
X80594363Y-97034932D02*
G01*
X80620509Y-97066791D01*
X80652368Y-97092937D01*
X80652370Y-97092939D01*
X80685025Y-97119738D01*
X80747654Y-97171136D01*
X80892713Y-97248672D01*
X81050111Y-97296418D01*
X81172781Y-97308500D01*
X81172782Y-97308500D01*
X81213800Y-97312540D01*
X81254818Y-97308500D01*
X90540092Y-97308500D01*
X90520068Y-97356842D01*
X90463000Y-97643740D01*
X90463000Y-97936260D01*
X90520068Y-98223158D01*
X90632010Y-98493411D01*
X90794525Y-98736632D01*
X90926380Y-98868487D01*
X90853820Y-98890498D01*
X90743506Y-98949463D01*
X90646815Y-99028815D01*
X90567463Y-99125506D01*
X90508498Y-99235820D01*
X90472188Y-99355518D01*
X90459928Y-99480000D01*
X90463000Y-100044250D01*
X90621750Y-100203000D01*
X91821000Y-100203000D01*
X91821000Y-100183000D01*
X92075000Y-100183000D01*
X92075000Y-100203000D01*
X93274250Y-100203000D01*
X93333891Y-100143359D01*
X96435831Y-103245300D01*
X84935569Y-103245300D01*
X82870269Y-101180000D01*
X90459928Y-101180000D01*
X90472188Y-101304482D01*
X90508498Y-101424180D01*
X90567463Y-101534494D01*
X90646815Y-101631185D01*
X90743506Y-101710537D01*
X90853820Y-101769502D01*
X90973518Y-101805812D01*
X91098000Y-101818072D01*
X91662250Y-101815000D01*
X91821000Y-101656250D01*
X91821000Y-100457000D01*
X92075000Y-100457000D01*
X92075000Y-101656250D01*
X92233750Y-101815000D01*
X92798000Y-101818072D01*
X92922482Y-101805812D01*
X93042180Y-101769502D01*
X93152494Y-101710537D01*
X93249185Y-101631185D01*
X93328537Y-101534494D01*
X93387502Y-101424180D01*
X93423812Y-101304482D01*
X93436072Y-101180000D01*
X93433000Y-100615750D01*
X93274250Y-100457000D01*
X92075000Y-100457000D01*
X91821000Y-100457000D01*
X90621750Y-100457000D01*
X90463000Y-100615750D01*
X90459928Y-101180000D01*
X82870269Y-101180000D01*
X77629146Y-95938879D01*
X77602991Y-95907009D01*
X77552406Y-95865495D01*
X77627932Y-95683158D01*
X77685000Y-95396260D01*
X77685000Y-95103740D01*
X77627932Y-94816842D01*
X77515990Y-94546589D01*
X77353475Y-94303368D01*
X77146632Y-94096525D01*
X76972240Y-93980000D01*
X77146632Y-93863475D01*
X77284770Y-93725337D01*
X80594363Y-97034932D01*
G37*
X80594363Y-97034932D02*
X80620509Y-97066791D01*
X80652368Y-97092937D01*
X80652370Y-97092939D01*
X80685025Y-97119738D01*
X80747654Y-97171136D01*
X80892713Y-97248672D01*
X81050111Y-97296418D01*
X81172781Y-97308500D01*
X81172782Y-97308500D01*
X81213800Y-97312540D01*
X81254818Y-97308500D01*
X90540092Y-97308500D01*
X90520068Y-97356842D01*
X90463000Y-97643740D01*
X90463000Y-97936260D01*
X90520068Y-98223158D01*
X90632010Y-98493411D01*
X90794525Y-98736632D01*
X90926380Y-98868487D01*
X90853820Y-98890498D01*
X90743506Y-98949463D01*
X90646815Y-99028815D01*
X90567463Y-99125506D01*
X90508498Y-99235820D01*
X90472188Y-99355518D01*
X90459928Y-99480000D01*
X90463000Y-100044250D01*
X90621750Y-100203000D01*
X91821000Y-100203000D01*
X91821000Y-100183000D01*
X92075000Y-100183000D01*
X92075000Y-100203000D01*
X93274250Y-100203000D01*
X93333891Y-100143359D01*
X96435831Y-103245300D01*
X84935569Y-103245300D01*
X82870269Y-101180000D01*
X90459928Y-101180000D01*
X90472188Y-101304482D01*
X90508498Y-101424180D01*
X90567463Y-101534494D01*
X90646815Y-101631185D01*
X90743506Y-101710537D01*
X90853820Y-101769502D01*
X90973518Y-101805812D01*
X91098000Y-101818072D01*
X91662250Y-101815000D01*
X91821000Y-101656250D01*
X91821000Y-100457000D01*
X92075000Y-100457000D01*
X92075000Y-101656250D01*
X92233750Y-101815000D01*
X92798000Y-101818072D01*
X92922482Y-101805812D01*
X93042180Y-101769502D01*
X93152494Y-101710537D01*
X93249185Y-101631185D01*
X93328537Y-101534494D01*
X93387502Y-101424180D01*
X93423812Y-101304482D01*
X93436072Y-101180000D01*
X93433000Y-100615750D01*
X93274250Y-100457000D01*
X92075000Y-100457000D01*
X91821000Y-100457000D01*
X90621750Y-100457000D01*
X90463000Y-100615750D01*
X90459928Y-101180000D01*
X82870269Y-101180000D01*
X77629146Y-95938879D01*
X77602991Y-95907009D01*
X77552406Y-95865495D01*
X77627932Y-95683158D01*
X77685000Y-95396260D01*
X77685000Y-95103740D01*
X77627932Y-94816842D01*
X77515990Y-94546589D01*
X77353475Y-94303368D01*
X77146632Y-94096525D01*
X76972240Y-93980000D01*
X77146632Y-93863475D01*
X77284770Y-93725337D01*
X80594363Y-97034932D01*
M02*
